<svg width="100" height="100" viewBox="0 0 100 100" fill="none" xmlns="http://www.w3.org/2000/svg">
<path d="M12.5 87.5V12.5H87.5V87.5H12.5Z" fill="#FFD600"/>
<path d="M61.385 69.3411C62.7686 71.5374 64.4725 73.725 67.8647 73.725C69.3361 73.725 70.5231 73.3595 71.3522 72.6793C72.1915 71.9905 72.6147 71.0182 72.6147 69.923C72.6147 68.6343 72.176 67.7178 71.3018 66.9632C70.4724 66.2473 69.253 65.6818 67.7351 65.0208L67.7316 65.0193L66.0503 64.3026L66.0495 64.3022C63.6467 63.2829 61.7079 62.1586 60.3681 60.6579C59.0439 59.1746 58.2751 57.2895 58.2751 54.6771C58.2751 52.2996 59.1825 50.2244 60.7872 48.7406C62.3936 47.2552 64.729 46.3355 67.6251 46.3355C69.7066 46.3355 71.4562 46.6958 72.9431 47.5007C74.3161 48.2439 75.4977 49.3837 76.515 51.035L72.1215 53.8434C71.5979 53.0032 71.0285 52.3632 70.3573 51.9202C69.5613 51.3949 68.6655 51.175 67.6251 51.175C66.5336 51.175 65.602 51.5208 64.938 52.1322C64.2722 52.7452 63.9063 53.5979 63.9063 54.5438C63.9063 55.6803 64.2722 56.5232 65.0564 57.2334C65.7997 57.9065 66.9088 58.449 68.3438 59.0675L68.3457 59.0683L70.0269 59.785L70.0271 59.7851C72.8742 60.9975 75.0282 62.1952 76.4744 63.7404C77.8985 65.2621 78.6668 67.1549 78.6668 69.8396C78.6668 72.7063 77.5417 74.8913 75.6782 76.371C73.8013 77.8614 71.1346 78.6667 68.0209 78.6667C64.9848 78.6667 62.6341 77.9063 60.8094 76.6971C59.1099 75.5708 57.8423 74.0387 56.903 72.3167L61.385 69.3411ZM37.2286 69.5017C38.337 71.2664 40.0008 72.65 42.3605 72.65C43.5136 72.65 44.5565 72.4247 45.2906 71.6309C46.0128 70.85 46.3334 69.6274 46.3334 67.8938V46.3334H52.2772V68.9605C52.2772 72.3706 51.2906 74.7758 49.6554 76.3318C48.0156 77.8923 45.6525 78.6667 42.7668 78.6667C37.8476 78.6667 34.2221 75.4659 32.5943 72.3382L37.2286 69.5017Z" fill="white" stroke="black"/>
<path d="M15.5 15V14.5H14.5V15H15.5ZM14.5 34V34.5H15.5V34H14.5ZM14.5 17.1111V17.6111H15.5V17.1111H14.5ZM15.5 19.2222V18.7222H14.5V19.2222H15.5ZM14.5 23.4444V23.9444H15.5V23.4444H14.5ZM15.5 25.5556V25.0556H14.5V25.5556H15.5ZM14.5 29.7778V30.2778H15.5V29.7778H14.5ZM15.5 31.8889V31.3889H14.5V31.8889H15.5ZM14.5 15V17.1111H15.5V15H14.5ZM14.5 19.2222V23.4444H15.5V19.2222H14.5ZM14.5 25.5556V29.7778H15.5V25.5556H14.5ZM14.5 31.8889V34H15.5V31.8889H14.5Z" fill="black"/>
<path d="M85.5 62V61.5H84.5V62H85.5ZM84.5 85V85.5H85.5V85H84.5ZM85.5 83.62V83.12H84.5V83.62H85.5ZM84.5 81.78V82.28H85.5V81.78H84.5ZM85.5 79.02V78.52H84.5V79.02H85.5ZM84.5 77.18V77.68H85.5V77.18H84.5ZM85.5 74.42V73.92H84.5V74.42H85.5ZM84.5 72.58V73.08H85.5V72.58H84.5ZM85.5 69.82V69.32H84.5V69.82H85.5ZM84.5 67.98V68.48H85.5V67.98H84.5ZM85.5 65.22V64.72H84.5V65.22H85.5ZM84.5 63.38V63.88H85.5V63.38H84.5ZM85.5 85V83.62H84.5V85H85.5ZM85.5 81.78V79.02H84.5V81.78H85.5ZM85.5 77.18V74.42H84.5V77.18H85.5ZM85.5 72.58V69.82H84.5V72.58H85.5ZM85.5 67.98V65.22H84.5V67.98H85.5ZM85.5 63.38V62H84.5V63.38H85.5Z" fill="black"/>
<path d="M15 15.5H67V14.5H15V15.5Z" fill="black"/>
</svg>
