<svg width="119" height="89" viewBox="0 0 119 89" fill="none" xmlns="http://www.w3.org/2000/svg">
<path fill-rule="evenodd" clip-rule="evenodd" d="M110.819 21.8588C111.494 25.0803 112.169 28.2723 112.61 31.5848C112.744 32.5912 113.679 33.3008 114.698 33.1685C115.716 33.0361 116.435 32.1124 116.301 31.106C115.679 26.4341 114.604 21.9985 113.703 17.3901C113.356 15.6089 111.642 15.858 111.536 15.8763C111.305 15.9168 110.042 16.1824 110 17.6429C109.997 17.732 110.058 18.3625 110.068 18.607C110.09 19.1667 110.079 19.7136 110.05 20.2743C110.017 20.9204 110.325 21.5059 110.819 21.8588Z" fill="black"/>
<path fill-rule="evenodd" clip-rule="evenodd" d="M117.738 39.9948C117.927 39.4268 117.831 38.7779 117.425 38.2752C116.784 37.482 115.612 37.3524 114.809 37.9857C114.068 38.5702 113.929 39.2825 114.028 40.1538C114.144 41.1621 115.067 41.8882 116.088 41.7733C117.021 41.6694 117.715 40.8974 117.738 39.9948Z" fill="black"/>
<path fill-rule="evenodd" clip-rule="evenodd" d="M5.63051 56.6958C6.02704 56.4972 6.33997 56.3378 6.40686 56.3001C9.5909 54.5037 12.728 52.5633 15.7154 50.4625C16.5524 49.8738 16.7479 48.7256 16.152 47.8989C15.556 47.0722 14.3934 46.8791 13.5564 47.4677C10.6704 49.4977 7.63747 51.3717 4.56065 53.1081C4.32609 53.2406 2.23369 54.1379 1.36792 54.7613C0.584267 55.3264 0.318013 56.016 0.270476 56.4081C0.195031 57.0308 0.447639 57.9948 1.53409 58.7528C2.952 59.7425 6.70029 60.973 7.3223 61.1755C8.46667 61.5466 9.66513 61.8546 10.8303 62.1387C13.0407 62.6771 15.2829 62.9599 17.5408 63.2055C18.5624 63.317 19.482 62.5882 19.5949 61.5792C19.7069 60.5711 18.969 59.662 17.9483 59.5513C15.8538 59.3233 13.7726 59.0691 11.7225 58.5695C10.6473 58.3068 9.53984 58.0248 8.48378 57.6825C8.16713 57.5791 6.85999 57.1794 5.63051 56.6958Z" fill="black"/>
<path d="M41.372 53.8127C42.8723 53.4701 44.0075 53.5824 44.7774 54.1497C45.5597 54.6874 46.1563 55.46 46.5671 56.4674C46.6527 56.6773 46.7064 56.839 46.7282 56.9525C47.3737 59.6757 47.048 61.9382 45.7511 63.7401C44.4456 65.5209 42.607 66.895 40.2353 67.8622C39.6267 68.1104 38.9356 68.3066 38.162 68.4507C37.4181 68.6072 36.7744 68.6495 36.2309 68.5773C36.0102 68.9366 35.4696 69.2917 34.6091 69.6427C34.0424 69.8738 33.5538 69.816 33.1431 69.4694C32.7239 69.1018 32.3817 68.5927 32.1163 67.9421C32.0222 67.7112 31.9638 67.478 31.9412 67.2424L29.7151 51.7002C28.4304 52.8117 27.7209 53.713 27.5866 54.4042C26.6535 53.977 26.0672 53.4695 25.8275 52.8818C25.6392 52.4201 25.625 51.8751 25.7849 51.2468C26.4019 50.3588 27.5564 49.2882 29.2485 48.0351C29.2367 47.5258 29.3224 47.1359 29.5058 46.8653C29.7102 46.5861 30.0747 46.3395 30.5994 46.1255C31.0402 45.9458 31.4666 45.8209 31.8786 45.7507C32.3116 45.6721 32.6463 45.6824 32.8827 45.7819C33.8388 45.2451 34.8311 44.767 35.8595 44.3475C38.0003 43.4745 39.7499 43.2628 41.1083 43.7124C42.4581 44.1411 43.4412 45.111 44.0575 46.6222C44.5796 47.9025 44.5777 49.1884 44.0518 50.4799C43.5174 51.7505 42.6241 52.8614 41.372 53.8127ZM34.6472 55.6005C39.0896 53.3482 40.84 51.0677 39.8984 48.759C39.6331 48.1083 39.2283 47.6859 38.684 47.4917C38.1311 47.2766 37.372 47.3659 36.4065 47.7596C35.546 48.1106 34.6124 48.5525 33.6058 49.0854L34.6472 55.6005ZM38.5806 64.9753C39.5251 64.5901 40.3696 64.0499 41.1142 63.3546C41.8712 62.6297 42.4046 61.8369 42.7145 60.9761C43.0158 60.0944 42.991 59.2232 42.6401 58.3627C42.3491 57.6491 41.849 57.1432 41.1398 56.8449C40.4431 56.517 39.654 56.5329 38.7725 56.8924C37.1144 57.5686 35.9437 58.1194 35.2605 58.545C35.3869 59.8153 35.6867 62.1409 36.1598 65.522C36.9342 65.4999 37.7411 65.3177 38.5806 64.9753ZM62.2514 49.7405C59.6902 51.3235 57.6681 52.6378 56.1851 53.6832C56.0067 54.6862 55.8996 55.3541 55.864 55.6869C55.7399 56.6432 55.6065 57.4564 55.4637 58.1267C55.3333 58.7673 55.15 59.3684 54.9139 59.9298C54.6529 60.5503 54.414 61.0149 54.1972 61.3237C54.0014 61.6238 53.7146 61.8509 53.3368 62.005C52.7071 62.2618 52.0953 62.3522 51.5013 62.2762C50.9197 62.1707 50.569 61.971 50.4492 61.6772C50.474 61.6181 50.5166 61.0622 50.5768 60.0095C50.6285 58.9358 50.9472 57.4962 51.5327 55.6907C51.4643 55.5228 51.3262 55.3344 51.1185 55.1253C50.9109 54.9162 50.7985 54.7907 50.7814 54.7487C50.5331 54.1401 51.1885 53.016 52.7475 51.3766C53.1674 49.3449 53.6483 47.3128 54.1902 45.2804C54.7532 43.2393 55.4629 40.808 56.3194 37.9862C56.5252 37.2903 56.8849 36.6418 57.3986 36.0407C57.9123 35.4395 58.4945 35.0062 59.1451 34.7409C59.8167 34.467 60.3461 34.3245 60.7333 34.3135C61.1205 34.3025 61.3988 34.3848 61.5684 34.5604C61.7589 34.7275 61.9312 35 62.0853 35.3777C62.2581 36.0416 62.3982 36.5353 62.5056 36.8587C63.2265 39.5266 63.8754 41.8079 64.4521 43.7023C65.0414 45.5672 65.704 47.4022 66.4401 49.2072C67.1164 50.8653 67.8104 52.357 68.5222 53.6823C68.6647 54.2117 68.6326 54.7633 68.426 55.3371C68.2109 55.89 67.8514 56.2691 67.3477 56.4746C66.3823 56.8683 65.6437 56.888 65.132 56.5337C64.6413 56.1708 64.1605 55.4121 63.6898 54.2578C63.3474 53.4183 62.8679 51.9125 62.2514 49.7405ZM57.1957 49.0484C57.5393 48.8104 58.0779 48.4806 58.8117 48.0589L61.1762 46.654C60.1753 43.6595 59.5397 41.4708 59.2695 40.0878C58.8447 41.3871 58.1534 44.374 57.1957 49.0484ZM87.9886 42.3285C88.0589 43.4014 87.835 44.5331 87.3169 45.7236C86.7902 46.8931 85.9517 48.0183 84.8015 49.0994C83.6722 50.1719 82.2576 51.0549 80.5575 51.7482C77.9969 52.7925 75.866 52.9394 74.1646 52.189C72.4547 51.4176 71.2017 50.0559 70.4057 48.104C69.2672 45.3126 68.8044 42.5271 69.0172 39.7476C69.2425 36.9385 70.0929 34.462 71.5685 32.318C73.0356 30.1531 74.9759 28.5784 77.3896 27.594C78.3551 27.2003 79.3265 27.0612 80.3038 27.1767C81.2811 27.2922 82.1718 27.6755 82.9759 28.3267C83.7715 28.957 84.3961 29.8283 84.8498 30.9407C85.1066 31.5703 85.0835 32.2039 84.7805 32.8416C84.4985 33.4706 83.9587 33.9478 83.1612 34.2731C82.5315 34.5299 82.0328 34.5374 81.6649 34.2958C81.3181 34.0455 81.0377 33.6581 80.8237 33.1334L80.4443 32.1131C80.2902 31.7353 79.9306 31.4536 79.3653 31.268C78.8 31.0824 78.339 31.0623 77.9822 31.2078C76.8278 31.6786 75.8163 32.7398 74.9477 34.3915C74.0791 36.0431 73.5702 37.9765 73.4209 40.1915C73.2927 42.398 73.6608 44.5611 74.5253 46.6809C74.9191 47.6464 75.6178 48.2794 76.6216 48.5799C77.6254 48.8804 78.7045 48.7953 79.8589 48.3245C80.5095 48.0592 81.1756 47.5917 81.8572 46.922C82.5598 46.2438 82.9238 45.6058 82.9493 45.0079C82.9446 44.9364 82.9425 44.6313 82.9431 44.0925C82.9351 43.5327 83.0387 42.9764 83.2539 42.4235C83.4815 41.8411 83.8261 41.4558 84.2879 41.2675C85.3583 40.8309 86.1765 40.7665 86.7426 41.0742C87.3297 41.3733 87.745 41.7914 87.9886 42.3285ZM102.661 19.6009C102.772 19.8738 102.803 20.2776 102.751 20.8126L97.7033 31.5736C98.6389 32.3671 100.301 33.5618 102.69 35.1579C105.091 36.7244 106.845 37.7228 107.951 38.1531C108.069 38.2028 108.344 38.4577 108.777 38.9178C109.23 39.3694 109.493 39.6538 109.565 39.7712C109.63 39.9896 109.6 40.2466 109.476 40.5421C109.351 40.8376 109.037 41.088 108.534 41.2934C107.673 41.6444 107.138 41.8016 106.927 41.7652C106.088 41.5688 104.838 41.0258 103.178 40.1362C101.53 39.217 99.8756 38.1906 98.2137 37.0569C96.5433 35.9022 95.2738 34.89 94.405 34.0203C94.9856 37.7247 95.4071 40.319 95.6697 41.803L95.7819 42.5284C95.8956 43.1674 95.8379 43.656 95.6086 43.9943C95.3794 44.3326 94.8345 44.6772 93.974 45.0282C93.3444 45.2849 92.8293 45.3726 92.4289 45.2911C92.0495 45.2011 91.7423 44.898 91.5073 44.3818C91.3875 44.088 91.3291 43.8548 91.3321 43.6822C89.5052 31.1595 88.5319 24.7512 88.4121 24.4574C88.3372 23.9738 88.4207 23.5481 88.6623 23.1803C88.904 22.8125 89.3816 22.4831 90.0952 22.192C90.7039 21.9438 91.1793 21.909 91.5214 22.0877C91.855 22.2454 92.1245 22.5762 92.33 23.0799C92.4584 23.3947 92.5506 23.6508 92.6066 23.8483C92.7654 24.2976 93.1787 26.6015 93.8464 30.7599C94.3513 29.4769 95.2226 27.5916 96.4602 25.1041C97.6978 22.6165 98.6223 20.8319 99.2338 19.7503C99.3511 19.6779 99.563 19.567 99.8692 19.4177C100.175 19.2683 100.476 19.1337 100.769 19.0138C101.252 18.817 101.635 18.7954 101.918 18.9493C102.302 19.1109 102.55 19.3281 102.661 19.6009Z" fill="black"/>
</svg>
