<svg width="392" height="424" viewBox="0 0 392 424" fill="none" xmlns="http://www.w3.org/2000/svg">
<path d="M2 408.023C42.9933 408.023 59.4676 407.557 103.064 407.557M103.064 407.557C146.66 407.557 226.118 407.629 279.522 408.023C332.926 408.417 384.908 408.722 384.908 408.722C392.451 408.722 383.55 409.584 379.536 409.521C374.519 409.443 231.78 408.689 219.319 408.689C206.858 408.689 143.425 408.023 103.064 407.557Z" stroke="black" stroke-width="4" stroke-miterlimit="10" stroke-linecap="round" stroke-linejoin="round"/>
<path d="M379.029 81.8641C379.029 17.9092 379.029 26.8416 379.029 5.82884C379.225 6.1901 379.976 9.44855 380.128 10.7931C380.318 12.4738 380.214 56.5656 380.214 65.9755C380.214 98.1885 379.505 243.708 379.505 253.231M379.029 81.8641C379.029 81.8641 380.214 236.115 380.214 260.717C380.214 285.318 380.246 279.5 380.214 331.436C380.19 370.265 380.214 416.696 380.214 419.821C380.214 422.945 378.792 421.792 378.792 421.792C379.505 399.952 379.505 361.943 379.505 312.023C379.505 294.821 379.505 274.701 379.505 253.231M379.029 81.8641C379.029 128.617 379.505 194.879 379.505 253.231" stroke="black" stroke-width="3" stroke-miterlimit="10" stroke-linecap="round" stroke-linejoin="round"/>
<path d="M196.483 17.2943C244.188 17.2941 274.204 16.7103 305.396 16.7102C336.588 16.7101 389.431 17.0084 389.431 17.0084C389.431 17.0084 391.657 17.6954 387.306 17.6953C382.954 17.6953 352.019 17.2462 307.562 17.2943C263.104 17.3424 216.518 17.3403 196.483 17.2943ZM196.483 17.2943C173.994 17.2944 128.057 17.6062 102.495 17.5878C73.8308 17.5671 32.5522 17.5878 4.87402 17.5878" stroke="black" stroke-width="4" stroke-miterlimit="10" stroke-linecap="round" stroke-linejoin="round"/>
<path d="M11.9601 413.571C11.9601 391.177 11.9601 371.638 11.9601 360.117M11.9601 360.117C11.9601 348.597 12.1695 297.447 12.1695 275.789M11.9601 360.117C11.9601 360.117 11.308 335.135 11.308 320.488C11.308 305.84 12.1695 275.789 12.1695 275.789M12.1695 2.00002C12.1695 24.921 11.9601 14.3231 11.9601 37.0895C11.9601 50.0667 12.3092 65.9419 12.1695 88.7002M11.308 214.826C11.3282 199.076 11.9974 116.753 12.1695 88.7002M11.308 214.826C11.2871 231.115 12.1695 254.131 12.1695 275.789M11.308 214.826C11.308 214.826 11.308 175.333 11.308 153.214M12.1695 88.7002C12.1695 88.7002 11.308 131.095 11.308 153.214M12.1695 275.789C12.1695 262.514 12.1695 231.737 12.1695 214.826C12.1695 197.915 11.5952 166.705 11.308 153.214" stroke="black" stroke-width="4" stroke-miterlimit="10" stroke-linecap="round" stroke-linejoin="round"/>
</svg>
