<svg width="500" height="509" viewBox="0 0 500 509" fill="none" xmlns="http://www.w3.org/2000/svg">
<path d="M2 490.194C54.4038 490.194 75.4636 489.634 131.195 489.634M131.195 489.634C186.926 489.634 288.502 489.721 356.771 490.194C425.04 490.668 491.49 491.035 491.49 491.035C501.133 491.035 489.754 492.071 484.623 491.996C478.21 491.901 295.739 490.995 279.809 490.995C263.88 490.995 182.791 490.194 131.195 489.634Z" stroke="black" stroke-width="4" stroke-miterlimit="10" stroke-linecap="round" stroke-linejoin="round"/>
<path d="M483.975 98.0271C483.975 21.1289 483.975 31.8691 483.975 6.60371C484.226 7.03807 485.185 10.956 485.38 12.5726C485.623 14.5934 485.49 67.6086 485.49 78.9229C485.49 117.655 484.584 292.625 484.584 304.076M483.975 98.0271C483.975 98.0271 485.49 283.496 485.49 313.076C485.49 342.657 485.531 335.66 485.49 398.108C485.459 444.795 485.49 500.623 485.49 504.379C485.49 508.136 483.672 506.75 483.672 506.75C484.584 480.49 484.584 434.788 484.584 374.766C484.584 354.083 484.584 329.89 484.584 304.076M483.975 98.0271C483.975 154.242 484.584 233.914 484.584 304.076" stroke="black" stroke-width="3" stroke-miterlimit="10" stroke-linecap="round" stroke-linejoin="round"/>
<path d="M250.617 20.3894C311.601 20.3892 349.971 19.6872 389.845 19.6871C429.72 19.687 497.272 20.0457 497.272 20.0457C497.272 20.0457 500.118 20.8716 494.555 20.8716C488.993 20.8715 449.447 20.3316 392.615 20.3894C335.782 20.4472 276.229 20.4447 250.617 20.3894ZM250.617 20.3894C221.869 20.3896 163.145 20.7644 130.467 20.7423C93.8247 20.7174 41.0562 20.7423 5.67383 20.7423" stroke="black" stroke-width="4" stroke-miterlimit="10" stroke-linecap="round" stroke-linejoin="round"/>
<path d="M14.7325 496.865C14.7325 469.939 14.7325 446.445 14.7325 432.594M14.7325 432.594C14.7325 418.742 15.0002 357.24 15.0003 331.199M14.7325 432.594C14.7325 432.594 13.8989 402.555 13.8989 384.943C13.8989 367.332 15.0003 331.199 15.0003 331.199M15.0003 2.00001C15.0003 29.5598 14.7325 16.817 14.7325 44.1909C14.7325 59.7944 15.1788 78.8825 15.0003 106.247M13.8989 257.898C13.9247 238.96 14.7802 139.976 15.0003 106.247M13.8989 257.898C13.8722 277.483 15.0003 305.158 15.0003 331.199M13.8989 257.898C13.8989 257.898 13.8989 210.412 13.8989 183.816M15.0003 106.247C15.0003 106.247 13.8989 157.221 13.8989 183.816M15.0003 331.199C15.0003 315.237 15.0003 278.231 15.0003 257.898C15.0003 237.565 14.266 200.038 13.8989 183.816" stroke="black" stroke-width="4" stroke-miterlimit="10" stroke-linecap="round" stroke-linejoin="round"/>
</svg>
