<svg width="888" height="698" viewBox="0 0 888 698" fill="none" xmlns="http://www.w3.org/2000/svg">
<path d="M4 671.038C96.9745 671.038 134.339 670.272 233.216 670.272M233.216 670.272C332.094 670.272 512.309 670.391 633.432 671.038C754.554 671.685 872.45 672.187 872.45 672.187C889.558 672.187 869.37 673.602 860.267 673.499C848.888 673.37 525.149 672.132 496.887 672.132C468.625 672.132 324.758 671.038 233.216 670.272Z" stroke="black" stroke-width="6.28125" stroke-miterlimit="10" stroke-linecap="round" stroke-linejoin="round"/>
<path d="M859.116 135.205C859.116 30.1366 859.116 44.8113 859.116 10.2903C859.561 10.8838 861.264 16.2369 861.609 18.4458C862.04 21.2069 861.805 93.6435 861.805 109.103C861.805 162.024 860.196 401.091 860.196 416.737M859.116 135.205C859.116 135.205 861.805 388.618 861.805 429.035C861.805 469.452 861.877 459.892 861.805 545.217C861.75 609.008 861.805 685.286 861.805 690.419C861.805 695.553 858.58 693.659 858.58 693.659C860.196 657.779 860.196 595.335 860.196 513.324C860.196 485.064 860.196 452.008 860.196 416.737M859.116 135.205C859.116 212.014 860.196 320.873 860.196 416.737" stroke="black" stroke-width="6.28125" stroke-miterlimit="10" stroke-linecap="round" stroke-linejoin="round"/>
<path d="M445.095 28.6148C553.293 28.6143 621.368 26.9107 692.113 26.9105C762.858 26.9103 882.708 27.7807 882.708 27.7807C882.708 27.7807 887.758 29.7851 877.889 29.7849C868.019 29.7848 797.858 28.4746 697.026 28.6148C596.195 28.7551 490.536 28.7489 445.095 28.6148ZM445.095 28.6148C394.09 28.6151 289.903 29.5249 231.926 29.4711C166.915 29.4108 73.2936 29.4711 10.5186 29.4711" stroke="black" stroke-width="6.28125" stroke-miterlimit="10" stroke-linecap="round" stroke-linejoin="round"/>
<path d="M26.5906 680.153C26.5906 643.362 26.5906 611.262 26.5906 592.336M26.5906 592.336C26.5906 573.409 27.0657 489.377 27.0657 453.796M26.5906 592.336C26.5906 592.336 25.1117 551.293 25.1117 527.23C25.1117 503.166 27.0657 453.796 27.0657 453.796M27.0657 4.00002C27.0657 41.6559 26.5906 24.2451 26.5906 61.647C26.5906 82.9666 27.3824 109.047 27.0657 146.436M25.1117 353.642C25.1574 327.767 26.6753 192.522 27.0657 146.436M25.1117 353.642C25.0643 380.403 27.0657 418.215 27.0657 453.796M25.1117 353.642C25.1117 353.642 25.1117 288.761 25.1117 252.422M27.0657 146.436C27.0657 146.436 25.1117 216.084 25.1117 252.422M27.0657 453.796C27.0657 431.987 27.0657 381.424 27.0657 353.642C27.0657 325.861 25.763 274.587 25.1117 252.422" stroke="black" stroke-width="6.28125" stroke-miterlimit="10" stroke-linecap="round" stroke-linejoin="round"/>
</svg>
