<svg width="118" height="72" viewBox="0 0 118 72" fill="none" xmlns="http://www.w3.org/2000/svg">
<path fill-rule="evenodd" clip-rule="evenodd" d="M15.374 58.2419C15.12 57.9956 14.8641 57.7493 14.6063 57.5048C11.9784 55.0168 9.37098 52.526 6.92455 49.8578C6.33179 49.2116 5.21885 47.958 4.10125 47.3128C3.3019 46.8514 2.47461 46.6584 1.71806 46.754C1.23604 46.8146 0.531635 47.0545 0.178024 47.9672C0.118468 48.1207 0.0477618 48.3844 0.0198451 48.7208C-0.0248216 49.2649 0.0188932 50.2411 0.0328515 50.3762C0.228268 52.3449 0.423678 54.2273 0.781942 56.1749C1.11136 57.9671 1.33654 59.7732 1.69109 61.5627C2.2215 64.2401 2.90455 66.8172 3.90025 69.3668C4.26968 70.3135 5.34819 70.785 6.30666 70.4201C7.2642 70.0553 7.74251 68.991 7.37307 68.0443C6.45648 65.6959 5.83208 63.3228 5.34447 60.8568C4.99272 59.0838 4.7703 57.2934 4.44368 55.5177C4.23151 54.3624 4.08075 53.2309 3.95233 52.0894L4.16543 52.3256C6.67142 55.0581 9.33934 57.6105 12.0305 60.1583C13.0374 61.1123 14.0098 62.0939 15.0325 63.0324C15.1153 63.1518 15.4977 63.6996 15.6857 63.8871C15.9984 64.1996 16.3362 64.3742 16.6302 64.4606C17.3775 64.6812 18.1359 64.5994 18.7984 63.7722C19.2944 63.1528 19.5801 62.1922 19.5587 61.0452C19.5298 59.4689 18.9241 57.3909 18.7957 56.4331C17.9824 50.3734 16.6666 44.3376 16.3167 38.2256C16.259 37.2127 15.3796 36.4369 14.3541 36.4939C13.3286 36.5518 12.5423 37.4204 12.6009 38.4332C12.9555 44.6372 14.2797 50.765 15.1051 56.9166C15.1497 57.2438 15.2558 57.7097 15.374 58.2419Z" fill="black"/>
<path fill-rule="evenodd" clip-rule="evenodd" d="M31.636 33.1231C29.5255 33.6755 27.4113 34.1571 25.7158 35.5891C23.9422 37.0882 23.0405 39.2656 22.7195 41.692C22.31 44.7876 22.859 48.2995 23.1996 50.8022C23.3764 52.0982 23.4518 53.9043 23.8343 55.5044C24.1637 56.8804 24.7248 58.1129 25.58 58.9759C26.9237 60.3316 28.9858 60.4685 31.1009 59.6229C33.5446 58.6459 35.978 56.3914 36.6396 55.077C37.0975 54.1689 36.7224 53.0642 35.8021 52.6129C34.8827 52.1607 33.7652 52.5311 33.3073 53.4392C32.8876 54.2728 31.2545 55.5954 29.7042 56.2158C29.358 56.3537 29.0156 56.4566 28.6917 56.4823C28.5233 56.4961 28.3549 56.52 28.2404 56.4052C27.6793 55.8381 27.482 54.9162 27.3192 53.9851C27.0912 52.6874 27.0279 51.3317 26.8892 50.3114C26.584 48.0734 26.0443 44.9365 26.4101 42.1681C26.6064 40.6838 27.0503 39.3005 28.1362 38.3832C29.3962 37.3189 31.0191 37.0882 32.5889 36.6774C33.5818 36.4182 34.1746 35.4108 33.9112 34.4301C33.6488 33.4494 32.6289 32.864 31.636 33.1231Z" fill="black"/>
<path fill-rule="evenodd" clip-rule="evenodd" d="M31.3035 42.9488C29.6685 43.8284 27.921 44.7327 26.1687 45.3541C25.2019 45.6969 24.6984 46.7502 25.0446 47.7052C25.3917 48.6601 26.4581 49.1574 27.4249 48.8145C29.3549 48.1307 31.284 47.1464 33.0836 46.1785C33.9854 45.6932 34.3194 44.5756 33.8281 43.685C33.3368 42.7934 32.2062 42.4644 31.3035 42.9488Z" fill="black"/>
<path fill-rule="evenodd" clip-rule="evenodd" d="M79.8192 11.6989C80.4939 14.9204 81.1695 18.1124 81.6105 21.4249C81.7445 22.4313 82.6797 23.1409 83.6987 23.0086C84.7167 22.8762 85.4351 21.9525 85.3011 20.9461C84.6795 16.2742 83.6038 11.8386 82.703 7.23018C82.3559 5.44894 80.6418 5.69805 80.5367 5.71643C80.305 5.75687 79.0422 6.02249 79.0003 7.48296C78.9975 7.57211 79.058 8.20258 79.0683 8.44706C79.0906 9.0068 79.0794 9.55369 79.0505 10.1144C79.017 10.7605 79.3251 11.346 79.8192 11.6989Z" fill="black"/>
<path fill-rule="evenodd" clip-rule="evenodd" d="M86.738 29.8349C86.9269 29.2669 86.831 28.618 86.4253 28.1153C85.7841 27.3221 84.6125 27.1925 83.8095 27.8257C83.0678 28.4103 82.9292 29.1226 83.0287 29.9939C83.1441 31.0022 84.0673 31.7283 85.0881 31.6134C86.0214 31.5095 86.7156 30.7375 86.738 29.8349Z" fill="black"/>
<path fill-rule="evenodd" clip-rule="evenodd" d="M111.925 33.9208C111.526 34.1133 111.21 34.2679 111.143 34.3046C107.931 36.0527 104.764 37.9454 101.745 40.0008C100.899 40.5767 100.685 41.7219 101.268 42.5575C101.852 43.3931 103.011 43.6038 103.857 43.0279C106.774 41.0418 109.836 39.2138 112.939 37.5242C113.176 37.3953 115.282 36.5297 116.157 35.9194C116.949 35.3663 117.226 34.6808 117.28 34.2894C117.365 33.6679 117.127 32.7002 116.053 31.9259C114.651 30.9149 110.922 29.6279 110.303 29.4159C109.164 29.0276 107.971 28.7015 106.81 28.3998C104.608 27.828 102.371 27.5114 100.117 27.2316C99.0973 27.1047 98.1666 27.8195 98.038 28.8267C97.9104 29.8329 98.6342 30.7532 99.653 30.8792C101.744 31.1389 103.821 31.4245 105.863 31.9551C106.934 32.234 108.037 32.5327 109.087 32.8909C109.402 32.9991 110.703 33.4185 111.925 33.9208Z" fill="black"/>
<path d="M51.0831 24.8569C52.2165 24.3946 53.0228 24.7512 53.5022 25.9265C53.6135 26.1994 53.68 26.3926 53.7018 26.5061L53.7801 26.8781C53.8276 27.0545 53.8097 27.2209 53.7266 27.3772C53.6645 27.5249 53.504 27.7617 53.2452 28.0876C53.187 28.1848 53.0618 28.3582 52.8699 28.6078C52.678 28.8575 52.5156 29.1195 52.3827 29.394C52.0013 30.2595 50.8899 33.3565 49.0484 38.6851L51.7081 40.795C52.1226 41.091 52.7319 41.5647 53.536 42.2159L55.3896 43.6998C56.2529 44.3759 56.7829 44.9553 56.9798 45.438L57.044 45.5954C57.1771 45.9818 57.1271 46.3693 56.894 46.7582C56.6523 47.126 56.3111 47.3998 55.8703 47.5795C55.3876 47.7764 54.4534 47.4965 53.0677 46.7397C51.6524 45.9705 49.7962 44.7203 47.4989 42.9889C45.4539 48.7187 44.1626 51.9748 43.6249 52.7571C43.2495 53.2774 42.8415 53.6274 42.4007 53.8072C42.2748 53.8585 42.1718 53.876 42.0917 53.8597C42.0116 53.8434 41.8934 53.7937 41.7371 53.7106C41.5808 53.6275 41.3931 53.5572 41.1738 53.4997C40.5961 53.3437 40.2302 53.0767 40.0761 52.6989L40.0248 52.573C39.9936 52.3165 39.9923 52.1334 40.0211 52.0237L40.4511 51.1874C40.9786 50.14 42.2932 46.5807 44.3948 40.5095C42.7057 39.0687 41.2548 37.7021 40.0423 36.4096C38.8212 35.0961 38.0223 33.9777 37.6457 33.0542C37.5601 32.8443 37.5064 32.6826 37.4846 32.5691C37.3725 32.1742 37.3347 31.8714 37.3712 31.6607C37.4286 31.4414 37.5494 31.2575 37.7337 31.1089C38.3197 30.6251 38.9065 30.2634 39.4942 30.0237C39.893 29.8611 40.3284 29.8182 40.8003 29.895C41.2847 29.9422 41.6144 30.1505 41.7895 30.5197C41.8198 30.6542 41.8864 30.8474 41.9891 31.0992C42.5455 32.4635 43.8635 34.1046 45.9431 36.0226C47.4498 31.6139 48.4975 28.7509 49.0864 27.4337C49.7249 25.9983 50.3905 25.1393 51.0831 24.8569ZM70.0579 39.4067C70.1895 40.2098 70.1583 40.8835 69.9641 41.4278C69.7909 41.9635 69.3161 42.3897 68.5395 42.7064C67.8889 42.9718 67.3633 43.0637 66.9629 42.9822C66.5749 42.8712 66.2739 42.5533 66.0599 42.0286C65.9658 41.7977 65.9074 41.5645 65.8848 41.329L63.5126 24.7081C63.4916 24.7167 62.8394 25.0683 61.5561 25.763C59.9913 26.5481 59.0267 27.0639 58.6622 27.3105C58.1825 27.3347 57.7673 27.247 57.4166 27.0473C57.0783 26.8181 56.8236 26.4936 56.6524 26.0738C56.5154 25.738 56.5025 25.3761 56.6135 24.9881C56.737 24.5706 56.9366 24.2199 57.2125 23.936C58.7547 22.9154 62.2343 21.1536 67.6515 18.6506C69.158 17.9628 70.1818 17.4718 70.7228 17.1777C71.1185 17.1877 71.496 17.303 71.8553 17.5237C72.2269 17.7148 72.4813 17.9783 72.6182 18.3141C72.7723 18.6919 72.7332 19.1362 72.5009 19.6471C72.2686 20.158 71.9411 20.5853 71.5183 20.9291L67.4583 22.7685L70.0579 39.4067Z" fill="black"/>
</svg>
