<svg width="1598" height="788" viewBox="0 0 1598 788" fill="none" xmlns="http://www.w3.org/2000/svg">
<path d="M56.9011 4C56.9011 86.4092 58.6649 119.528 58.6649 207.169M58.6649 207.169C58.6649 294.811 58.3922 454.547 56.9011 561.906C55.4099 669.264 54.2529 773.763 54.2529 773.763C54.2529 788.927 50.9913 771.032 51.2292 762.964C51.5266 752.878 54.3802 465.928 54.3802 440.877C54.3802 415.827 56.9011 288.309 58.6649 207.169Z" stroke="black" stroke-width="6.28125" stroke-miterlimit="10" stroke-linecap="round" stroke-linejoin="round"/>
<path d="M1291.65 761.944C1533.76 761.944 1499.94 761.944 1579.49 761.944C1578.12 762.339 1565.79 763.848 1560.7 764.153C1554.34 764.536 1387.42 764.327 1351.8 764.327C1229.85 764.327 678.959 762.901 642.904 762.901M1291.65 761.944C1291.65 761.944 707.701 764.327 614.567 764.327C521.433 764.327 543.461 764.391 346.845 764.327C199.851 764.279 24.0789 764.327 12.2507 764.327C0.422446 764.327 4.78691 761.469 4.78691 761.469C87.4657 762.901 231.357 762.901 420.338 762.901C485.458 762.901 561.628 762.901 642.904 762.901M1291.65 761.944C1114.65 761.944 863.807 762.901 642.904 762.901" stroke="black" stroke-width="6.28125" stroke-miterlimit="10" stroke-linecap="round" stroke-linejoin="round"/>
<path d="M1537.27 394.97C1537.27 490.873 1541.19 551.213 1541.19 613.919C1541.2 676.624 1539.19 782.855 1539.19 782.855C1539.19 782.855 1534.57 787.331 1534.57 778.583C1534.57 769.836 1537.59 707.647 1537.27 618.274C1536.94 528.9 1536.96 435.248 1537.27 394.97ZM1537.27 394.97C1537.27 349.762 1535.17 257.414 1535.29 206.026C1535.43 148.402 1535.29 65.4194 1535.29 9.77783" stroke="black" stroke-width="6.28125" stroke-miterlimit="10" stroke-linecap="round" stroke-linejoin="round"/>
<path d="M35.916 24.023C120.695 24.023 194.664 24.023 238.276 24.023M238.276 24.023C281.889 24.023 475.527 24.4441 557.518 24.4441M238.276 24.023C238.276 24.023 332.852 22.7122 388.302 22.7122C443.752 22.7122 557.518 24.4441 557.518 24.4441M1594 24.4441C1507.23 24.4441 1547.35 24.023 1461.16 24.023C1412.03 24.023 1351.94 24.7248 1265.78 24.4441M788.306 22.7122C847.931 22.7527 1159.58 24.0981 1265.78 24.4441M788.306 22.7122C726.64 22.6702 639.508 24.4441 557.518 24.4441M788.306 22.7122C788.306 22.7122 937.816 22.7122 1021.55 22.7122M1265.78 24.4441C1265.78 24.4441 1105.29 22.7122 1021.55 22.7122M557.518 24.4441C607.773 24.4441 724.287 24.4441 788.306 24.4441C852.324 24.4441 970.477 23.2895 1021.55 22.7122" stroke="black" stroke-width="6.28125" stroke-miterlimit="10" stroke-linecap="round" stroke-linejoin="round"/>
</svg>
