<svg width="98" height="102" viewBox="0 0 98 102" fill="none" xmlns="http://www.w3.org/2000/svg">
<rect width="98" height="102" fill="#C5A1FF"/>
<path d="M32.688 73V67.624C32.688 64.5093 33.2 61.928 34.224 59.88C35.248 57.7893 36.72 56.0827 38.64 54.76C40.6027 53.3947 42.992 52.2853 45.808 51.432L50.096 50.088C51.6747 49.576 52.9973 48.9573 54.064 48.232C55.1307 47.464 55.9413 46.5467 56.496 45.48C57.0933 44.4133 57.392 43.1973 57.392 41.832V41.576C57.392 39.4427 56.6667 37.7573 55.216 36.52C53.7653 35.24 51.7813 34.6 49.264 34.6C46.7893 34.6 44.784 35.2827 43.248 36.648C41.7547 37.9707 41.008 39.8907 41.008 42.408V43.56H32.816V42.536C32.816 39.2933 33.5413 36.5413 34.992 34.28C36.4427 32.0187 38.4053 30.2907 40.88 29.096C43.3973 27.9013 46.192 27.304 49.264 27.304C52.336 27.304 55.1093 27.9013 57.584 29.096C60.0587 30.248 62 31.8907 63.408 34.024C64.8587 36.1147 65.584 38.5893 65.584 41.448V42.088C65.584 44.9467 64.9867 47.3787 63.792 49.384C62.64 51.3467 61.0613 52.968 59.056 54.248C57.0507 55.4853 54.768 56.5093 52.208 57.32L48.112 58.6C46.2773 59.1547 44.848 59.7733 43.824 60.456C42.8 61.096 42.0747 61.8213 41.648 62.632C41.264 63.4 41.072 64.3387 41.072 65.448V65.704H65.2V73H32.688Z" fill="black"/>
</svg>
