<svg width="481" height="481" viewBox="0 0 481 481" fill="none" xmlns="http://www.w3.org/2000/svg">
<rect width="481" height="481" fill="white"/>
<rect width="456.95" height="456.95" transform="translate(14.4299 14.4299)" fill="white"/>
<rect width="456.95" height="456.95" transform="translate(14.4299 14.4299)" fill="white"/>
<path d="M37.2773 143.899H22.0457V159.131H37.2773V143.899Z" fill="black"/>
<path d="M37.2773 174.362H22.0457V189.594H37.2773V174.362Z" fill="black"/>
<path d="M37.2773 189.594H22.0457V204.826H37.2773V189.594Z" fill="black"/>
<path d="M37.2773 220.057H22.0457V235.289H37.2773V220.057Z" fill="black"/>
<path d="M37.2773 250.521H22.0457V265.752H37.2773V250.521Z" fill="black"/>
<path d="M37.2773 280.984H22.0457V296.216H37.2773V280.984Z" fill="black"/>
<path d="M37.2773 296.216H22.0457V311.447H37.2773V296.216Z" fill="black"/>
<path d="M37.2773 326.679H22.0457V341.911H37.2773V326.679Z" fill="black"/>
<path d="M52.509 159.131H37.2773V174.362H52.509V159.131Z" fill="black"/>
<path d="M52.509 189.594H37.2773V204.826H52.509V189.594Z" fill="black"/>
<path d="M52.509 204.826H37.2773V220.057H52.509V204.826Z" fill="black"/>
<path d="M52.509 250.521H37.2773V265.752H52.509V250.521Z" fill="black"/>
<path d="M52.509 265.752H37.2773V280.984H52.509V265.752Z" fill="black"/>
<path d="M52.509 311.447H37.2773V326.679H52.509V311.447Z" fill="black"/>
<path d="M67.7407 159.131H52.509V174.362H67.7407V159.131Z" fill="black"/>
<path d="M67.7407 189.594H52.509V204.826H67.7407V189.594Z" fill="black"/>
<path d="M67.7407 265.752H52.509V280.984H67.7407V265.752Z" fill="black"/>
<path d="M67.7407 311.447H52.509V326.679H67.7407V311.447Z" fill="black"/>
<path d="M67.7407 326.679H52.509V341.911H67.7407V326.679Z" fill="black"/>
<path d="M82.9724 174.362H67.7407V189.594H82.9724V174.362Z" fill="black"/>
<path d="M82.9724 189.594H67.7407V204.826H82.9724V189.594Z" fill="black"/>
<path d="M82.9724 204.826H67.7407V220.057H82.9724V204.826Z" fill="black"/>
<path d="M82.9724 265.752H67.7407V280.984H82.9724V265.752Z" fill="black"/>
<path d="M82.9724 280.984H67.7407V296.216H82.9724V280.984Z" fill="black"/>
<path d="M82.9724 311.447H67.7407V326.679H82.9724V311.447Z" fill="black"/>
<path d="M98.2041 143.899H82.9724V159.131H98.2041V143.899Z" fill="black"/>
<path d="M98.2041 159.131H82.9724V174.362H98.2041V159.131Z" fill="black"/>
<path d="M98.2041 174.362H82.9724V189.594H98.2041V174.362Z" fill="black"/>
<path d="M98.2041 235.289H82.9724V250.521H98.2041V235.289Z" fill="black"/>
<path d="M98.2041 250.521H82.9724V265.752H98.2041V250.521Z" fill="black"/>
<path d="M98.2041 265.752H82.9724V280.984H98.2041V265.752Z" fill="black"/>
<path d="M98.2041 311.447H82.9724V326.679H98.2041V311.447Z" fill="black"/>
<path d="M113.436 143.899H98.2041V159.131H113.436V143.899Z" fill="black"/>
<path d="M113.436 159.131H98.2041V174.362H113.436V159.131Z" fill="black"/>
<path d="M113.436 174.362H98.2041V189.594H113.436V174.362Z" fill="black"/>
<path d="M113.436 204.826H98.2041V220.057H113.436V204.826Z" fill="black"/>
<path d="M113.436 250.521H98.2041V265.752H113.436V250.521Z" fill="black"/>
<path d="M113.436 265.752H98.2041V280.984H113.436V265.752Z" fill="black"/>
<path d="M113.436 296.216H98.2041V311.447H113.436V296.216Z" fill="black"/>
<path d="M113.436 326.679H98.2041V341.911H113.436V326.679Z" fill="black"/>
<path d="M128.667 143.899H113.436V159.131H128.667V143.899Z" fill="black"/>
<path d="M128.667 174.362H113.436V189.594H128.667V174.362Z" fill="black"/>
<path d="M128.667 204.826H113.436V220.057H128.667V204.826Z" fill="black"/>
<path d="M128.667 235.289H113.436V250.521H128.667V235.289Z" fill="black"/>
<path d="M128.667 265.752H113.436V280.984H128.667V265.752Z" fill="black"/>
<path d="M128.667 296.216H113.436V311.447H128.667V296.216Z" fill="black"/>
<path d="M128.667 326.679H113.436V341.911H128.667V326.679Z" fill="black"/>
<path d="M143.899 159.131H128.667V174.362H143.899V159.131Z" fill="black"/>
<path d="M143.899 174.362H128.667V189.594H143.899V174.362Z" fill="black"/>
<path d="M143.899 189.594H128.667V204.826H143.899V189.594Z" fill="black"/>
<path d="M143.899 235.289H128.667V250.521H143.899V235.289Z" fill="black"/>
<path d="M143.899 265.752H128.667V280.984H143.899V265.752Z" fill="black"/>
<path d="M143.899 326.679H128.667V341.911H143.899V326.679Z" fill="black"/>
<path d="M159.131 37.2773H143.899V52.509H159.131V37.2773Z" fill="black"/>
<path d="M159.131 52.509H143.899V67.7407H159.131V52.509Z" fill="black"/>
<path d="M159.131 67.7407H143.899V82.9724H159.131V67.7407Z" fill="black"/>
<path d="M159.131 82.9724H143.899V98.2041H159.131V82.9724Z" fill="black"/>
<path d="M159.131 98.2041H143.899V113.436H159.131V98.2041Z" fill="black"/>
<path d="M159.131 113.436H143.899V128.667H159.131V113.436Z" fill="black"/>
<path d="M159.131 128.667H143.899V143.899H159.131V128.667Z" fill="black"/>
<path d="M159.131 159.131H143.899V174.362H159.131V159.131Z" fill="black"/>
<path d="M159.131 174.362H143.899V189.594H159.131V174.362Z" fill="black"/>
<path d="M159.131 204.826H143.899V220.057H159.131V204.826Z" fill="black"/>
<path d="M159.131 250.521H143.899V265.752H159.131V250.521Z" fill="black"/>
<path d="M159.131 296.216H143.899V311.447H159.131V296.216Z" fill="black"/>
<path d="M159.131 372.374H143.899V387.606H159.131V372.374Z" fill="black"/>
<path d="M159.131 387.606H143.899V402.837H159.131V387.606Z" fill="black"/>
<path d="M159.131 448.532H143.899V463.764H159.131V448.532Z" fill="black"/>
<path d="M174.362 37.2773H159.131V52.509H174.362V37.2773Z" fill="black"/>
<path d="M174.362 52.509H159.131V67.7407H174.362V52.509Z" fill="black"/>
<path d="M174.362 82.9724H159.131V98.2041H174.362V82.9724Z" fill="black"/>
<path d="M174.362 174.362H159.131V189.594H174.362V174.362Z" fill="black"/>
<path d="M174.362 204.826H159.131V220.057H174.362V204.826Z" fill="black"/>
<path d="M174.362 235.289H159.131V250.521H174.362V235.289Z" fill="black"/>
<path d="M174.362 250.521H159.131V265.752H174.362V250.521Z" fill="black"/>
<path d="M174.362 341.911H159.131V357.142H174.362V341.911Z" fill="black"/>
<path d="M174.362 372.374H159.131V387.606H174.362V372.374Z" fill="black"/>
<path d="M174.362 387.606H159.131V402.837H174.362V387.606Z" fill="black"/>
<path d="M174.362 402.837H159.131V418.069H174.362V402.837Z" fill="black"/>
<path d="M174.362 418.069H159.131V433.301H174.362V418.069Z" fill="black"/>
<path d="M174.362 448.532H159.131V463.764H174.362V448.532Z" fill="black"/>
<path d="M189.594 37.2773H174.362V52.509H189.594V37.2773Z" fill="black"/>
<path d="M189.594 67.7407H174.362V82.9724H189.594V67.7407Z" fill="black"/>
<path d="M189.594 98.2041H174.362V113.436H189.594V98.2041Z" fill="black"/>
<path d="M189.594 113.436H174.362V128.667H189.594V113.436Z" fill="black"/>
<path d="M189.594 128.667H174.362V143.899H189.594V128.667Z" fill="black"/>
<path d="M189.594 143.899H174.362V159.131H189.594V143.899Z" fill="black"/>
<path d="M189.594 159.131H174.362V174.362H189.594V159.131Z" fill="black"/>
<path d="M189.594 174.362H174.362V189.594H189.594V174.362Z" fill="black"/>
<path d="M189.594 204.826H174.362V220.057H189.594V204.826Z" fill="black"/>
<path d="M189.594 220.057H174.362V235.289H189.594V220.057Z" fill="black"/>
<path d="M189.594 235.289H174.362V250.521H189.594V235.289Z" fill="black"/>
<path d="M189.594 250.521H174.362V265.752H189.594V250.521Z" fill="black"/>
<path d="M189.594 296.216H174.362V311.447H189.594V296.216Z" fill="black"/>
<path d="M189.594 341.911H174.362V357.142H189.594V341.911Z" fill="black"/>
<path d="M189.594 357.142H174.362V372.374H189.594V357.142Z" fill="black"/>
<path d="M189.594 372.374H174.362V387.606H189.594V372.374Z" fill="black"/>
<path d="M189.594 387.606H174.362V402.837H189.594V387.606Z" fill="black"/>
<path d="M189.594 402.837H174.362V418.069H189.594V402.837Z" fill="black"/>
<path d="M189.594 418.069H174.362V433.301H189.594V418.069Z" fill="black"/>
<path d="M204.826 22.0457H189.594V37.2773H204.826V22.0457Z" fill="black"/>
<path d="M204.826 37.2773H189.594V52.509H204.826V37.2773Z" fill="black"/>
<path d="M204.826 52.509H189.594V67.7407H204.826V52.509Z" fill="black"/>
<path d="M204.826 143.899H189.594V159.131H204.826V143.899Z" fill="black"/>
<path d="M204.826 159.131H189.594V174.362H204.826V159.131Z" fill="black"/>
<path d="M204.826 174.362H189.594V189.594H204.826V174.362Z" fill="black"/>
<path d="M204.826 189.594H189.594V204.826H204.826V189.594Z" fill="black"/>
<path d="M204.826 204.826H189.594V220.057H204.826V204.826Z" fill="black"/>
<path d="M204.826 220.057H189.594V235.289H204.826V220.057Z" fill="black"/>
<path d="M204.826 265.752H189.594V280.984H204.826V265.752Z" fill="black"/>
<path d="M204.826 311.447H189.594V326.679H204.826V311.447Z" fill="black"/>
<path d="M204.826 326.679H189.594V341.911H204.826V326.679Z" fill="black"/>
<path d="M204.826 341.911H189.594V357.142H204.826V341.911Z" fill="black"/>
<path d="M204.826 357.142H189.594V372.374H204.826V357.142Z" fill="black"/>
<path d="M204.826 372.374H189.594V387.606H204.826V372.374Z" fill="black"/>
<path d="M204.826 387.606H189.594V402.837H204.826V387.606Z" fill="black"/>
<path d="M204.826 402.837H189.594V418.069H204.826V402.837Z" fill="black"/>
<path d="M204.826 433.301H189.594V448.532H204.826V433.301Z" fill="black"/>
<path d="M220.057 37.2773H204.826V52.509H220.057V37.2773Z" fill="black"/>
<path d="M220.057 52.509H204.826V67.7407H220.057V52.509Z" fill="black"/>
<path d="M220.057 67.7407H204.826V82.9724H220.057V67.7407Z" fill="black"/>
<path d="M220.057 82.9724H204.826V98.2041H220.057V82.9724Z" fill="black"/>
<path d="M220.057 113.436H204.826V128.667H220.057V113.436Z" fill="black"/>
<path d="M220.057 159.131H204.826V174.362H220.057V159.131Z" fill="black"/>
<path d="M220.057 189.594H204.826V204.826H220.057V189.594Z" fill="black"/>
<path d="M220.057 265.752H204.826V280.984H220.057V265.752Z" fill="black"/>
<path d="M220.057 280.984H204.826V296.216H220.057V280.984Z" fill="black"/>
<path d="M220.057 311.447H204.826V326.679H220.057V311.447Z" fill="black"/>
<path d="M220.057 341.911H204.826V357.142H220.057V341.911Z" fill="black"/>
<path d="M220.057 372.374H204.826V387.606H220.057V372.374Z" fill="black"/>
<path d="M220.057 433.301H204.826V448.532H220.057V433.301Z" fill="black"/>
<path d="M220.057 448.532H204.826V463.764H220.057V448.532Z" fill="black"/>
<path d="M235.289 52.509H220.057V67.7407H235.289V52.509Z" fill="black"/>
<path d="M235.289 67.7407H220.057V82.9724H235.289V67.7407Z" fill="black"/>
<path d="M235.289 98.2041H220.057V113.436H235.289V98.2041Z" fill="black"/>
<path d="M235.289 220.057H220.057V235.289H235.289V220.057Z" fill="black"/>
<path d="M235.289 235.289H220.057V250.521H235.289V235.289Z" fill="black"/>
<path d="M235.289 250.521H220.057V265.752H235.289V250.521Z" fill="black"/>
<path d="M235.289 265.752H220.057V280.984H235.289V265.752Z" fill="black"/>
<path d="M235.289 280.984H220.057V296.216H235.289V280.984Z" fill="black"/>
<path d="M235.289 311.447H220.057V326.679H235.289V311.447Z" fill="black"/>
<path d="M235.289 326.679H220.057V341.911H235.289V326.679Z" fill="black"/>
<path d="M235.289 341.911H220.057V357.142H235.289V341.911Z" fill="black"/>
<path d="M235.289 357.142H220.057V372.374H235.289V357.142Z" fill="black"/>
<path d="M235.289 387.606H220.057V402.837H235.289V387.606Z" fill="black"/>
<path d="M235.289 402.837H220.057V418.069H235.289V402.837Z" fill="black"/>
<path d="M235.289 433.301H220.057V448.532H235.289V433.301Z" fill="black"/>
<path d="M235.289 448.532H220.057V463.764H235.289V448.532Z" fill="black"/>
<path d="M250.521 22.0457H235.289V37.2773H250.521V22.0457Z" fill="black"/>
<path d="M250.521 37.2773H235.289V52.509H250.521V37.2773Z" fill="black"/>
<path d="M250.521 52.509H235.289V67.7407H250.521V52.509Z" fill="black"/>
<path d="M250.521 113.436H235.289V128.667H250.521V113.436Z" fill="black"/>
<path d="M250.521 128.667H235.289V143.899H250.521V128.667Z" fill="black"/>
<path d="M250.521 143.899H235.289V159.131H250.521V143.899Z" fill="black"/>
<path d="M250.521 174.362H235.289V189.594H250.521V174.362Z" fill="black"/>
<path d="M250.521 189.594H235.289V204.826H250.521V189.594Z" fill="black"/>
<path d="M250.521 204.826H235.289V220.057H250.521V204.826Z" fill="black"/>
<path d="M250.521 235.289H235.289V250.521H250.521V235.289Z" fill="black"/>
<path d="M250.521 250.521H235.289V265.752H250.521V250.521Z" fill="black"/>
<path d="M250.521 280.984H235.289V296.216H250.521V280.984Z" fill="black"/>
<path d="M250.521 326.679H235.289V341.911H250.521V326.679Z" fill="black"/>
<path d="M250.521 341.911H235.289V357.142H250.521V341.911Z" fill="black"/>
<path d="M250.521 372.374H235.289V387.606H250.521V372.374Z" fill="black"/>
<path d="M250.521 433.301H235.289V448.532H250.521V433.301Z" fill="black"/>
<path d="M265.752 22.0457H250.521V37.2773H265.752V22.0457Z" fill="black"/>
<path d="M265.752 37.2773H250.521V52.509H265.752V37.2773Z" fill="black"/>
<path d="M265.752 128.667H250.521V143.899H265.752V128.667Z" fill="black"/>
<path d="M265.752 143.899H250.521V159.131H265.752V143.899Z" fill="black"/>
<path d="M265.752 174.362H250.521V189.594H265.752V174.362Z" fill="black"/>
<path d="M265.752 204.826H250.521V220.057H265.752V204.826Z" fill="black"/>
<path d="M265.752 280.984H250.521V296.216H265.752V280.984Z" fill="black"/>
<path d="M265.752 296.216H250.521V311.447H265.752V296.216Z" fill="black"/>
<path d="M265.752 326.679H250.521V341.911H265.752V326.679Z" fill="black"/>
<path d="M265.752 341.911H250.521V357.142H265.752V341.911Z" fill="black"/>
<path d="M265.752 357.142H250.521V372.374H265.752V357.142Z" fill="black"/>
<path d="M265.752 387.606H250.521V402.837H265.752V387.606Z" fill="black"/>
<path d="M265.752 402.837H250.521V418.069H265.752V402.837Z" fill="black"/>
<path d="M280.984 37.2773H265.752V52.509H280.984V37.2773Z" fill="black"/>
<path d="M280.984 67.7407H265.752V82.9724H280.984V67.7407Z" fill="black"/>
<path d="M280.984 82.9724H265.752V98.2041H280.984V82.9724Z" fill="black"/>
<path d="M280.984 98.2041H265.752V113.436H280.984V98.2041Z" fill="black"/>
<path d="M280.984 113.436H265.752V128.667H280.984V113.436Z" fill="black"/>
<path d="M280.984 128.667H265.752V143.899H280.984V128.667Z" fill="black"/>
<path d="M280.984 143.899H265.752V159.131H280.984V143.899Z" fill="black"/>
<path d="M280.984 159.131H265.752V174.362H280.984V159.131Z" fill="black"/>
<path d="M280.984 174.362H265.752V189.594H280.984V174.362Z" fill="black"/>
<path d="M280.984 189.594H265.752V204.826H280.984V189.594Z" fill="black"/>
<path d="M280.984 220.057H265.752V235.289H280.984V220.057Z" fill="black"/>
<path d="M280.984 235.289H265.752V250.521H280.984V235.289Z" fill="black"/>
<path d="M280.984 265.752H265.752V280.984H280.984V265.752Z" fill="black"/>
<path d="M280.984 311.447H265.752V326.679H280.984V311.447Z" fill="black"/>
<path d="M280.984 372.374H265.752V387.606H280.984V372.374Z" fill="black"/>
<path d="M280.984 402.837H265.752V418.069H280.984V402.837Z" fill="black"/>
<path d="M280.984 418.069H265.752V433.301H280.984V418.069Z" fill="black"/>
<path d="M280.984 448.532H265.752V463.764H280.984V448.532Z" fill="black"/>
<path d="M296.216 22.0457H280.984V37.2773H296.216V22.0457Z" fill="black"/>
<path d="M296.216 37.2773H280.984V52.509H296.216V37.2773Z" fill="black"/>
<path d="M296.216 52.509H280.984V67.7407H296.216V52.509Z" fill="black"/>
<path d="M296.216 82.9724H280.984V98.2041H296.216V82.9724Z" fill="black"/>
<path d="M296.216 159.131H280.984V174.362H296.216V159.131Z" fill="black"/>
<path d="M296.216 189.594H280.984V204.826H296.216V189.594Z" fill="black"/>
<path d="M296.216 204.826H280.984V220.057H296.216V204.826Z" fill="black"/>
<path d="M296.216 235.289H280.984V250.521H296.216V235.289Z" fill="black"/>
<path d="M296.216 250.521H280.984V265.752H296.216V250.521Z" fill="black"/>
<path d="M296.216 296.216H280.984V311.447H296.216V296.216Z" fill="black"/>
<path d="M296.216 326.679H280.984V341.911H296.216V326.679Z" fill="black"/>
<path d="M296.216 357.142H280.984V372.374H296.216V357.142Z" fill="black"/>
<path d="M296.216 372.374H280.984V387.606H296.216V372.374Z" fill="black"/>
<path d="M296.216 387.606H280.984V402.837H296.216V387.606Z" fill="black"/>
<path d="M296.216 433.301H280.984V448.532H296.216V433.301Z" fill="black"/>
<path d="M296.216 448.532H280.984V463.764H296.216V448.532Z" fill="black"/>
<path d="M311.447 22.0457H296.216V37.2773H311.447V22.0457Z" fill="black"/>
<path d="M311.447 52.509H296.216V67.7407H311.447V52.509Z" fill="black"/>
<path d="M311.447 113.436H296.216V128.667H311.447V113.436Z" fill="black"/>
<path d="M311.447 143.899H296.216V159.131H311.447V143.899Z" fill="black"/>
<path d="M311.447 174.362H296.216V189.594H311.447V174.362Z" fill="black"/>
<path d="M311.447 220.057H296.216V235.289H311.447V220.057Z" fill="black"/>
<path d="M311.447 250.521H296.216V265.752H311.447V250.521Z" fill="black"/>
<path d="M311.447 265.752H296.216V280.984H311.447V265.752Z" fill="black"/>
<path d="M311.447 280.984H296.216V296.216H311.447V280.984Z" fill="black"/>
<path d="M311.447 296.216H296.216V311.447H311.447V296.216Z" fill="black"/>
<path d="M311.447 357.142H296.216V372.374H311.447V357.142Z" fill="black"/>
<path d="M311.447 402.837H296.216V418.069H311.447V402.837Z" fill="black"/>
<path d="M311.447 418.069H296.216V433.301H311.447V418.069Z" fill="black"/>
<path d="M326.679 22.0457H311.447V37.2773H326.679V22.0457Z" fill="black"/>
<path d="M326.679 67.7407H311.447V82.9724H326.679V67.7407Z" fill="black"/>
<path d="M326.679 98.2041H311.447V113.436H326.679V98.2041Z" fill="black"/>
<path d="M326.679 143.899H311.447V159.131H326.679V143.899Z" fill="black"/>
<path d="M326.679 174.362H311.447V189.594H326.679V174.362Z" fill="black"/>
<path d="M326.679 204.826H311.447V220.057H326.679V204.826Z" fill="black"/>
<path d="M326.679 220.057H311.447V235.289H326.679V220.057Z" fill="black"/>
<path d="M326.679 250.521H311.447V265.752H326.679V250.521Z" fill="black"/>
<path d="M326.679 296.216H311.447V311.447H326.679V296.216Z" fill="black"/>
<path d="M326.679 311.447H311.447V326.679H326.679V311.447Z" fill="black"/>
<path d="M326.679 326.679H311.447V341.911H326.679V326.679Z" fill="black"/>
<path d="M326.679 357.142H311.447V372.374H326.679V357.142Z" fill="black"/>
<path d="M326.679 372.374H311.447V387.606H326.679V372.374Z" fill="black"/>
<path d="M326.679 387.606H311.447V402.837H326.679V387.606Z" fill="black"/>
<path d="M326.679 402.837H311.447V418.069H326.679V402.837Z" fill="black"/>
<path d="M326.679 433.301H311.447V448.532H326.679V433.301Z" fill="black"/>
<path d="M326.679 448.532H311.447V463.764H326.679V448.532Z" fill="black"/>
<path d="M341.911 22.0457H326.679V37.2773H341.911V22.0457Z" fill="black"/>
<path d="M341.911 52.509H326.679V67.7407H341.911V52.509Z" fill="black"/>
<path d="M341.911 67.7407H326.679V82.9724H341.911V67.7407Z" fill="black"/>
<path d="M341.911 82.9724H326.679V98.2041H341.911V82.9724Z" fill="black"/>
<path d="M341.911 98.2041H326.679V113.436H341.911V98.2041Z" fill="black"/>
<path d="M341.911 113.436H326.679V128.667H341.911V113.436Z" fill="black"/>
<path d="M341.911 128.667H326.679V143.899H341.911V128.667Z" fill="black"/>
<path d="M341.911 143.899H326.679V159.131H341.911V143.899Z" fill="black"/>
<path d="M341.911 159.131H326.679V174.362H341.911V159.131Z" fill="black"/>
<path d="M341.911 174.362H326.679V189.594H341.911V174.362Z" fill="black"/>
<path d="M341.911 204.826H326.679V220.057H341.911V204.826Z" fill="black"/>
<path d="M341.911 235.289H326.679V250.521H341.911V235.289Z" fill="black"/>
<path d="M341.911 250.521H326.679V265.752H341.911V250.521Z" fill="black"/>
<path d="M341.911 280.984H326.679V296.216H341.911V280.984Z" fill="black"/>
<path d="M341.911 296.216H326.679V311.447H341.911V296.216Z" fill="black"/>
<path d="M341.911 326.679H326.679V341.911H341.911V326.679Z" fill="black"/>
<path d="M341.911 341.911H326.679V357.142H341.911V341.911Z" fill="black"/>
<path d="M341.911 357.142H326.679V372.374H341.911V357.142Z" fill="black"/>
<path d="M341.911 372.374H326.679V387.606H341.911V372.374Z" fill="black"/>
<path d="M341.911 387.606H326.679V402.837H341.911V387.606Z" fill="black"/>
<path d="M341.911 418.069H326.679V433.301H341.911V418.069Z" fill="black"/>
<path d="M341.911 433.301H326.679V448.532H341.911V433.301Z" fill="black"/>
<path d="M341.911 448.532H326.679V463.764H341.911V448.532Z" fill="black"/>
<path d="M357.142 143.899H341.911V159.131H357.142V143.899Z" fill="black"/>
<path d="M357.142 174.362H341.911V189.594H357.142V174.362Z" fill="black"/>
<path d="M357.142 204.826H341.911V220.057H357.142V204.826Z" fill="black"/>
<path d="M357.142 220.057H341.911V235.289H357.142V220.057Z" fill="black"/>
<path d="M357.142 265.752H341.911V280.984H357.142V265.752Z" fill="black"/>
<path d="M357.142 296.216H341.911V311.447H357.142V296.216Z" fill="black"/>
<path d="M357.142 326.679H341.911V341.911H357.142V326.679Z" fill="black"/>
<path d="M357.142 387.606H341.911V402.837H357.142V387.606Z" fill="black"/>
<path d="M357.142 402.837H341.911V418.069H357.142V402.837Z" fill="black"/>
<path d="M357.142 433.301H341.911V448.532H357.142V433.301Z" fill="black"/>
<path d="M357.142 448.532H341.911V463.764H357.142V448.532Z" fill="black"/>
<path d="M372.374 143.899H357.142V159.131H372.374V143.899Z" fill="black"/>
<path d="M372.374 159.131H357.142V174.362H372.374V159.131Z" fill="black"/>
<path d="M372.374 174.362H357.142V189.594H372.374V174.362Z" fill="black"/>
<path d="M372.374 250.521H357.142V265.752H372.374V250.521Z" fill="black"/>
<path d="M372.374 265.752H357.142V280.984H372.374V265.752Z" fill="black"/>
<path d="M372.374 296.216H357.142V311.447H372.374V296.216Z" fill="black"/>
<path d="M372.374 311.447H357.142V326.679H372.374V311.447Z" fill="black"/>
<path d="M372.374 326.679H357.142V341.911H372.374V326.679Z" fill="black"/>
<path d="M372.374 357.142H357.142V372.374H372.374V357.142Z" fill="black"/>
<path d="M372.374 387.606H357.142V402.837H372.374V387.606Z" fill="black"/>
<path d="M387.606 143.899H372.374V159.131H387.606V143.899Z" fill="black"/>
<path d="M387.606 159.131H372.374V174.362H387.606V159.131Z" fill="black"/>
<path d="M387.606 174.362H372.374V189.594H387.606V174.362Z" fill="black"/>
<path d="M387.606 220.057H372.374V235.289H387.606V220.057Z" fill="black"/>
<path d="M387.606 311.447H372.374V326.679H387.606V311.447Z" fill="black"/>
<path d="M387.606 326.679H372.374V341.911H387.606V326.679Z" fill="black"/>
<path d="M387.606 387.606H372.374V402.837H387.606V387.606Z" fill="black"/>
<path d="M387.606 402.837H372.374V418.069H387.606V402.837Z" fill="black"/>
<path d="M387.606 448.532H372.374V463.764H387.606V448.532Z" fill="black"/>
<path d="M402.837 143.899H387.606V159.131H402.837V143.899Z" fill="black"/>
<path d="M402.837 174.362H387.606V189.594H402.837V174.362Z" fill="black"/>
<path d="M402.837 189.594H387.606V204.826H402.837V189.594Z" fill="black"/>
<path d="M402.837 204.826H387.606V220.057H402.837V204.826Z" fill="black"/>
<path d="M402.837 220.057H387.606V235.289H402.837V220.057Z" fill="black"/>
<path d="M402.837 235.289H387.606V250.521H402.837V235.289Z" fill="black"/>
<path d="M402.837 250.521H387.606V265.752H402.837V250.521Z" fill="black"/>
<path d="M402.837 296.216H387.606V311.447H402.837V296.216Z" fill="black"/>
<path d="M402.837 326.679H387.606V341.911H402.837V326.679Z" fill="black"/>
<path d="M402.837 341.911H387.606V357.142H402.837V341.911Z" fill="black"/>
<path d="M402.837 357.142H387.606V372.374H402.837V357.142Z" fill="black"/>
<path d="M402.837 372.374H387.606V387.606H402.837V372.374Z" fill="black"/>
<path d="M402.837 387.606H387.606V402.837H402.837V387.606Z" fill="black"/>
<path d="M402.837 402.837H387.606V418.069H402.837V402.837Z" fill="black"/>
<path d="M402.837 418.069H387.606V433.301H402.837V418.069Z" fill="black"/>
<path d="M402.837 448.532H387.606V463.764H402.837V448.532Z" fill="black"/>
<path d="M418.069 143.899H402.837V159.131H418.069V143.899Z" fill="black"/>
<path d="M418.069 159.131H402.837V174.362H418.069V159.131Z" fill="black"/>
<path d="M418.069 189.594H402.837V204.826H418.069V189.594Z" fill="black"/>
<path d="M418.069 204.826H402.837V220.057H418.069V204.826Z" fill="black"/>
<path d="M418.069 250.521H402.837V265.752H418.069V250.521Z" fill="black"/>
<path d="M418.069 265.752H402.837V280.984H418.069V265.752Z" fill="black"/>
<path d="M418.069 280.984H402.837V296.216H418.069V280.984Z" fill="black"/>
<path d="M418.069 311.447H402.837V326.679H418.069V311.447Z" fill="black"/>
<path d="M418.069 326.679H402.837V341.911H418.069V326.679Z" fill="black"/>
<path d="M418.069 341.911H402.837V357.142H418.069V341.911Z" fill="black"/>
<path d="M418.069 372.374H402.837V387.606H418.069V372.374Z" fill="black"/>
<path d="M418.069 418.069H402.837V433.301H418.069V418.069Z" fill="black"/>
<path d="M433.301 143.899H418.069V159.131H433.301V143.899Z" fill="black"/>
<path d="M433.301 220.057H418.069V235.289H433.301V220.057Z" fill="black"/>
<path d="M433.301 235.289H418.069V250.521H433.301V235.289Z" fill="black"/>
<path d="M433.301 280.984H418.069V296.216H433.301V280.984Z" fill="black"/>
<path d="M433.301 311.447H418.069V326.679H433.301V311.447Z" fill="black"/>
<path d="M433.301 326.679H418.069V341.911H433.301V326.679Z" fill="black"/>
<path d="M433.301 341.911H418.069V357.142H433.301V341.911Z" fill="black"/>
<path d="M433.301 357.142H418.069V372.374H433.301V357.142Z" fill="black"/>
<path d="M433.301 372.374H418.069V387.606H433.301V372.374Z" fill="black"/>
<path d="M433.301 387.606H418.069V402.837H433.301V387.606Z" fill="black"/>
<path d="M433.301 418.069H418.069V433.301H433.301V418.069Z" fill="black"/>
<path d="M433.301 433.301H418.069V448.532H433.301V433.301Z" fill="black"/>
<path d="M448.532 143.899H433.301V159.131H448.532V143.899Z" fill="black"/>
<path d="M448.532 159.131H433.301V174.362H448.532V159.131Z" fill="black"/>
<path d="M448.532 174.362H433.301V189.594H448.532V174.362Z" fill="black"/>
<path d="M448.532 235.289H433.301V250.521H448.532V235.289Z" fill="black"/>
<path d="M448.532 265.752H433.301V280.984H448.532V265.752Z" fill="black"/>
<path d="M448.532 296.216H433.301V311.447H448.532V296.216Z" fill="black"/>
<path d="M448.532 341.911H433.301V357.142H448.532V341.911Z" fill="black"/>
<path d="M448.532 387.606H433.301V402.837H448.532V387.606Z" fill="black"/>
<path d="M448.532 402.837H433.301V418.069H448.532V402.837Z" fill="black"/>
<path d="M448.532 433.301H433.301V448.532H448.532V433.301Z" fill="black"/>
<path d="M463.764 174.362H448.532V189.594H463.764V174.362Z" fill="black"/>
<path d="M463.764 235.289H448.532V250.521H463.764V235.289Z" fill="black"/>
<path d="M463.764 280.984H448.532V296.216H463.764V280.984Z" fill="black"/>
<path d="M463.764 311.447H448.532V326.679H463.764V311.447Z" fill="black"/>
<path d="M463.764 357.142H448.532V372.374H463.764V357.142Z" fill="black"/>
<path d="M463.764 387.606H448.532V402.837H463.764V387.606Z" fill="black"/>
<path d="M463.764 402.837H448.532V418.069H463.764V402.837Z" fill="black"/>
<path d="M463.764 418.069H448.532V433.301H463.764V418.069Z" fill="black"/>
<path d="M37.2773 22.0457H22.0457V37.2773H37.2773V22.0457Z" fill="black"/>
<path d="M37.2773 37.2773H22.0457V52.509H37.2773V37.2773Z" fill="black"/>
<path d="M37.2773 52.509H22.0457V67.7407H37.2773V52.509Z" fill="black"/>
<path d="M37.2773 67.7407H22.0457V82.9724H37.2773V67.7407Z" fill="black"/>
<path d="M37.2773 82.9724H22.0457V98.2041H37.2773V82.9724Z" fill="black"/>
<path d="M37.2773 98.2041H22.0457V113.436H37.2773V98.2041Z" fill="black"/>
<path d="M37.2773 113.436H22.0457V128.667H37.2773V113.436Z" fill="black"/>
<path d="M52.509 22.0457H37.2773V37.2773H52.509V22.0457Z" fill="black"/>
<path d="M52.509 113.436H37.2773V128.667H52.509V113.436Z" fill="black"/>
<path d="M67.7407 22.0457H52.509V37.2773H67.7407V22.0457Z" fill="black"/>
<path d="M67.7407 113.436H52.509V128.667H67.7407V113.436Z" fill="black"/>
<path d="M82.9724 22.0457H67.7407V37.2773H82.9724V22.0457Z" fill="black"/>
<path d="M82.9724 113.436H67.7407V128.667H82.9724V113.436Z" fill="black"/>
<path d="M98.2041 22.0457H82.9724V37.2773H98.2041V22.0457Z" fill="black"/>
<path d="M98.2041 113.436H82.9724V128.667H98.2041V113.436Z" fill="black"/>
<path d="M113.436 22.0457H98.2041V37.2773H113.436V22.0457Z" fill="black"/>
<path d="M113.436 113.436H98.2041V128.667H113.436V113.436Z" fill="black"/>
<path d="M128.667 22.0457H113.436V37.2773H128.667V22.0457Z" fill="black"/>
<path d="M128.667 37.2773H113.436V52.509H128.667V37.2773Z" fill="black"/>
<path d="M128.667 52.509H113.436V67.7407H128.667V52.509Z" fill="black"/>
<path d="M128.667 67.7407H113.436V82.9724H128.667V67.7407Z" fill="black"/>
<path d="M128.667 82.9724H113.436V98.2041H128.667V82.9724Z" fill="black"/>
<path d="M128.667 98.2041H113.436V113.436H128.667V98.2041Z" fill="black"/>
<path d="M128.667 113.436H113.436V128.667H128.667V113.436Z" fill="black"/>
<path d="M67.7407 52.509H52.509V67.7407H67.7407V52.509Z" fill="black"/>
<path d="M67.7407 67.7407H52.509V82.9724H67.7407V67.7407Z" fill="black"/>
<path d="M67.7407 82.9724H52.509V98.2041H67.7407V82.9724Z" fill="black"/>
<path d="M82.9724 52.509H67.7407V67.7407H82.9724V52.509Z" fill="black"/>
<path d="M82.9724 67.7407H67.7407V82.9724H82.9724V67.7407Z" fill="black"/>
<path d="M82.9724 82.9724H67.7407V98.2041H82.9724V82.9724Z" fill="black"/>
<path d="M98.2041 52.509H82.9724V67.7407H98.2041V52.509Z" fill="black"/>
<path d="M98.2041 67.7407H82.9724V82.9724H98.2041V67.7407Z" fill="black"/>
<path d="M98.2041 82.9724H82.9724V98.2041H98.2041V82.9724Z" fill="black"/>
<path d="M372.374 22.0457H357.142V37.2773H372.374V22.0457Z" fill="black"/>
<path d="M372.374 37.2773H357.142V52.509H372.374V37.2773Z" fill="black"/>
<path d="M372.374 52.509H357.142V67.7407H372.374V52.509Z" fill="black"/>
<path d="M372.374 67.7407H357.142V82.9724H372.374V67.7407Z" fill="black"/>
<path d="M372.374 82.9724H357.142V98.2041H372.374V82.9724Z" fill="black"/>
<path d="M372.374 98.2041H357.142V113.436H372.374V98.2041Z" fill="black"/>
<path d="M372.374 113.436H357.142V128.667H372.374V113.436Z" fill="black"/>
<path d="M387.606 22.0457H372.374V37.2773H387.606V22.0457Z" fill="black"/>
<path d="M387.606 113.436H372.374V128.667H387.606V113.436Z" fill="black"/>
<path d="M402.838 22.0457H387.606V37.2773H402.838V22.0457Z" fill="black"/>
<path d="M402.838 113.436H387.606V128.667H402.838V113.436Z" fill="black"/>
<path d="M418.069 22.0457H402.837V37.2773H418.069V22.0457Z" fill="black"/>
<path d="M418.069 113.436H402.837V128.667H418.069V113.436Z" fill="black"/>
<path d="M433.301 22.0457H418.069V37.2773H433.301V22.0457Z" fill="black"/>
<path d="M433.301 113.436H418.069V128.667H433.301V113.436Z" fill="black"/>
<path d="M448.532 22.0457H433.301V37.2773H448.532V22.0457Z" fill="black"/>
<path d="M448.532 113.436H433.301V128.667H448.532V113.436Z" fill="black"/>
<path d="M463.764 22.0457H448.532V37.2773H463.764V22.0457Z" fill="black"/>
<path d="M463.764 37.2773H448.532V52.509H463.764V37.2773Z" fill="black"/>
<path d="M463.764 52.509H448.532V67.7407H463.764V52.509Z" fill="black"/>
<path d="M463.764 67.7407H448.532V82.9724H463.764V67.7407Z" fill="black"/>
<path d="M463.764 82.9724H448.532V98.2041H463.764V82.9724Z" fill="black"/>
<path d="M463.764 98.2041H448.532V113.436H463.764V98.2041Z" fill="black"/>
<path d="M463.764 113.436H448.532V128.667H463.764V113.436Z" fill="black"/>
<path d="M402.837 52.509H387.606V67.7407H402.837V52.509Z" fill="black"/>
<path d="M402.837 67.7407H387.606V82.9724H402.837V67.7407Z" fill="black"/>
<path d="M402.837 82.9724H387.606V98.2041H402.837V82.9724Z" fill="black"/>
<path d="M418.069 52.509H402.837V67.7407H418.069V52.509Z" fill="black"/>
<path d="M418.069 67.7407H402.837V82.9724H418.069V67.7407Z" fill="black"/>
<path d="M418.069 82.9724H402.837V98.2041H418.069V82.9724Z" fill="black"/>
<path d="M433.301 52.509H418.069V67.7407H433.301V52.509Z" fill="black"/>
<path d="M433.301 67.7407H418.069V82.9724H433.301V67.7407Z" fill="black"/>
<path d="M433.301 82.9724H418.069V98.2041H433.301V82.9724Z" fill="black"/>
<path d="M37.2773 357.143H22.0457V372.374H37.2773V357.143Z" fill="black"/>
<path d="M37.2773 372.374H22.0457V387.606H37.2773V372.374Z" fill="black"/>
<path d="M37.2773 387.606H22.0457V402.838H37.2773V387.606Z" fill="black"/>
<path d="M37.2773 402.838H22.0457V418.069H37.2773V402.838Z" fill="black"/>
<path d="M37.2773 418.069H22.0457V433.301H37.2773V418.069Z" fill="black"/>
<path d="M37.2773 433.301H22.0457V448.532H37.2773V433.301Z" fill="black"/>
<path d="M37.2773 448.532H22.0457V463.764H37.2773V448.532Z" fill="black"/>
<path d="M52.509 357.143H37.2773V372.374H52.509V357.143Z" fill="black"/>
<path d="M52.509 448.532H37.2773V463.764H52.509V448.532Z" fill="black"/>
<path d="M67.7407 357.143H52.509V372.374H67.7407V357.143Z" fill="black"/>
<path d="M67.7407 448.532H52.509V463.764H67.7407V448.532Z" fill="black"/>
<path d="M82.9724 357.143H67.7407V372.374H82.9724V357.143Z" fill="black"/>
<path d="M82.9724 448.532H67.7407V463.764H82.9724V448.532Z" fill="black"/>
<path d="M98.2041 357.143H82.9724V372.374H98.2041V357.143Z" fill="black"/>
<path d="M98.2041 448.532H82.9724V463.764H98.2041V448.532Z" fill="black"/>
<path d="M113.436 357.143H98.2041V372.374H113.436V357.143Z" fill="black"/>
<path d="M113.436 448.532H98.2041V463.764H113.436V448.532Z" fill="black"/>
<path d="M128.667 357.143H113.436V372.374H128.667V357.143Z" fill="black"/>
<path d="M128.667 372.374H113.436V387.606H128.667V372.374Z" fill="black"/>
<path d="M128.667 387.606H113.436V402.838H128.667V387.606Z" fill="black"/>
<path d="M128.667 402.838H113.436V418.069H128.667V402.838Z" fill="black"/>
<path d="M128.667 418.069H113.436V433.301H128.667V418.069Z" fill="black"/>
<path d="M128.667 433.301H113.436V448.532H128.667V433.301Z" fill="black"/>
<path d="M128.667 448.532H113.436V463.764H128.667V448.532Z" fill="black"/>
<path d="M67.7407 387.606H52.509V402.837H67.7407V387.606Z" fill="black"/>
<path d="M67.7407 402.837H52.509V418.069H67.7407V402.837Z" fill="black"/>
<path d="M67.7407 418.069H52.509V433.301H67.7407V418.069Z" fill="black"/>
<path d="M82.9724 387.606H67.7407V402.837H82.9724V387.606Z" fill="black"/>
<path d="M82.9724 402.837H67.7407V418.069H82.9724V402.837Z" fill="black"/>
<path d="M82.9724 418.069H67.7407V433.301H82.9724V418.069Z" fill="black"/>
<path d="M98.2041 387.606H82.9724V402.837H98.2041V387.606Z" fill="black"/>
<path d="M98.2041 402.837H82.9724V418.069H98.2041V402.837Z" fill="black"/>
<path d="M98.2041 418.069H82.9724V433.301H98.2041V418.069Z" fill="black"/>
</svg>
