<svg width="95" height="97" viewBox="0 0 95 97" fill="none" xmlns="http://www.w3.org/2000/svg">
<g filter="url(#filter0_d_16_1244)">
<rect x="1" y="1.85156" width="90.0111" height="90.0111" rx="45.0056" fill="#FF867E" stroke="black" stroke-width="2"/>
<rect x="1" y="1.85156" width="90.0111" height="90.0111" rx="45.0056" fill="#FF867E" stroke="black" stroke-width="2"/>
<path fill-rule="evenodd" clip-rule="evenodd" d="M44.7976 74.417C44.797 74.4079 44.7897 74.4008 44.7807 74.4006C43.6101 74.3714 42.412 74.2571 41.2331 73.9266C40.8022 73.806 40.3621 73.6873 39.948 73.4871C39.2188 73.1402 38.5411 72.6441 38.0077 72.0274C37.7385 71.7146 37.5079 71.4013 37.3015 71.0302C37.0851 70.659 36.9589 70.2282 36.9086 69.7961C36.8576 69.4113 36.8986 69.0152 36.9931 68.6416C37.0957 68.2667 37.2785 67.9254 37.4917 67.6133C38.0643 66.8275 39.0348 66.3569 39.9406 66.4433C40.2247 66.4613 40.1843 66.608 40.0021 66.8306C39.8075 67.0277 39.5452 67.4293 39.2536 67.6494C38.9732 67.8396 38.811 68.1262 38.63 68.3432C38.4628 68.58 38.3552 68.8399 38.3074 69.1041C38.2359 69.364 38.2228 69.6431 38.2782 69.9335C38.3354 70.2226 38.479 70.5104 38.6742 70.8505C38.9117 71.2279 39.2387 71.5561 39.616 71.8241C40.0003 72.0852 40.4292 72.2878 40.8713 72.465C41.8486 72.8523 42.9477 73.0214 44.0581 73.0917C44.7438 73.1309 45.4401 73.1408 46.1252 73.1016C47.1653 73.0407 48.2141 72.9114 49.1995 72.6062C49.9716 72.3904 50.6866 72.0609 51.3686 71.6854C51.5203 71.604 51.6614 71.5132 51.8094 71.4256C52.359 71.0998 52.5654 71.0407 52.8153 71.1302C52.8712 71.1501 52.9353 71.1613 52.98 71.1868C53.1212 71.2565 53.0167 71.5729 52.6369 71.9335C52.0705 72.4594 51.409 72.9257 50.6891 73.3C50.3285 73.484 49.958 73.663 49.5725 73.7998C49.1833 73.9223 48.7867 74.0255 48.3869 74.1063C47.2068 74.3551 45.9996 74.4351 44.8149 74.4333C44.8057 74.4333 44.7981 74.4262 44.7976 74.417Z" fill="#231F20"/>
<path fill-rule="evenodd" clip-rule="evenodd" d="M48.0057 74.8589C48.0041 74.8543 47.9993 74.8518 47.9947 74.853C47.3601 75.021 46.7145 75.141 46.067 75.24C45.8276 75.2723 45.5932 75.3034 45.3533 75.3358C44.5077 75.3967 43.6573 75.378 42.8192 75.2605C42.4462 75.2114 42.0744 75.1455 41.7076 75.0678C41.2426 74.9503 40.7539 74.8309 40.3573 74.5251C40.2311 74.4355 40.3312 74.3205 40.5102 74.2497C40.6936 74.1757 40.9299 74.1576 41.1661 74.2329C41.9917 74.5425 42.8969 74.6817 43.8251 74.7632C44.3834 74.8054 44.9672 74.7439 45.5348 74.6618C46.1627 74.5903 46.7856 74.461 47.403 74.3068C47.7835 74.2161 48.1571 74.0911 48.5314 73.9755L49.3744 73.6764C49.6498 73.5645 49.9233 73.4458 50.1932 73.3233C50.606 73.1194 50.9896 72.8782 51.3893 72.6637L51.6473 72.5126C51.9768 72.3342 52.1074 72.3205 52.2354 72.3746C52.2647 72.3877 52.2988 72.3964 52.3212 72.4125C52.3952 72.4641 52.3026 72.6071 52.0881 72.7949C51.4558 73.3581 50.693 73.8219 49.8792 74.1844C49.2843 74.4691 48.6555 74.6885 48.0168 74.8647C48.0121 74.866 48.0073 74.8634 48.0057 74.8589Z" fill="#231F20"/>
<path fill-rule="evenodd" clip-rule="evenodd" d="M49.2373 78.8536C49.2421 78.8575 49.249 78.8573 49.2536 78.8533C49.4522 78.6815 49.6226 78.4396 49.779 78.1863C49.84 78.0949 49.8623 77.9786 49.9195 77.8817C50.1148 77.5292 50.287 77.1481 50.4579 76.7539C50.54 76.5823 50.5997 76.3989 50.6668 76.2161C50.7576 75.9842 50.816 75.7206 51.0771 75.531C51.1517 75.4726 51.2375 75.5895 51.3159 75.7312C51.3905 75.881 51.4812 76.0054 51.4576 76.126C51.3445 76.5152 51.2954 77.02 51.015 77.457C50.8633 77.7231 50.8011 78.0396 50.6656 78.3305C50.522 78.6513 50.3292 78.9603 50.1135 79.2537C49.9581 79.4228 49.8219 79.6025 49.6329 79.743C49.4977 79.853 49.3524 79.9501 49.199 80.0329L49.1959 80.0346C49.0467 80.1303 48.8788 80.1788 48.7159 80.2404C48.591 80.2982 48.466 80.3374 48.3361 80.3734C48.2086 80.407 48.0743 80.4679 47.9425 80.4785C47.8847 80.4859 47.8275 80.4872 47.7685 80.4822C47.5503 80.4549 47.4862 80.389 47.4701 80.1695C47.4657 80.1229 47.4589 80.0775 47.4589 80.0352C47.4595 79.9022 47.5583 79.7349 47.6852 79.6746C48.0737 79.4819 48.3628 79.4185 48.6457 79.2805C48.8318 79.158 49.045 79.0567 49.2195 78.8554C49.224 78.8501 49.2319 78.8493 49.2373 78.8536Z" fill="#231F20"/>
<path fill-rule="evenodd" clip-rule="evenodd" d="M39.4616 67.8979C39.4564 67.8904 39.4468 67.8876 39.4384 67.8911C39.2854 67.9542 39.1066 68.0244 38.9517 68.1444C38.8945 68.1898 38.8603 68.2544 38.8031 68.3011C38.5942 68.4646 38.3884 68.6561 38.2367 68.8824C38.1807 68.9818 38.1459 69.0993 38.1528 69.2019C38.149 69.348 38.2013 69.4263 38.0931 69.5389C38.0545 69.5768 37.8146 69.6893 37.5466 69.7179C37.288 69.7614 36.9498 69.6377 36.9231 69.4661C36.8528 69.159 36.9131 68.8904 37.007 68.6666C37.0978 68.4372 37.2383 68.2488 37.4074 68.0897C37.6138 67.9075 37.7051 67.657 37.8854 67.4636C38.0856 67.256 38.307 67.0701 38.5594 66.9178C38.7073 66.8189 38.8826 66.7518 39.048 66.6778C39.3078 66.5693 39.5922 66.522 39.8729 66.5007C39.8763 66.5005 39.8796 66.5002 39.883 66.5C39.9967 66.4981 40.113 66.4708 40.2317 66.4658C40.348 66.4714 40.4711 66.4776 40.5929 66.4975C40.6489 66.5013 40.6899 66.5317 40.7347 66.5597C40.8901 66.6828 40.8938 66.7903 40.7825 67.0123C40.7571 67.0633 40.7334 67.1136 40.7048 67.1609C40.6091 67.3163 40.4655 67.427 40.3542 67.4866C40.0085 67.6819 39.9905 67.7391 39.8444 67.7732C39.7533 67.7936 39.6223 67.8337 39.4865 67.9039C39.4779 67.9084 39.4672 67.9059 39.4616 67.8979Z" fill="#231F20"/>
<path fill-rule="evenodd" clip-rule="evenodd" d="M28.784 57.4438C28.7872 57.4401 28.7872 57.4345 28.784 57.4308C27.2967 55.7055 25.9564 53.837 24.8847 51.8128C24.6777 51.4491 24.498 51.0711 24.3215 50.6913C24.1344 50.3164 23.9659 49.934 23.8223 49.5399C22.7256 46.7982 22.2773 43.8047 22.4962 40.8784C22.5316 40.2281 22.6398 39.5822 22.7181 38.9362C22.8574 38.3009 22.9351 37.6518 23.1185 37.0326C23.4847 35.423 24.1101 33.8228 25.0793 32.4712C25.384 32.0516 25.4113 32.1597 25.2634 32.5757C25.1092 32.9916 24.8506 33.7444 24.5074 34.5987C24.3557 34.9785 24.2214 35.3658 24.1014 35.7563C23.9802 36.1448 23.8981 36.5539 23.7825 36.948C23.6693 37.3447 23.5674 37.7432 23.4996 38.1498C23.4287 38.5551 23.3218 38.9549 23.2789 39.3646C23.019 40.9922 22.9998 42.6534 23.1583 44.304C23.3467 46.2841 23.9634 48.2915 24.8238 50.1367C25.7595 52.174 26.9581 54.0982 28.3675 55.8632C29.2236 56.958 30.1493 58.0018 31.1228 58.9978C32.5907 60.5147 34.1654 61.9446 35.7707 63.2993C37.0196 64.3531 38.2904 65.3285 39.5468 66.3531C39.8223 66.5806 40.0995 66.7932 40.3681 67.0351C41.3734 67.9179 41.6451 68.261 41.7445 68.5675C41.7682 68.6366 41.8079 68.7186 41.8135 68.7659C41.8297 68.9275 41.3808 68.6167 40.6305 68.0061C38.3892 66.2113 35.9628 64.3524 33.6563 62.3139C31.9475 60.8001 30.2902 59.1988 28.7841 57.4569C28.7808 57.4531 28.7808 57.4476 28.784 57.4438Z" fill="#231F20"/>
<path fill-rule="evenodd" clip-rule="evenodd" d="M25.808 31.2908C25.8182 31.2953 25.8302 31.2921 25.8368 31.2832C26.8129 29.9821 27.9615 28.837 29.2143 27.8319C30.5012 26.8633 31.8789 26.029 33.3343 25.3606C36.255 24.0625 39.4431 23.355 42.6535 23.4558C43.8248 23.4918 44.9936 23.6267 46.1238 23.8512C46.6933 23.9637 47.2609 24.0992 47.8235 24.2652C48.3862 24.4281 48.9364 24.6662 49.4897 24.8695C51.407 25.7075 53.1129 26.9982 54.4732 28.5568C55.8397 30.1147 56.8698 31.9289 57.5761 33.8381C59.011 37.6603 59.2864 41.8095 58.7517 45.7734C58.5379 47.5397 58.1624 49.2823 57.6986 50.9913C57.2503 52.7072 56.6616 54.3746 56.0362 56.0115C55.2298 58.1153 54.2625 60.1582 53.1838 62.1359C52.1139 64.1185 50.8978 66.0177 49.578 67.83C48.7505 68.9584 48.7095 68.696 49.177 67.5944C49.4163 67.0479 49.7545 66.2745 50.1866 65.3625C50.6031 64.4411 51.1192 63.3848 51.7085 62.259C52.7592 60.2639 53.6588 58.2005 54.5198 56.1315C55.3629 54.0538 56.0828 51.9288 56.6261 49.7629C57.7228 45.4421 58.0616 40.9012 57.0172 36.5686C56.6989 35.281 56.2519 34.0122 55.6625 32.8061C55.0707 31.6006 54.3041 30.4803 53.4095 29.4825C52.5118 28.4884 51.4754 27.6106 50.3047 26.9615C49.1359 26.3112 47.8944 25.8132 46.5714 25.5067C40.7834 24.0582 34.3315 25.5646 29.6955 29.3706C28.2786 30.5431 27.0471 31.9456 26.1431 33.5391C25.9404 33.9488 25.7228 34.3529 25.5295 34.7663L25.0539 36.052C24.8164 36.9472 24.569 37.8437 24.4484 38.7638L24.362 39.2829L24.3184 39.8076L24.2351 40.8577L24.242 41.9114L24.2476 42.438L24.2967 42.9634C24.3806 44.3696 24.7051 45.7517 25.1043 47.1026C25.5121 48.4554 26.1008 49.7479 26.7412 51.0081C27.4114 52.2546 28.1711 53.4514 28.9973 54.5984C31.5948 58.1595 34.7928 61.1181 38.0716 64.0146C38.7965 64.6531 39.5189 65.263 40.2407 65.927C42.9221 68.3609 43.6507 69.4296 43.7906 70.295C43.8211 70.4927 43.854 70.7408 43.8378 70.8533C43.8217 70.9509 43.7608 70.9416 43.6563 70.8539C43.5469 70.7656 43.4331 70.5947 43.2006 70.3746C42.7735 69.9282 42.0635 69.2331 41.0806 68.3709C38.135 65.8424 34.9656 63.2711 32.0666 60.2963C29.1733 57.332 26.4652 53.9605 24.6852 49.9991C24.0219 48.5344 23.5251 46.9845 23.1807 45.3973C22.8295 43.8076 22.7399 42.1632 22.7903 40.535C22.8506 38.9006 23.1751 37.2953 23.5985 35.7293C24.0896 34.1441 24.836 32.6476 25.7787 31.299C25.7853 31.2896 25.7975 31.2862 25.808 31.2908Z" fill="#231F20"/>
<path fill-rule="evenodd" clip-rule="evenodd" d="M41.9001 73.3854C41.8992 73.3947 41.9056 73.4031 41.9147 73.4047C43.4947 73.6918 45.1743 73.6433 46.8212 73.375C47.4199 73.27 48.0266 73.1034 48.6073 72.9759C49.584 72.7229 50.5793 72.2578 51.4876 71.7188C52.3941 71.1711 53.2396 70.5003 53.8289 69.6853C54.3257 68.9504 54.4419 68.0695 54.0011 67.3477C53.727 66.8895 53.2669 66.5115 52.7708 66.2013C52.2641 65.9029 51.7239 65.6312 51.1494 65.4266C50.7926 65.3067 50.846 65.1898 51.2135 65.0853C51.5678 65.0045 52.2971 64.8907 53.04 65.2221C53.6884 65.5118 54.3269 65.9047 54.8442 66.5364C54.9757 66.6879 55.0814 66.8616 55.1728 67.0459C55.3672 67.4373 55.4908 67.8638 55.5255 68.2995C55.5311 68.5159 55.4938 68.7297 55.4715 68.9442C55.3073 69.7847 54.8703 70.4518 54.3965 71.0045C53.9191 71.5647 53.3571 71.9868 52.7789 72.3679C52.0851 72.818 51.3658 73.224 50.6129 73.5858C50.2361 73.7661 49.8494 73.9321 49.4485 74.0757C49.2501 74.1509 49.035 74.2056 48.8299 74.2697L48.2312 74.4002C46.4854 74.7888 44.6757 74.9921 42.8659 74.8397C41.7537 74.7421 40.6471 74.509 39.5933 74.1012C38.7975 73.7835 38.0472 73.3334 37.3869 72.7627C36.736 72.182 36.2038 71.4329 35.9409 70.5637C35.7506 69.8904 35.722 69.1332 35.9514 68.4456C36.1877 67.7605 36.6297 67.1705 37.1569 66.7179C37.3894 66.5171 37.625 66.3331 37.8892 66.1789C38.3767 65.891 38.7428 65.8059 39.0002 65.7735C39.2626 65.753 39.4317 65.8127 39.5834 65.9377C39.6524 65.993 39.7344 66.0421 39.7792 66.1006C39.9297 66.3026 39.5796 66.5936 39.0033 66.9573C38.1448 67.4857 37.423 68.2174 37.2259 68.9983C37.1065 69.3875 37.1283 69.7717 37.2197 70.1776C37.3303 70.5836 37.5685 70.9796 37.8594 71.3489C38.7819 72.4387 40.3101 73.0945 41.8853 73.366C41.8945 73.3676 41.901 73.376 41.9001 73.3854Z" fill="#231F20"/>
<path fill-rule="evenodd" clip-rule="evenodd" d="M40.2434 70.4454C40.2406 70.4533 40.2445 70.4621 40.2523 70.4653C41.1278 70.8301 42.1007 71.0688 43.0958 71.1857C43.4613 71.2305 43.8313 71.2242 44.1999 71.2385C45.5018 71.2957 46.8328 71.1994 48.1079 70.8742C48.6718 70.7287 49.2263 70.5292 49.7343 70.2681C50.3877 69.9261 50.9565 69.4847 51.4613 68.9942C51.6217 68.8419 51.7411 68.9289 51.7635 69.1988C51.7995 69.4729 51.6864 69.9498 51.3146 70.288C49.9954 71.4362 48.3628 71.9715 46.7377 72.1307C45.7641 72.2233 44.7601 72.3725 43.7585 72.3439C42.6612 72.311 41.5577 72.168 40.4952 71.8254C39.8431 71.6153 39.2052 71.3343 38.6165 70.955C38.1732 70.6647 37.7591 70.3122 37.4185 69.8882C37.2593 69.6675 37.0995 69.4474 36.9808 69.2006C36.8446 68.9793 36.7452 68.6268 36.7514 68.3271C36.7582 67.8403 36.9441 67.4083 37.1822 67.0477C37.4241 66.6859 37.7274 66.38 38.0775 66.1313C38.2291 66.0182 38.3871 65.9181 38.5611 65.8329C39.2251 65.5376 39.5285 65.652 39.6777 65.9143C39.7131 65.9753 39.7548 66.0337 39.7722 66.0934C39.8188 66.2954 39.6037 66.4801 39.2842 66.656C38.7968 66.9128 38.3379 67.333 38.0886 67.7682C37.9637 67.9833 37.909 68.1935 37.9214 68.3321C37.9233 68.4042 37.945 68.4596 37.973 68.518C38.0066 68.5901 38.0998 68.7399 38.1564 68.8494C38.5911 69.5283 39.3525 70.0708 40.2342 70.4253C40.2422 70.4285 40.2462 70.4373 40.2434 70.4454Z" fill="#231F20"/>
<path fill-rule="evenodd" clip-rule="evenodd" d="M43.8177 76.1336C43.8165 76.143 43.8225 76.1518 43.8317 76.1539C44.6473 76.3432 45.5336 76.3715 46.4174 76.2919C46.7438 76.2695 47.0608 76.1787 47.3853 76.1253C48.5336 75.9381 49.6682 75.5806 50.7537 75.105C51.2299 74.8837 51.6856 74.612 52.0984 74.3031C52.6437 73.9133 53.0776 73.4302 53.5258 72.9813C53.6769 72.8458 53.8118 72.9291 53.8759 73.1871C53.9057 73.3146 53.9312 73.5011 53.8933 73.695C53.8485 73.8747 53.7621 74.073 53.6241 74.2508C52.5889 75.4047 51.3008 76.2316 49.874 76.6674C49.0192 76.9123 48.1681 77.2686 47.2666 77.4246C46.2825 77.603 45.2691 77.6658 44.2576 77.5645C43.6371 77.4986 43.0123 77.3512 42.4273 77.143C41.5402 76.8172 40.7021 76.3174 40.0071 75.6658C39.4643 75.1672 38.9651 74.6064 38.6064 73.9481C38.533 73.8013 38.4609 73.6571 38.3993 73.5036C38.2197 72.9173 38.3223 72.6929 38.5684 72.5113C38.625 72.4697 38.676 72.4212 38.7301 72.3938C38.9035 72.3024 39.1671 72.4771 39.3959 72.7961C39.7323 73.2717 40.0251 73.7199 40.3589 74.1308C40.694 74.5405 41.0888 74.8937 41.5364 75.1927C42.1896 75.631 42.9991 75.9523 43.803 76.1132C43.8125 76.1151 43.8189 76.124 43.8177 76.1336Z" fill="#231F20"/>
<path fill-rule="evenodd" clip-rule="evenodd" d="M40.3782 37.9951C40.3865 37.9925 40.392 37.9846 40.3914 37.9759C40.37 37.6691 40.3685 37.3545 40.3856 37.0327L40.4223 36.5285L40.4826 36.1648C40.5174 36.0336 40.5646 35.9068 40.6051 35.7775C40.7779 35.2577 41.182 34.9195 41.6607 34.8207C42.1444 34.7249 42.6486 34.8909 43.0365 35.2441C43.1304 35.3355 43.2286 35.4293 43.3063 35.5332C43.3927 35.6376 43.4748 35.7389 43.5102 35.8067C43.6091 35.9609 43.6874 36.1126 43.762 36.2643C43.91 36.5664 44.0238 36.8648 44.1257 37.162C44.3178 37.7613 44.4788 38.383 44.5516 38.9997C44.8581 41.4672 44.4869 43.9553 43.407 46.1903C43.2087 46.5975 42.9768 46.9916 42.7207 47.3734C42.5908 47.5655 42.4167 47.7594 42.2637 47.9497C42.0816 48.1244 41.8963 48.3028 41.6881 48.4533C40.8369 49.07 39.6968 49.2322 38.7623 49.0109C37.9224 48.8387 37.1776 48.4825 36.5019 48.0572C35.8248 47.627 35.2162 47.1266 34.6654 46.5446C34.1058 45.9441 33.6713 45.2851 33.3057 44.5851C32.9445 43.8844 32.6473 43.144 32.4981 42.3426C32.3514 41.5518 32.3247 40.6634 32.712 39.8409C32.8954 39.4411 33.1478 39.083 33.5146 38.7809C33.8739 38.4781 34.3763 38.3028 34.8531 38.3177C35.8205 38.3501 36.5491 38.9326 37.0987 39.4641C37.6663 40.0168 38.1357 40.6435 38.546 41.2944C39.9964 43.6158 40.8071 46.2195 41.5768 48.7193C42.0797 50.3339 42.5211 51.992 42.8021 53.6855C42.9339 54.5334 43.0353 55.3889 43.0614 56.2481C43.0875 57.1079 43.0434 57.9665 42.9625 58.8169C42.8332 59.8776 42.6765 59.7078 42.5118 58.8157C42.421 58.3395 42.3017 57.7215 42.1643 57.0041C42.0001 56.2636 41.8354 55.4107 41.6781 54.4818C41.3971 52.8343 40.9277 51.2217 40.4248 49.5978C39.9349 47.9553 39.4456 46.3233 38.8512 44.7691C38.2557 43.2192 37.5314 41.6991 36.4876 40.5204C36.2302 40.2276 35.9392 39.9491 35.6663 39.7613C35.3828 39.5742 35.08 39.4585 34.8233 39.4592C34.5659 39.4523 34.3415 39.5443 34.1239 39.7545C33.9063 39.9658 33.7216 40.2823 33.6284 40.5888C33.3865 41.3653 33.573 42.3619 33.9398 43.2596C34.3048 44.1648 34.8506 45.0482 35.5152 45.7433C36.2103 46.447 37.0465 47.0526 37.9324 47.4542C38.8139 47.8359 39.7875 48.0174 40.5491 47.6612C40.97 47.4784 41.3318 47.1564 41.6309 46.7523C41.9349 46.3128 42.2034 45.834 42.426 45.3317C42.8587 44.3208 43.1472 43.2304 43.2696 42.1225C43.4033 41.0147 43.3753 39.8875 43.1795 38.8039C43.0688 38.2674 42.9227 37.7383 42.7157 37.2322C42.6131 36.9829 42.4969 36.7442 42.3657 36.5391C42.2569 36.3681 42.2016 36.3028 42.0741 36.2301C41.9237 36.1449 41.7347 36.235 41.675 36.3911C41.642 36.4645 41.6141 36.5478 41.6023 36.623C41.5749 36.7473 41.5444 36.9282 41.5388 37.0868C41.5065 37.7495 41.5817 38.4464 41.7111 39.1253C41.8422 39.8048 42.03 40.4787 42.2923 41.1104C42.5485 41.7259 42.8973 42.3712 43.343 42.6796C43.7117 42.9052 44.1668 43.0159 44.6038 42.9332C45.0465 42.8586 45.481 42.6211 45.8621 42.3084C46.62 41.6761 47.2274 40.7728 47.5183 39.834C47.6619 39.3895 47.6663 38.8785 47.6023 38.3942C47.5326 37.9174 47.3585 37.443 47.0732 37.1999C46.7779 36.955 46.4832 36.9581 46.1717 37.2521C45.8584 37.5524 45.6029 38.0063 45.4101 38.47C45.251 38.8325 45.1584 39.2018 45.067 39.6096C44.9644 40.0044 44.896 40.4073 44.8301 40.8095C44.7114 41.6152 44.6399 42.4265 44.6225 43.2385C44.5858 44.8623 44.7089 46.485 44.9905 48.0846C45.1148 48.7896 45.2696 49.4722 45.4456 50.1698C45.7664 51.4654 46.043 52.2978 46.1922 52.9002C46.3489 53.5002 46.3738 53.8744 46.3284 54.2102C46.3073 54.3631 46.3048 54.5564 46.2662 54.659C46.1668 54.9997 45.3971 54.0995 44.707 52.1586C43.7079 49.2863 43.2081 46.1424 43.3449 42.94C43.3878 42.1405 43.463 41.3367 43.5973 40.5359C43.6725 40.1374 43.7173 39.7321 43.8136 39.3336L43.9454 38.7262C44.0039 38.4968 44.0723 38.2904 44.1481 38.0796C44.3042 37.6625 44.4888 37.2521 44.7599 36.8375C45.0309 36.4421 45.3927 35.9553 46.1804 35.6935C46.5559 35.6084 46.9737 35.6003 47.3275 35.7725C47.7011 35.895 47.9672 36.1238 48.1842 36.3644C48.6144 36.858 48.7754 37.3759 48.8867 37.8583C49.0241 38.5863 49.0415 39.2534 48.8568 40.0237C48.6629 40.7249 48.3551 41.3218 47.9821 41.8782C47.6054 42.4303 47.1571 42.9369 46.6019 43.3659C46.0499 43.7868 45.361 44.1474 44.5466 44.212C44.3483 44.2413 44.1382 44.2058 43.9361 44.1965C43.7341 44.171 43.5382 44.107 43.3418 44.056C43.1577 43.9814 42.9806 43.8931 42.8034 43.8061C42.6051 43.6898 42.4335 43.5487 42.2899 43.4082C41.7428 42.8368 41.4618 42.2419 41.2112 41.65C40.7431 40.4648 40.463 39.2715 40.365 38.0144C40.3643 38.0056 40.3698 37.9976 40.3782 37.9951Z" fill="#231F20"/>
<path fill-rule="evenodd" clip-rule="evenodd" d="M65.0222 39.4923C65.0079 39.6011 64.8643 39.5532 64.6411 39.4214C64.5697 39.3798 64.4012 39.2063 64.3956 39.1634C64.3844 39.0801 64.3751 38.9974 64.38 38.9265C64.38 38.8836 64.6623 38.4329 64.7624 38.2744C64.8556 38.1196 64.9781 37.9946 65.1111 37.8827C65.3754 37.6477 65.6582 37.4295 65.9573 37.2306C66.0238 37.187 66.0984 37.156 66.178 37.1354C66.4553 37.0702 66.694 36.9477 66.9302 36.8047C66.97 36.7817 67.016 36.7699 67.0384 36.7102C67.0676 36.602 67.7782 36.3204 67.8864 36.3334C68.1457 36.344 68.3931 36.331 68.6449 36.3627C68.6803 36.367 68.7133 36.3415 68.7537 36.3913C68.8463 36.5057 68.9134 36.4746 68.9874 36.4746C69.0888 36.4721 69.192 36.4839 69.2952 36.5175C69.3461 36.5336 69.4002 36.6002 69.4512 36.6524C69.4972 36.699 69.4854 36.8855 69.473 36.9067C69.4357 36.9682 69.4755 37.0521 69.4842 37.1286C69.4906 37.1817 69.4762 37.2317 69.4383 37.2694C69.3987 37.3088 69.3409 37.362 69.2799 37.4162C69.1034 37.5728 68.8677 37.7004 68.648 37.7864C68.4751 37.8547 68.3005 37.9368 68.2675 37.9623C68.1949 38.0115 68.0976 37.9791 68.0212 38.0221C67.9864 38.0417 67.9469 38.0647 67.9064 38.0885C67.7131 38.2022 67.5177 38.3937 67.2983 38.3477C67.289 38.3458 67.2795 38.3433 67.2697 38.3403C67.2392 38.3322 67.2212 38.349 67.2013 38.3614C67.0303 38.4684 66.8345 38.5324 66.6449 38.6169C66.5498 38.6623 66.4683 38.7295 66.3807 38.7873C66.3645 38.7979 66.3402 38.796 66.3203 38.801C66.2955 38.8072 66.2675 38.809 66.2482 38.824C66.0456 38.9694 65.8062 39.0758 65.6359 39.2679C65.5948 39.3076 65.3026 39.4003 65.261 39.4569C65.2367 39.4861 65.0278 39.4475 65.0222 39.4923Z" fill="#231F20"/>
<path fill-rule="evenodd" clip-rule="evenodd" d="M59.0316 25.6399C59.0167 25.7518 58.8644 25.7009 58.6319 25.5666C58.5579 25.5237 58.3826 25.3459 58.3757 25.3017C58.3627 25.2147 58.3515 25.1283 58.354 25.0537C58.354 25.0089 58.6244 24.5265 58.7152 24.3518C58.801 24.1833 58.9179 24.0465 59.0447 23.9222C59.3039 23.6704 59.5806 23.4398 59.8554 23.2184C59.9169 23.1699 59.9878 23.1326 60.0661 23.1103C60.3347 23.0307 60.5498 22.8815 60.7438 22.7068C60.7761 22.6776 60.8171 22.6595 60.8215 22.593C60.8327 22.4836 61.3854 22.0739 61.4749 22.0534C61.7074 22.0049 61.9163 21.9228 62.1364 21.8532C62.1687 21.8451 62.1843 21.8103 62.2452 21.8439C62.3869 21.9222 62.4273 21.8631 62.4895 21.8333C62.5759 21.791 62.6648 21.7525 62.7699 21.7332C62.8221 21.7232 62.9085 21.7581 62.985 21.7792C63.0546 21.7985 63.1672 21.9732 63.1696 22.0005C63.1765 22.0782 63.266 22.1329 63.3232 22.1976C63.3425 22.2194 63.368 22.248 63.381 22.2672C63.6747 22.6609 62.9443 23.2145 62.5867 23.5511C62.5238 23.6102 62.477 23.6556 62.4622 23.6735C62.4298 23.7127 62.3689 23.7127 62.3167 23.7232C62.2918 23.7307 61.8094 24.187 61.7876 24.1957C61.6658 24.256 61.5843 24.3717 61.4053 24.3437C61.3698 24.3381 61.3512 24.358 61.3307 24.3748C61.1541 24.5159 60.9427 24.6029 60.7425 24.7055C60.6418 24.7584 60.5604 24.8379 60.4684 24.902C60.4516 24.9144 60.4249 24.9119 60.4043 24.9181C60.3776 24.9256 60.3471 24.9275 60.3273 24.9443C60.1271 25.1183 59.8628 25.2141 59.6863 25.4161C59.6428 25.4572 59.3288 25.5473 59.2853 25.6057C59.2592 25.6356 59.0379 25.5939 59.0316 25.6399Z" fill="#231F20"/>
<path fill-rule="evenodd" clip-rule="evenodd" d="M50.9805 78.7686C50.9742 78.765 50.9661 78.7668 50.9619 78.7728C50.6345 79.2388 50.2461 79.7081 49.7302 80.074C49.5344 80.199 49.351 80.3488 49.1247 80.4272C48.7361 80.5882 48.2792 80.6292 47.8832 80.5664C47.4816 80.5055 47.1179 80.3687 46.7921 80.1922C46.5024 80.0367 46.2226 79.877 45.9565 79.7048C45.7881 79.5916 45.6152 79.4828 45.4592 79.3541C45.3094 79.2173 45.1831 79.0545 45.0781 78.876C45.014 78.7629 45.1322 78.6709 45.3224 78.6174C45.7499 78.5038 46.1543 78.7519 46.5305 78.9846C46.9482 79.243 47.3665 79.4601 47.7831 79.6208C48.1648 79.7582 48.5235 79.6532 48.8729 79.4598C49.254 79.2534 49.5928 78.9108 49.885 78.5049C50.0684 78.2581 50.2319 77.9833 50.3886 77.7041C50.6205 77.2752 50.8549 76.8325 51.0576 76.3749C51.2117 76.0187 51.3168 75.637 51.4853 75.2733C51.5232 75.1931 51.5518 75.1092 51.5959 75.0315C51.7775 74.7517 51.9236 74.7181 52.1853 74.8257C52.2419 74.8481 52.2972 74.8636 52.342 74.886C52.4775 74.9506 52.6062 75.2012 52.554 75.4182C52.4073 76.0691 52.1356 76.6771 51.8104 77.3205C51.5748 77.7943 51.3092 78.2779 50.9996 78.7639C50.9955 78.7703 50.9871 78.7724 50.9805 78.7686Z" fill="#231F20"/>
<path fill-rule="evenodd" clip-rule="evenodd" d="M42.5796 18.5917C42.6486 18.6893 42.5137 18.7782 42.2707 18.8596C42.1929 18.8857 41.9561 18.8895 41.9194 18.8627C41.8498 18.8105 41.7795 18.7583 41.7279 18.7048C41.6999 18.6706 41.5097 18.1459 41.4183 17.9737C41.3356 17.8052 41.2921 17.6355 41.256 17.4652C41.1839 17.1195 41.0776 16.7807 41.0173 16.4375C41.0018 16.3616 41.0036 16.2833 41.0173 16.2031C41.0677 15.9265 41.0204 15.6622 40.9315 15.4061C40.9166 15.3632 40.9154 15.3166 40.8532 15.2849C40.8291 15.2734 40.8015 15.2285 40.7739 15.1647C40.5709 14.6956 40.6698 14.168 40.7344 13.661C40.7388 13.6249 40.7121 13.5939 40.7655 13.5491C40.8899 13.444 40.8457 13.3787 40.8544 13.2998C40.8563 13.2722 40.8581 13.2445 40.8603 13.2166C40.8733 13.0497 40.9608 12.9069 41.0608 12.7726C41.1044 12.7142 41.2306 12.7079 41.2542 12.7185C41.312 12.7521 41.3711 12.698 41.4245 12.68C41.4432 12.6737 41.4674 12.6657 41.4848 12.6638C41.5136 12.6583 41.6641 12.7549 41.8162 12.8673C42.0683 13.0537 42.2305 13.3384 42.3565 13.6256C42.4534 13.8463 42.5591 14.0775 42.5865 14.1235C42.6444 14.2176 42.6067 14.3408 42.6419 14.4455C42.7133 14.6573 42.8312 15.008 42.8308 15.03C42.8376 15.1804 42.9129 15.3215 42.8053 15.4913C42.7848 15.5248 42.796 15.5534 42.8028 15.5833C42.8575 15.8357 42.8389 16.1005 42.8345 16.3604C42.832 16.4934 42.8619 16.6228 42.8625 16.7552C42.8631 16.7788 42.8451 16.8043 42.8376 16.8292C42.8283 16.8602 42.8128 16.892 42.8146 16.9218C42.8364 17.232 42.7767 17.5478 42.8233 17.8537C42.8333 17.9246 42.7015 18.2709 42.7183 18.3505C42.7264 18.3965 42.5504 18.5531 42.5796 18.5917Z" fill="#231F20"/>
<path fill-rule="evenodd" clip-rule="evenodd" d="M22.4504 19.6827C22.3179 19.6653 22.3857 19.4881 22.5797 19.2288C22.6412 19.1461 22.8781 18.9497 22.9291 18.941C23.0279 18.9229 23.1243 18.9062 23.2026 18.9043C23.2486 18.908 23.7006 19.148 23.8728 19.199C24.0332 19.2574 24.1638 19.3457 24.2893 19.4421L25.0882 19.9997C25.1479 20.0414 25.1976 20.0967 25.2424 20.1626C25.3916 20.3926 25.6055 20.5387 25.8411 20.6519C25.8803 20.6705 25.9132 20.7022 25.9766 20.6792C26.0767 20.6432 26.6885 21.0069 26.7506 21.0902C26.8986 21.2953 27.0696 21.4682 27.2325 21.6565C27.2561 21.6833 27.2977 21.6845 27.2928 21.7542C27.281 21.9152 27.3556 21.9313 27.4134 21.9773C27.4929 22.042 27.5694 22.1141 27.6316 22.208C27.6627 22.254 27.6627 22.3504 27.6708 22.4324C27.6788 22.507 27.5458 22.6811 27.5203 22.6935C27.4457 22.729 27.4246 22.8359 27.3817 22.9161C27.3674 22.9428 27.3481 22.9777 27.3338 22.9982C27.3008 23.0417 26.6157 23.0746 26.5623 23.0417C26.5561 23.0386 26.3565 22.9578 26.1439 22.8701C25.9312 22.7849 25.7074 22.6966 25.6577 22.6836C25.6061 22.6705 25.5794 22.6152 25.5458 22.5711C25.5315 22.5549 24.87 22.3 24.847 22.2795C24.7314 22.1906 24.5759 22.157 24.5231 21.9705C24.5132 21.9338 24.4839 21.9233 24.4584 21.9102C24.2334 21.7896 24.05 21.6056 23.8616 21.4303C23.764 21.342 23.6484 21.2761 23.5433 21.1965C23.5247 21.1822 23.5178 21.1524 23.5041 21.1312C23.4867 21.1051 23.4755 21.0697 23.4519 21.0523C23.2032 20.8614 23.0149 20.6015 22.7531 20.4194C22.6891 20.379 22.5561 20.0215 22.487 19.9749C22.4454 19.9481 22.502 19.6895 22.4504 19.6827Z" fill="#231F20"/>
</g>
<defs>
<filter id="filter0_d_16_1244" x="0" y="0.851562" width="94.0111" height="96.0112" filterUnits="userSpaceOnUse" color-interpolation-filters="sRGB">
<feFlood flood-opacity="0" result="BackgroundImageFix"/>
<feColorMatrix in="SourceAlpha" type="matrix" values="0 0 0 0 0 0 0 0 0 0 0 0 0 0 0 0 0 0 127 0" result="hardAlpha"/>
<feOffset dx="2" dy="4"/>
<feComposite in2="hardAlpha" operator="out"/>
<feColorMatrix type="matrix" values="0 0 0 0 0 0 0 0 0 0 0 0 0 0 0 0 0 0 1 0"/>
<feBlend mode="normal" in2="BackgroundImageFix" result="effect1_dropShadow_16_1244"/>
<feBlend mode="normal" in="SourceGraphic" in2="effect1_dropShadow_16_1244" result="shape"/>
</filter>
</defs>
</svg>
