<svg width="77" height="90" viewBox="0 0 77 90" fill="none" xmlns="http://www.w3.org/2000/svg">
<path d="M60.3123 14.3567C59.7245 13.4567 54.4704 12.7004 48.4493 12.5239C39.085 12.279 37.5036 12.6402 36.9489 14.5431C35.3623 19.3123 37.5631 20.3836 48.5088 20.2674C60.3783 19.9627 63.3684 18.5828 60.3123 14.3567Z" fill="black"/>
<path d="M42.8304 43.1021C31.2928 35.5065 27.7531 34.3812 28.0063 38.6403C28.1091 40.3706 32.0494 43.7428 39.8352 48.89C46.3676 53.1766 52.0462 56.5791 52.7117 56.5395C53.2441 56.5079 53.6894 55.0122 53.5866 53.2819C53.4442 50.8861 50.7572 48.3744 42.8304 43.1021Z" fill="black"/>
<path d="M28.5194 66.4307C22.4612 56.6395 15.2763 48.1174 13.8676 49.1361C11.4336 50.8836 12.8767 54.9385 19.1062 63.1166C22.4523 67.7262 26.0803 72.5862 27.1069 74.128C28.1335 75.6699 29.4105 76.9296 30.076 76.8901C32.8711 76.724 32.2107 72.3555 28.5194 66.4307Z" fill="black"/>
</svg>
