<svg width="210" height="85" viewBox="0 0 210 85" fill="none" xmlns="http://www.w3.org/2000/svg">
<path d="M0.5 0H102.354V85H0.5V0Z" fill="#91D1FF"/>
<path d="M128.123 33.476C125.743 33.476 123.851 32.8187 122.445 31.504C121.04 30.1667 120.337 28.2853 120.337 25.86V23.82H124.009V25.86C124.009 27.1293 124.349 28.1493 125.029 28.92C125.732 29.668 126.741 30.042 128.055 30.042C129.325 30.042 130.265 29.668 130.877 28.92C131.489 28.172 131.795 27.152 131.795 25.86V12.532H127.647V9.2H138.119V12.532H135.467V25.86C135.467 28.3307 134.821 30.2233 133.529 31.538C132.26 32.83 130.458 33.476 128.123 33.476ZM147.547 33.306C146.278 33.306 145.145 33.0227 144.147 32.456C143.15 31.8893 142.368 31.0847 141.801 30.042C141.235 28.9993 140.951 27.7527 140.951 26.302V16.238H144.453V26.064C144.453 27.5147 144.816 28.5913 145.541 29.294C146.267 29.974 147.275 30.314 148.567 30.314C149.995 30.314 151.14 29.838 152.001 28.886C152.885 27.9113 153.327 26.5173 153.327 24.704V16.238H156.829V33H153.395V30.484H152.851C152.534 31.164 151.967 31.81 151.151 32.422C150.335 33.0113 149.134 33.306 147.547 33.306ZM168.874 33.476C166.743 33.476 164.975 33 163.57 32.048C162.165 31.096 161.303 29.6567 160.986 27.73L164.25 26.948C164.431 27.8773 164.737 28.614 165.168 29.158C165.599 29.702 166.131 30.0873 166.766 30.314C167.423 30.5407 168.126 30.654 168.874 30.654C169.985 30.654 170.835 30.4387 171.424 30.008C172.036 29.5773 172.342 29.022 172.342 28.342C172.342 27.662 172.059 27.1633 171.492 26.846C170.925 26.5287 170.087 26.268 168.976 26.064L167.82 25.86C166.687 25.656 165.655 25.3613 164.726 24.976C163.797 24.5907 163.06 24.058 162.516 23.378C161.972 22.698 161.7 21.8253 161.7 20.76C161.7 19.1733 162.289 17.9493 163.468 17.088C164.647 16.204 166.211 15.762 168.16 15.762C170.041 15.762 171.583 16.1927 172.784 17.054C174.008 17.8927 174.801 19.0373 175.164 20.488L171.9 21.406C171.696 20.386 171.265 19.672 170.608 19.264C169.951 18.8333 169.135 18.618 168.16 18.618C167.208 18.618 166.46 18.7993 165.916 19.162C165.372 19.502 165.1 19.9893 165.1 20.624C165.1 21.304 165.361 21.8027 165.882 22.12C166.426 22.4373 167.151 22.6753 168.058 22.834L169.248 23.038C170.449 23.242 171.549 23.5253 172.546 23.888C173.543 24.2507 174.325 24.772 174.892 25.452C175.481 26.132 175.776 27.0387 175.776 28.172C175.776 29.8493 175.153 31.1527 173.906 32.082C172.659 33.0113 170.982 33.476 168.874 33.476ZM185.794 33C184.774 33 183.958 32.694 183.346 32.082C182.757 31.47 182.462 30.654 182.462 29.634V19.196H177.838V16.238H182.462V10.696H185.964V16.238H190.962V19.196H185.964V29.022C185.964 29.702 186.281 30.042 186.916 30.042H190.418V33H185.794ZM124.7 76L121.198 52.2H124.87L127.726 73.518H128.27L131.942 52.2H138.368L142.04 73.518H142.584L145.406 52.2H149.078L145.576 76H139.15L135.41 54.376H134.866L131.16 76H124.7ZM160.161 76.476C158.461 76.476 156.976 76.1247 155.707 75.422C154.437 74.6967 153.44 73.688 152.715 72.396C152.012 71.0813 151.661 69.5627 151.661 67.84V67.432C151.661 65.6867 152.012 64.168 152.715 62.876C153.417 61.5613 154.392 60.5527 155.639 59.85C156.908 59.1247 158.37 58.762 160.025 58.762C161.634 58.762 163.039 59.1247 164.241 59.85C165.465 60.5527 166.417 61.5387 167.097 62.808C167.777 64.0773 168.117 65.562 168.117 67.262V68.588H155.231C155.276 70.0613 155.763 71.24 156.693 72.124C157.645 72.9853 158.823 73.416 160.229 73.416C161.543 73.416 162.529 73.1213 163.187 72.532C163.867 71.9427 164.388 71.2627 164.751 70.492L167.641 71.988C167.323 72.6227 166.859 73.2913 166.247 73.994C165.657 74.6967 164.875 75.286 163.901 75.762C162.926 76.238 161.679 76.476 160.161 76.476ZM155.265 65.902H164.547C164.456 64.6327 164.003 63.6467 163.187 62.944C162.371 62.2187 161.305 61.856 159.991 61.856C158.676 61.856 157.599 62.2187 156.761 62.944C155.945 63.6467 155.446 64.6327 155.265 65.902ZM182.022 76.476C180.39 76.476 179.132 76.1813 178.248 75.592C177.387 75.0027 176.741 74.3453 176.31 73.62H175.766V76H172.332V52.2H175.834V61.516H176.378C176.65 61.0627 177.013 60.632 177.466 60.224C177.92 59.7933 178.52 59.442 179.268 59.17C180.016 58.898 180.934 58.762 182.022 58.762C183.428 58.762 184.72 59.102 185.898 59.782C187.077 60.462 188.018 61.448 188.72 62.74C189.423 64.032 189.774 65.5733 189.774 67.364V67.874C189.774 69.6873 189.412 71.24 188.686 72.532C187.984 73.8013 187.043 74.776 185.864 75.456C184.708 76.136 183.428 76.476 182.022 76.476ZM181.002 73.416C182.521 73.416 183.768 72.9287 184.742 71.954C185.74 70.9793 186.238 69.5853 186.238 67.772V67.466C186.238 65.6753 185.751 64.2927 184.776 63.318C183.802 62.3433 182.544 61.856 181.002 61.856C179.506 61.856 178.26 62.3433 177.262 63.318C176.288 64.2927 175.8 65.6753 175.8 67.466V67.772C175.8 69.5853 176.288 70.9793 177.262 71.954C178.26 72.9287 179.506 73.416 181.002 73.416Z" fill="white"/>
<path d="M24.943 60.7C21.343 60.7 18.4764 59.7167 16.343 57.75C14.243 55.7833 13.193 53.0333 13.193 49.5V46.2H19.793V49.5C19.793 51.0667 20.2264 52.3 21.093 53.2C21.9597 54.0667 23.1764 54.5 24.743 54.5C26.2097 54.5 27.343 54.0667 28.143 53.2C28.9764 52.3333 29.393 51.1 29.393 49.5V31H23.393V25H39.993V31H35.993V49.5C35.993 53.1333 35.0097 55.9167 33.043 57.85C31.0764 59.75 28.3764 60.7 24.943 60.7ZM48.2106 60L43.6106 25H50.1606L53.5606 55.4H54.4606L58.8606 25H70.2606L74.6606 55.4H75.5606L78.9606 25H85.5106L80.9106 60H69.5106L65.0106 28.9H64.1106L59.6106 60H48.2106Z" fill="black"/>
</svg>
