<svg width="310" height="184" viewBox="0 0 310 184" fill="none" xmlns="http://www.w3.org/2000/svg">
<g clip-path="url(#clip0_14_1026)">
<g filter="url(#filter0_d_14_1026)">
<path d="M176.914 75.0781L177.237 76.0056C191.919 73.8445 212.817 77.0024 229.94 85.7571L230.167 85.3119L229.94 85.7571C240.093 90.9483 248.878 98.0698 254.307 107.133C259.728 116.183 261.825 127.202 258.557 140.252L258.556 140.253C258.471 140.594 258.124 140.804 257.781 140.719C257.439 140.633 257.229 140.284 257.315 139.94C260.495 127.239 258.424 116.475 253.077 107.628C247.738 98.7955 239.155 91.9077 229.355 86.8975C219.466 81.8418 208.306 78.6636 197.854 77.3307C187.41 75.9987 177.631 76.5039 170.517 78.8547L170.516 78.8548C170.173 78.9685 169.981 78.8908 169.87 78.8153C169.732 78.7228 169.655 78.5884 169.636 78.5491L169.635 78.5485C169.602 78.4812 169.553 78.3621 169.555 78.2271C169.556 78.113 169.592 77.9477 169.8 77.7557L169.8 77.7558C169.8 77.7558 169.807 77.7493 169.826 77.7351C169.846 77.7201 169.873 77.7009 169.907 77.6771C169.976 77.6293 170.069 77.569 170.183 77.4967C170.411 77.3522 170.715 77.1674 171.076 76.9528C171.796 76.524 172.73 75.9833 173.704 75.4234C174.36 75.0467 175.035 74.6607 175.675 74.2949C176.932 73.5768 178.053 72.936 178.627 72.5935C179.3 72.1928 180.26 71.6926 181.408 71.0966L181.516 71.0404C182.633 70.4607 183.91 69.7978 185.233 69.0653C187.96 67.5564 190.919 65.7345 193.124 63.6985C194.372 62.5484 195.433 61.2944 195.943 59.9495C196.466 58.5704 196.398 57.1185 195.431 55.6617C194.456 54.1905 192.964 53.3674 191.189 52.9926C189.423 52.6198 187.351 52.6832 185.149 52.9982L185.149 52.9982C179.506 53.8062 172.803 56.4305 167.032 59.3212C161.269 62.208 156.355 65.4011 154.309 67.39L154.309 67.3903C154.054 67.6378 153.65 67.6314 153.404 67.3791L153.404 67.379C153.157 67.1254 153.162 66.7208 153.417 66.4724C155.432 64.5121 160.435 61.2352 166.413 58.2326C172.384 55.2339 179.248 52.5495 184.967 51.7309C190.306 50.9666 194.477 51.9043 196.498 54.9524C197.622 56.6471 197.798 58.2953 197.318 59.8887C196.831 61.5076 195.653 63.1095 193.992 64.6405L193.992 64.6406C191.818 66.6468 188.87 68.481 186.087 70.0331C184.723 70.7943 183.406 71.4835 182.247 72.0899L182.187 72.1211C181.02 72.7318 180.006 73.2633 179.285 73.6933C178.822 73.9679 177.941 74.4842 176.914 75.0781Z" fill="black" stroke="black"/>
<path d="M258.235 140.243L257.633 138.958C257.372 138.402 257.117 137.848 256.863 137.295C255.995 135.409 255.138 133.547 254.118 131.749L254.118 131.749C250.605 125.551 245.648 119.868 239.645 116.04C239.344 115.85 238.949 115.939 238.758 116.235C238.568 116.536 238.657 116.931 238.954 117.121C244.813 120.852 249.607 126.389 253.003 132.38L253.003 132.381C254.031 134.197 254.905 136.098 255.769 137.979C256.191 138.899 256.612 139.813 257.047 140.711C257.062 140.741 257.097 140.818 257.144 140.919C257.215 141.072 257.313 141.283 257.406 141.476C257.489 141.649 257.574 141.821 257.648 141.961C257.686 142.031 257.718 142.09 257.745 142.136C257.77 142.178 257.783 142.196 257.786 142.201C257.787 142.201 257.787 142.202 257.787 142.201L257.789 142.204C257.931 142.378 258.067 142.437 258.17 142.459C258.284 142.483 258.392 142.469 258.468 142.45L258.474 142.449L258.474 142.449C258.589 142.423 258.725 142.365 258.863 142.224C258.963 142.119 259.182 141.779 259.385 141.18L259.386 141.178C259.721 140.199 260.123 138.485 260.475 136.889C260.582 136.404 260.685 135.927 260.78 135.487C260.991 134.512 261.162 133.72 261.249 133.429C261.249 133.429 261.249 133.429 261.249 133.429L261.728 133.573C264.15 125.53 267.613 118.34 271.202 110.887C271.686 109.883 272.171 108.876 272.656 107.86L258.235 140.243ZM258.235 140.243L258.571 138.864C259.112 136.644 259.863 133.589 260.024 133.06L260.025 133.058C262.478 124.906 265.987 117.617 269.646 110.013C270.113 109.045 270.581 108.071 271.051 107.09C271.204 106.77 271.586 106.636 271.903 106.788C272.22 106.94 272.357 107.324 272.205 107.645L258.235 140.243Z" fill="black" stroke="black"/>
</g>
</g>
<path d="M26.5479 61.4031C25.6713 62.8024 26.9271 66.8122 28.7001 68.2897C30.0602 69.3947 31.0665 68.888 31.3315 66.948C31.6359 64.9033 30.1377 62.0006 28.4323 61.2711C27.1328 60.7009 26.9764 60.7296 26.5479 61.4031Z" fill="black"/>
<path d="M14.8404 62.3338C13.9637 63.733 15.2196 67.7429 16.9926 69.2204C18.3527 70.3254 19.359 69.8186 19.624 67.8786C19.9284 65.8339 18.4302 62.9313 16.7248 62.2018C15.4253 61.6315 15.2688 61.6603 14.8404 62.3338Z" fill="black"/>
<path d="M9.88193 73.7075C10.2414 75.9226 14.3541 80.0018 18.0101 81.7375C19.1376 82.3003 21.0826 82.7031 22.8021 82.7769C25.5025 82.8751 25.8859 82.7851 29.3741 81.1786C32.7215 79.637 33.2387 79.2689 34.844 77.4042C36.889 74.9907 38.8424 69.8058 38.2223 68.3601C37.6796 67.095 36.8918 67.7176 35.3133 70.8252C33.5656 74.2272 32.5918 75.4981 30.558 76.9541C28.6144 78.3254 24.9796 79.3934 22.6935 79.2776C19.9776 79.1433 14.8713 76.3874 12.0947 73.5541C10.6811 72.1275 9.64514 72.1717 9.88193 73.7075Z" fill="black"/>
<g filter="url(#filter1_d_14_1026)">
<path d="M62.6676 72.9576C60.7514 73.787 58.999 73.924 57.4104 73.3687C55.8395 72.8057 54.647 71.5838 53.833 69.7031L53.0727 67.9466L56.5858 66.426L57.346 68.1825C57.707 69.0164 58.2218 69.5731 58.8904 69.8525C59.5514 70.1141 60.2989 70.0645 61.1328 69.7035C61.9134 69.3656 62.4169 68.8739 62.643 68.2283C62.8869 67.575 62.8245 66.8225 62.4559 65.9708L58.1938 56.1237L55.0001 57.506L53.6178 54.3123L62.4537 50.4879L63.836 53.6816L61.7068 54.6031L65.969 64.4503C66.8061 66.3842 66.9239 68.0923 66.3225 69.5745C65.7134 71.0389 64.4951 72.1666 62.6676 72.9576ZM80.7479 65.1319C79.222 65.7924 77.79 66.0857 76.4519 66.0118C75.1239 65.9125 73.9444 65.475 72.9135 64.6993C71.8926 63.8982 71.075 62.788 70.4606 61.3686L65.2309 49.2858L68.7439 47.7653L74.0198 59.9545C74.5112 61.09 75.2184 61.8478 76.1413 62.2278C77.0819 62.6002 78.1644 62.5214 79.3886 61.9915C80.6129 61.4616 81.4023 60.7302 81.7569 59.7973C82.1292 58.8566 82.0696 57.8186 81.5781 56.683L76.3023 44.4938L79.8153 42.9733L85.0451 55.056C85.6595 56.4754 85.9004 57.8353 85.768 59.1355C85.6457 60.4103 85.1573 61.5697 84.303 62.6136C83.4588 63.6321 82.2738 64.4715 80.7479 65.1319ZM97.9106 57.7034C96.4734 58.3255 95.0935 58.6173 93.7707 58.5789C92.448 58.5405 91.2688 58.1766 90.2331 57.4873C89.1974 56.798 88.3877 55.7791 87.8041 54.4307L87.4815 53.6855L90.9414 52.188L91.2639 52.9332C91.7477 54.0509 92.4585 54.744 93.3962 55.0122C94.3262 55.2628 95.3856 55.1307 96.5744 54.6162C97.7809 54.094 98.5732 53.4667 98.9514 52.7342C99.3473 51.994 99.3839 51.2514 99.0614 50.5062C98.8387 49.9916 98.5074 49.64 98.0676 49.4511C97.6454 49.2546 97.1083 49.1817 96.456 49.2323C95.8138 49.2574 95.0551 49.3541 94.1799 49.5222L93.5102 49.6541C92.1099 49.9231 90.8562 50.0444 89.7493 50.0179C88.6524 49.966 87.702 49.6927 86.898 49.198C86.1118 48.6957 85.4729 47.8767 84.9815 46.7412C84.49 45.6057 84.3376 44.5235 84.5243 43.4947C84.721 42.4405 85.2152 41.4892 86.0067 40.6411C86.8083 39.7674 87.8745 39.0426 89.2052 38.4667C90.5359 37.8907 91.8156 37.6107 93.0444 37.6266C94.2832 37.617 95.3911 37.938 96.3683 38.5895C97.3555 39.2155 98.141 40.2027 98.7246 41.5512L99.0702 42.3496L95.6104 43.8471L95.2648 43.0487C94.9576 42.339 94.5699 41.8326 94.1017 41.5297C93.6436 41.2013 93.115 41.0509 92.516 41.0784C91.9093 41.0882 91.2511 41.2467 90.5414 41.5539C89.4769 42.0147 88.7756 42.5604 88.4377 43.1912C88.1099 43.7966 88.0957 44.4453 88.3952 45.1372C88.5949 45.5985 88.8791 45.939 89.248 46.1585C89.6347 46.3704 90.1136 46.4791 90.6848 46.4846C91.256 46.4902 91.9488 46.4115 92.7631 46.2487L93.4328 46.1168C94.8864 45.8247 96.1971 45.6893 97.3649 45.7105C98.5505 45.724 99.5757 45.9754 100.441 46.4648C101.305 46.9542 101.984 47.7667 102.475 48.9022C102.967 50.0377 103.108 51.1669 102.899 52.2897C102.699 53.3871 102.175 54.4146 101.326 55.3722C100.486 56.3043 99.3478 57.0814 97.9106 57.7034ZM111.136 51.5368L104.455 36.1007L99.0253 38.4506L97.643 35.2569L112.015 29.0365L113.397 32.2302L107.968 34.5802L114.649 50.0163L111.136 51.5368ZM129.757 43.4772L119.245 25.9072L122.731 24.3981L131.545 39.7961L132.024 39.5888L127.362 22.3938L133.43 19.7674L142.776 34.935L143.255 34.7277L138.061 17.763L141.547 16.254L147.162 35.9436L141.094 38.57L131.534 23.0528L131.055 23.2601L135.825 40.8508L129.757 43.4772ZM152.177 33.7729L144.114 15.1431L156.09 9.95942L157.472 13.1531L149.009 16.8162L150.933 21.2608L158.651 17.9202L160.033 21.1139L152.315 24.4545L154.308 29.0587L162.931 25.3264L164.313 28.5201L152.177 33.7729ZM166.381 27.6249L165.045 24.5377L167.494 23.4779L162.103 11.0226L159.654 12.0824L158.318 8.99513L167.899 4.84819C169.035 4.3567 170.104 4.12565 171.107 4.15505C172.12 4.15903 173.01 4.41604 173.779 4.92608C174.557 5.4107 175.158 6.14093 175.58 7.11678L175.695 7.38292C176.064 8.23457 176.208 9.00452 176.126 9.69277C176.037 10.3633 175.836 10.9453 175.523 11.439C175.22 11.9072 174.901 12.2878 174.564 12.581L174.771 13.06C175.208 12.9975 175.722 13.0173 176.314 13.1192C176.898 13.2034 177.469 13.4514 178.026 13.8632C178.601 14.2673 179.081 14.913 179.465 15.8001L179.58 16.0662C180.025 17.0953 180.17 18.0861 180.013 19.0387C179.849 19.9735 179.426 20.8203 178.743 21.5793C178.078 22.3306 177.187 22.9481 176.069 23.4319L166.381 27.6249ZM170.961 21.8509L174.261 20.4226C175.024 20.0923 175.555 19.6411 175.855 19.0688C176.173 18.4889 176.182 17.8529 175.883 17.161L175.768 16.8948C175.468 16.2029 175.007 15.7704 174.384 15.5975C173.762 15.4246 173.06 15.507 172.28 15.8449L168.979 17.2733L170.961 21.8509ZM167.597 14.0796L170.844 12.6743C171.571 12.3594 172.085 11.9159 172.385 11.3436C172.703 10.7637 172.72 10.1455 172.436 9.48897L172.32 9.22283C172.029 8.54861 171.575 8.13391 170.96 7.97872C170.338 7.80579 169.654 7.8806 168.909 8.20314L165.662 9.60849L167.597 14.0796Z" fill="black"/>
</g>
<defs>
<filter id="filter0_d_14_1026" x="151.722" y="50.9785" width="121.045" height="95.993" filterUnits="userSpaceOnUse" color-interpolation-filters="sRGB">
<feFlood flood-opacity="0" result="BackgroundImageFix"/>
<feColorMatrix in="SourceAlpha" type="matrix" values="0 0 0 0 0 0 0 0 0 0 0 0 0 0 0 0 0 0 127 0" result="hardAlpha"/>
<feOffset dx="-1" dy="4"/>
<feComposite in2="hardAlpha" operator="out"/>
<feColorMatrix type="matrix" values="0 0 0 0 0 0 0 0 0 0 0 0 0 0 0 0 0 0 1 0"/>
<feBlend mode="normal" in2="BackgroundImageFix" result="effect1_dropShadow_14_1026"/>
<feBlend mode="normal" in="SourceGraphic" in2="effect1_dropShadow_14_1026" result="shape"/>
</filter>
<filter id="filter1_d_14_1026" x="48.0273" y="1.98743" width="133.845" height="77.6772" filterUnits="userSpaceOnUse" color-interpolation-filters="sRGB">
<feFlood flood-opacity="0" result="BackgroundImageFix"/>
<feColorMatrix in="SourceAlpha" type="matrix" values="0 0 0 0 0 0 0 0 0 0 0 0 0 0 0 0 0 0 127 0" result="hardAlpha"/>
<feOffset dy="4"/>
<feComposite in2="hardAlpha" operator="out"/>
<feColorMatrix type="matrix" values="0 0 0 0 0.906944 0 0 0 0 0.906944 0 0 0 0 0.906944 0 0 0 0.32 0"/>
<feBlend mode="normal" in2="BackgroundImageFix" result="effect1_dropShadow_14_1026"/>
<feBlend mode="normal" in="SourceGraphic" in2="effect1_dropShadow_14_1026" result="shape"/>
</filter>
<clipPath id="clip0_14_1026">
<rect width="130" height="130" fill="white" transform="translate(213.916) rotate(42.6258)"/>
</clipPath>
</defs>
</svg>
