<svg width="209" height="85" viewBox="0 0 209 85" fill="none" xmlns="http://www.w3.org/2000/svg">
<path d="M0 0H101.854V85H0V0Z" fill="#91D1FF"/>
<path d="M127.623 33.476C125.243 33.476 123.351 32.8187 121.945 31.504C120.54 30.1667 119.837 28.2853 119.837 25.86V23.82H123.509V25.86C123.509 27.1293 123.849 28.1493 124.529 28.92C125.232 29.668 126.241 30.042 127.555 30.042C128.825 30.042 129.765 29.668 130.377 28.92C130.989 28.172 131.295 27.152 131.295 25.86V12.532H127.147V9.2H137.619V12.532H134.967V25.86C134.967 28.3307 134.321 30.2233 133.029 31.538C131.76 32.83 129.958 33.476 127.623 33.476ZM147.047 33.306C145.778 33.306 144.645 33.0227 143.647 32.456C142.65 31.8893 141.868 31.0847 141.301 30.042C140.735 28.9993 140.451 27.7527 140.451 26.302V16.238H143.953V26.064C143.953 27.5147 144.316 28.5913 145.041 29.294C145.767 29.974 146.775 30.314 148.067 30.314C149.495 30.314 150.64 29.838 151.501 28.886C152.385 27.9113 152.827 26.5173 152.827 24.704V16.238H156.329V33H152.895V30.484H152.351C152.034 31.164 151.467 31.81 150.651 32.422C149.835 33.0113 148.634 33.306 147.047 33.306ZM168.374 33.476C166.243 33.476 164.475 33 163.07 32.048C161.665 31.096 160.803 29.6567 160.486 27.73L163.75 26.948C163.931 27.8773 164.237 28.614 164.668 29.158C165.099 29.702 165.631 30.0873 166.266 30.314C166.923 30.5407 167.626 30.654 168.374 30.654C169.485 30.654 170.335 30.4387 170.924 30.008C171.536 29.5773 171.842 29.022 171.842 28.342C171.842 27.662 171.559 27.1633 170.992 26.846C170.425 26.5287 169.587 26.268 168.476 26.064L167.32 25.86C166.187 25.656 165.155 25.3613 164.226 24.976C163.297 24.5907 162.56 24.058 162.016 23.378C161.472 22.698 161.2 21.8253 161.2 20.76C161.2 19.1733 161.789 17.9493 162.968 17.088C164.147 16.204 165.711 15.762 167.66 15.762C169.541 15.762 171.083 16.1927 172.284 17.054C173.508 17.8927 174.301 19.0373 174.664 20.488L171.4 21.406C171.196 20.386 170.765 19.672 170.108 19.264C169.451 18.8333 168.635 18.618 167.66 18.618C166.708 18.618 165.96 18.7993 165.416 19.162C164.872 19.502 164.6 19.9893 164.6 20.624C164.6 21.304 164.861 21.8027 165.382 22.12C165.926 22.4373 166.651 22.6753 167.558 22.834L168.748 23.038C169.949 23.242 171.049 23.5253 172.046 23.888C173.043 24.2507 173.825 24.772 174.392 25.452C174.981 26.132 175.276 27.0387 175.276 28.172C175.276 29.8493 174.653 31.1527 173.406 32.082C172.159 33.0113 170.482 33.476 168.374 33.476ZM185.294 33C184.274 33 183.458 32.694 182.846 32.082C182.257 31.47 181.962 30.654 181.962 29.634V19.196H177.338V16.238H181.962V10.696H185.464V16.238H190.462V19.196H185.464V29.022C185.464 29.702 185.781 30.042 186.416 30.042H189.918V33H185.294ZM124.2 76L120.698 52.2H124.37L127.226 73.518H127.77L131.442 52.2H137.868L141.54 73.518H142.084L144.906 52.2H148.578L145.076 76H138.65L134.91 54.376H134.366L130.66 76H124.2ZM159.661 76.476C157.961 76.476 156.476 76.1247 155.207 75.422C153.937 74.6967 152.94 73.688 152.215 72.396C151.512 71.0813 151.161 69.5627 151.161 67.84V67.432C151.161 65.6867 151.512 64.168 152.215 62.876C152.917 61.5613 153.892 60.5527 155.139 59.85C156.408 59.1247 157.87 58.762 159.525 58.762C161.134 58.762 162.539 59.1247 163.741 59.85C164.965 60.5527 165.917 61.5387 166.597 62.808C167.277 64.0773 167.617 65.562 167.617 67.262V68.588H154.731C154.776 70.0613 155.263 71.24 156.193 72.124C157.145 72.9853 158.323 73.416 159.729 73.416C161.043 73.416 162.029 73.1213 162.687 72.532C163.367 71.9427 163.888 71.2627 164.251 70.492L167.141 71.988C166.823 72.6227 166.359 73.2913 165.747 73.994C165.157 74.6967 164.375 75.286 163.401 75.762C162.426 76.238 161.179 76.476 159.661 76.476ZM154.765 65.902H164.047C163.956 64.6327 163.503 63.6467 162.687 62.944C161.871 62.2187 160.805 61.856 159.491 61.856C158.176 61.856 157.099 62.2187 156.261 62.944C155.445 63.6467 154.946 64.6327 154.765 65.902ZM181.522 76.476C179.89 76.476 178.632 76.1813 177.748 75.592C176.887 75.0027 176.241 74.3453 175.81 73.62H175.266V76H171.832V52.2H175.334V61.516H175.878C176.15 61.0627 176.513 60.632 176.966 60.224C177.42 59.7933 178.02 59.442 178.768 59.17C179.516 58.898 180.434 58.762 181.522 58.762C182.928 58.762 184.22 59.102 185.398 59.782C186.577 60.462 187.518 61.448 188.22 62.74C188.923 64.032 189.274 65.5733 189.274 67.364V67.874C189.274 69.6873 188.912 71.24 188.186 72.532C187.484 73.8013 186.543 74.776 185.364 75.456C184.208 76.136 182.928 76.476 181.522 76.476ZM180.502 73.416C182.021 73.416 183.268 72.9287 184.242 71.954C185.24 70.9793 185.738 69.5853 185.738 67.772V67.466C185.738 65.6753 185.251 64.2927 184.276 63.318C183.302 62.3433 182.044 61.856 180.502 61.856C179.006 61.856 177.76 62.3433 176.762 63.318C175.788 64.2927 175.3 65.6753 175.3 67.466V67.772C175.3 69.5853 175.788 70.9793 176.762 71.954C177.76 72.9287 179.006 73.416 180.502 73.416Z" fill="black"/>
<path d="M24.443 60.7C20.843 60.7 17.9764 59.7167 15.843 57.75C13.743 55.7833 12.693 53.0333 12.693 49.5V46.2H19.293V49.5C19.293 51.0667 19.7264 52.3 20.593 53.2C21.4597 54.0667 22.6764 54.5 24.243 54.5C25.7097 54.5 26.843 54.0667 27.643 53.2C28.4764 52.3333 28.893 51.1 28.893 49.5V31H22.893V25H39.493V31H35.493V49.5C35.493 53.1333 34.5097 55.9167 32.543 57.85C30.5764 59.75 27.8764 60.7 24.443 60.7ZM47.7106 60L43.1106 25H49.6606L53.0606 55.4H53.9606L58.3606 25H69.7606L74.1606 55.4H75.0606L78.4606 25H85.0106L80.4106 60H69.0106L64.5106 28.9H63.6106L59.1106 60H47.7106Z" fill="white"/>
</svg>
