<svg width="307" height="434" viewBox="0 0 307 434" fill="none" xmlns="http://www.w3.org/2000/svg">
<g filter="url(#filter0_d_16_1214)">
<rect width="327.22" height="316.346" transform="translate(293.682) rotate(68.1805)" fill="#BAE6FF"/>
<path d="M237.306 46.593C237.229 53.209 242.01 59.4464 245.056 56.5858C247.428 54.4329 245.305 45.0069 241.808 42.344C239.219 40.2535 237.405 41.9614 237.306 46.593Z" fill="#0C0C0C"/>
<path d="M256.778 36.009C255.418 39.0506 259.179 46.7836 263.229 49.2911C266.327 51.1575 268.219 49.8762 268.173 45.9073C268.176 41.7174 264.255 36.2734 260.569 35.2519C257.755 34.4447 257.446 34.5434 256.778 36.009Z" fill="#0C0C0C"/>
<path d="M226.615 65.0952C228.014 69.4544 237.603 76.5814 245.558 79.1165C248.02 79.9537 252.095 80.2559 255.612 79.9555C261.131 79.4481 261.883 79.1672 268.489 75.0275C274.829 71.055 275.769 70.1801 278.47 66.0126C281.899 60.6272 284.307 49.6948 282.611 46.9502C281.126 44.5488 279.713 46.0058 277.441 52.6648C274.914 59.9596 273.317 62.7687 269.622 66.2264C266.085 69.4901 259.018 72.5856 254.336 72.9493C248.775 73.3881 237.565 69.1805 231.067 64.2095C227.763 61.7105 225.671 62.0698 226.615 65.0952Z" fill="#0C0C0C"/>
<path d="M39.1533 146.343C37.6858 146.939 36.3545 147.013 35.1593 146.564C33.9778 146.11 33.0947 145.163 32.5099 143.722L31.9638 142.377L34.6543 141.284L35.2004 142.629C35.4597 143.268 35.8404 143.699 36.3427 143.923C36.8394 144.132 37.4071 144.108 38.0458 143.848C38.6436 143.605 39.0339 143.241 39.2166 142.755C39.4129 142.264 39.3786 141.692 39.1139 141.04L36.0522 133.498L33.6063 134.491L32.6134 132.045L39.3804 129.296L40.3733 131.742L38.7427 132.405L41.8044 139.947C42.4056 141.428 42.4654 142.726 41.9837 143.84C41.4964 144.94 40.5529 145.774 39.1533 146.343ZM50.6845 141.516C49.8964 141.836 49.1316 141.941 48.3903 141.831C47.6571 141.701 46.9978 141.383 46.4124 140.877C45.827 140.371 45.366 139.703 45.0295 138.874L42.5802 132.84L45.1484 131.797L47.515 137.627C47.8239 138.388 48.239 138.884 48.7604 139.116C49.2953 139.342 49.9093 139.314 50.6023 139.033C51.3904 138.712 51.8971 138.206 52.1223 137.513C52.342 136.806 52.2615 135.984 51.8808 135.046L49.7956 129.909L52.3638 128.866L56.4681 138.977L53.9406 140.004L53.4028 138.679L53.0359 138.828C53.0107 139.234 52.8402 139.691 52.5241 140.199C52.2081 140.707 51.5949 141.146 50.6845 141.516ZM63.6406 136.396C62.3225 136.931 61.1264 137.085 60.0522 136.856C58.978 136.628 58.1375 136.019 57.5306 135.031L59.6467 133.459C59.9349 133.896 60.2429 134.206 60.5706 134.39C60.9119 134.568 61.2705 134.652 61.6462 134.641C62.0301 134.612 62.419 134.517 62.8131 134.357C63.411 134.114 63.8112 133.833 64.0138 133.513C64.2109 133.18 64.246 132.857 64.1192 132.545C63.9923 132.232 63.7599 132.049 63.4219 131.997C63.0784 131.93 62.5857 131.964 61.9436 132.098L61.3316 132.228C60.5698 132.38 59.8499 132.458 59.1718 132.465C58.4882 132.457 57.8843 132.315 57.36 132.037C56.8356 131.759 56.4383 131.287 56.168 130.622C55.7598 129.616 55.815 128.699 56.3336 127.871C56.8468 127.029 57.7012 126.366 58.897 125.88C60.0248 125.422 61.0645 125.292 62.0159 125.492C62.9674 125.691 63.7241 126.151 64.2861 126.873L62.1993 128.575C61.8809 128.103 61.5078 127.827 61.0798 127.748C60.6654 127.663 60.2136 127.72 59.7244 127.918C59.2353 128.117 58.8974 128.357 58.711 128.639C58.519 128.907 58.4837 129.19 58.6051 129.489C58.7374 129.815 58.9726 130.005 59.3106 130.057C59.643 130.096 60.0568 130.063 60.5519 129.957L61.164 129.827C61.9801 129.654 62.7408 129.558 63.4461 129.541C64.1594 129.505 64.7782 129.625 65.3025 129.903C65.8349 130.162 66.2445 130.644 66.5314 131.351C66.9616 132.411 66.9081 133.39 66.3708 134.289C65.8415 135.169 64.9315 135.871 63.6406 136.396ZM73.6884 131.982C73.0226 132.252 72.3963 132.269 71.8096 132.033C71.2309 131.777 70.8009 131.303 70.5196 130.609L68.2027 124.902L65.6752 125.928L64.8147 123.808L67.3421 122.782L66.0678 119.643L68.636 118.599L69.9103 121.739L72.6823 120.613L73.5429 122.733L70.7709 123.859L72.9058 129.118C73.0712 129.525 73.3442 129.652 73.7247 129.497L75.6814 128.703L76.542 130.823L73.6884 131.982ZM80.1712 129.348L72.5037 115.841L75.1738 114.756L81.5909 126.587L81.9577 126.438L78.7204 113.316L83.3676 111.428L90.1923 123.093L90.5592 122.944L86.9142 109.987L89.5843 108.903L93.5014 123.934L88.8542 125.821L81.8729 113.887L81.506 114.036L84.8184 127.461L80.1712 129.348ZM102.027 120.803C101.021 121.211 100.046 121.362 99.1 121.256C98.1625 121.13 97.3191 120.768 96.5699 120.17C95.8287 119.553 95.2429 118.714 94.8127 117.654L94.7134 117.41C94.2831 116.35 94.1213 115.347 94.2281 114.401C94.3294 113.442 94.675 112.597 95.265 111.867C95.8494 111.123 96.6444 110.546 97.6499 110.138C98.6419 109.735 99.5957 109.609 100.512 109.759C101.422 109.896 102.241 110.276 102.968 110.898C103.69 111.507 104.261 112.328 104.68 113.361L105.036 114.238L97.6781 117.227C97.9867 117.909 98.4738 118.368 99.1395 118.604C99.8052 118.84 100.491 118.815 101.198 118.527C101.918 118.235 102.385 117.863 102.597 117.413C102.81 116.962 102.928 116.511 102.95 116.059L105.496 116.307C105.449 116.737 105.328 117.238 105.132 117.808C104.944 118.359 104.612 118.906 104.136 119.448C103.654 119.976 102.951 120.428 102.027 120.803ZM96.9207 115.302L101.649 113.381C101.358 112.819 100.93 112.447 100.365 112.264C99.814 112.077 99.2056 112.118 98.5397 112.389C97.8467 112.67 97.3681 113.07 97.1039 113.589C96.8397 114.108 96.7786 114.679 96.9207 115.302ZM115.258 115.428C114.347 115.798 113.584 115.926 112.968 115.812C112.352 115.698 111.851 115.498 111.466 115.211L111.099 115.36L111.595 116.583L109.068 117.61L103.276 103.341L105.844 102.298L108.004 107.618L108.371 107.469C108.421 107.164 108.524 106.853 108.68 106.536C108.85 106.214 109.111 105.902 109.464 105.6C109.824 105.28 110.31 104.995 110.922 104.747C111.737 104.416 112.574 104.313 113.433 104.439C114.286 104.552 115.08 104.91 115.816 105.513C116.551 106.117 117.143 106.969 117.589 108.07L117.722 108.396C118.169 109.497 118.339 110.52 118.232 111.466C118.125 112.411 117.808 113.229 117.28 113.918C116.747 114.594 116.073 115.097 115.258 115.428ZM113.573 113.501C114.361 113.18 114.918 112.661 115.244 111.943C115.564 111.211 115.526 110.356 115.129 109.378L115.046 109.174C114.649 108.196 114.083 107.563 113.349 107.275C112.623 106.968 111.859 106.978 111.058 107.304C110.27 107.624 109.715 108.15 109.395 108.881C109.069 109.599 109.105 110.448 109.502 111.426L109.585 111.63C109.982 112.608 110.55 113.248 111.29 113.549C112.024 113.837 112.785 113.821 113.573 113.501ZM123.792 111.962C123.248 112.182 122.715 112.193 122.191 111.995C121.675 111.777 121.301 111.382 121.07 110.812C120.838 110.241 120.834 109.704 121.057 109.202C121.289 108.68 121.676 108.309 122.22 108.088C122.777 107.862 123.313 107.858 123.829 108.076C124.34 108.28 124.711 108.668 124.942 109.238C125.174 109.809 125.181 110.353 124.963 110.869C124.739 111.371 124.349 111.735 123.792 111.962ZM121.028 105.153C120.485 105.374 119.951 105.385 119.427 105.186C118.911 104.968 118.537 104.574 118.306 104.003C118.074 103.432 118.07 102.896 118.293 102.393C118.525 101.872 118.912 101.501 119.456 101.28C120.013 101.054 120.55 101.05 121.065 101.267C121.576 101.472 121.947 101.859 122.178 102.43C122.41 103.001 122.417 103.544 122.199 104.06C121.976 104.562 121.585 104.927 121.028 105.153Z" fill="black"/>
<path d="M71.5983 182.535L66.4349 169.815L66.1088 169.947L66.3125 175.421L64.1316 176.307L63.9104 169.036L67.9666 167.388L73.7588 181.657L71.5983 182.535ZM66.8288 184.472L66.0179 182.475L76.413 178.252L77.2239 180.25L66.8288 184.472ZM81.0517 179.027C80.5761 179.22 80.1118 179.227 79.6588 179.047C79.2194 178.861 78.9004 178.524 78.7018 178.035C78.5032 177.545 78.4995 177.088 78.6907 176.662C78.8899 176.217 79.2274 175.898 79.703 175.704C80.1785 175.511 80.636 175.508 81.0755 175.693C81.5285 175.873 81.8515 176.201 82.0446 176.677C82.2432 177.166 82.2428 177.633 82.0436 178.078C81.8579 178.518 81.5273 178.834 81.0517 179.027ZM93.3223 173.71L85.4306 160.294L87.6319 159.4L94.5323 171.485L94.8584 171.353L91.8715 157.678L95.7238 156.113L103.113 168L103.439 167.867L99.943 154.399L102.144 153.505L105.837 168.627L101.985 170.191L94.4801 158.138L94.154 158.27L97.195 172.137L93.3223 173.71ZM114.696 165.36C113.677 165.774 112.701 165.925 111.77 165.813C110.832 165.687 109.989 165.325 109.239 164.727C108.498 164.11 107.918 163.285 107.499 162.253L107.399 162.008C106.975 160.962 106.816 159.966 106.923 159.02C107.024 158.06 107.363 157.218 107.939 156.494C108.523 155.75 109.312 155.176 110.304 154.773C111.268 154.381 112.199 154.256 113.096 154.399C114.001 154.522 114.811 154.881 115.528 155.477C116.244 156.072 116.809 156.88 117.223 157.899L117.546 158.694L109.821 161.832C110.207 162.704 110.786 163.292 111.558 163.596C112.338 163.88 113.15 163.851 113.992 163.509C114.78 163.189 115.3 162.772 115.55 162.259C115.815 161.74 115.962 161.205 115.991 160.655L118.088 160.848C118.052 161.306 117.936 161.82 117.741 162.39C117.558 162.955 117.233 163.499 116.764 164.022C116.296 164.544 115.607 164.991 114.696 165.36ZM109.188 160.213L114.752 157.953C114.389 157.214 113.877 156.733 113.217 156.51C112.551 156.274 111.824 156.316 111.036 156.636C110.248 156.957 109.691 157.436 109.365 158.075C109.046 158.695 108.987 159.408 109.188 160.213ZM127.802 160.037C126.823 160.434 125.998 160.564 125.324 160.426C124.664 160.282 124.117 160.045 123.682 159.715L123.356 159.848L123.936 161.275L121.877 162.111L116.085 147.842L118.184 146.989L120.451 152.574L120.777 152.442C120.83 152.104 120.943 151.757 121.115 151.402C121.282 151.034 121.557 150.677 121.939 150.332C122.321 149.986 122.838 149.681 123.491 149.416C124.333 149.074 125.19 148.963 126.063 149.084C126.935 149.205 127.739 149.567 128.474 150.17C129.21 150.774 129.796 151.612 130.231 152.686L130.356 152.992C130.797 154.079 130.957 155.098 130.837 156.049C130.725 156.981 130.398 157.795 129.857 158.49C129.329 159.179 128.644 159.694 127.802 160.037ZM126.446 158.45C127.356 158.081 127.985 157.485 128.332 156.663C128.693 155.836 128.652 154.879 128.211 153.792L128.136 153.608C127.701 152.535 127.072 151.824 126.25 151.477C125.429 151.13 124.556 151.144 123.632 151.52C122.735 151.884 122.107 152.48 121.746 153.307C121.399 154.129 121.443 155.076 121.879 156.15L121.953 156.333C122.395 157.421 123.026 158.138 123.848 158.485C124.683 158.826 125.549 158.815 126.446 158.45ZM139.539 154.937L138.744 152.98L140.66 152.201L136.457 141.846L134.541 142.624L133.746 140.667L139.453 138.349C141.356 137.576 143.006 137.468 144.403 138.025C145.814 138.576 146.913 139.823 147.702 141.766L148.786 144.436C149.575 146.38 149.656 148.041 149.028 149.42C148.409 150.779 147.148 151.846 145.246 152.618L139.539 154.937ZM142.865 151.258L144.455 150.612C145.692 150.11 146.482 149.425 146.826 148.557C147.17 147.689 147.091 146.637 146.589 145.4L145.447 142.587C144.94 141.337 144.263 140.527 143.417 140.159C142.571 139.79 141.53 139.857 140.293 140.359L138.703 141.005L142.865 151.258ZM158.407 147.604C157.388 148.018 156.412 148.169 155.481 148.057C154.543 147.931 153.7 147.57 152.95 146.972C152.209 146.354 151.629 145.529 151.21 144.497L151.11 144.252C150.686 143.206 150.527 142.21 150.633 141.264C150.735 140.305 151.074 139.462 151.65 138.738C152.234 137.994 153.023 137.42 154.014 137.017C154.979 136.625 155.91 136.501 156.807 136.643C157.712 136.766 158.522 137.125 159.239 137.721C159.955 138.316 160.52 139.124 160.934 140.143L161.257 140.938L153.532 144.076C153.918 144.948 154.497 145.536 155.269 145.84C156.049 146.124 156.861 146.096 157.703 145.753C158.491 145.433 159.011 145.016 159.261 144.503C159.526 143.984 159.673 143.449 159.702 142.899L161.799 143.092C161.763 143.55 161.647 144.064 161.452 144.634C161.269 145.199 160.944 145.743 160.475 146.266C160.007 146.788 159.318 147.235 158.407 147.604ZM152.899 142.457L158.463 140.197C158.1 139.458 157.588 138.977 156.928 138.755C156.262 138.518 155.535 138.56 154.747 138.88C153.959 139.201 153.402 139.68 153.076 140.319C152.757 140.939 152.698 141.652 152.899 142.457ZM167.553 143.557L160.09 134.882L162.312 133.979L168.433 141.395L168.759 141.262L167.978 131.677L170.2 130.775L170.896 142.199L167.553 143.557ZM180.681 138.557C179.661 138.971 178.686 139.122 177.754 139.009C176.817 138.884 175.973 138.522 175.224 137.924C174.483 137.307 173.902 136.482 173.483 135.449L173.384 135.204C172.959 134.158 172.8 133.162 172.907 132.216C173.008 131.257 173.347 130.415 173.923 129.69C174.508 128.946 175.296 128.372 176.288 127.969C177.253 127.578 178.184 127.453 179.08 127.595C179.985 127.718 180.796 128.078 181.512 128.673C182.229 129.268 182.794 130.076 183.208 131.095L183.53 131.89L175.805 135.028C176.191 135.9 176.77 136.488 177.542 136.792C178.323 137.077 179.134 137.048 179.977 136.706C180.765 136.385 181.284 135.969 181.535 135.455C181.799 134.936 181.946 134.402 181.976 133.851L184.073 134.044C184.037 134.502 183.921 135.016 183.725 135.587C183.543 136.151 183.217 136.695 182.749 137.218C182.28 137.741 181.591 138.187 180.681 138.557ZM175.172 133.409L180.737 131.149C180.373 130.41 179.862 129.929 179.201 129.707C178.536 129.471 177.809 129.513 177.021 129.833C176.232 130.153 175.675 130.632 175.349 131.272C175.031 131.892 174.972 132.604 175.172 133.409ZM187.861 135.307L182.069 121.038L184.169 120.185L189.961 134.455L187.861 135.307ZM197.901 131.562C196.895 131.97 195.916 132.131 194.962 132.043C194.016 131.936 193.162 131.587 192.399 130.994C191.636 130.402 191.04 129.576 190.61 128.516L190.486 128.21C190.055 127.15 189.91 126.148 190.049 125.205C190.183 124.248 190.552 123.402 191.156 122.666C191.773 121.925 192.584 121.35 193.59 120.941C194.595 120.533 195.577 120.379 196.537 120.48C197.496 120.581 198.357 120.928 199.12 121.521C199.877 122.1 200.471 122.919 200.901 123.979L201.025 124.285C201.455 125.345 201.604 126.353 201.47 127.31C201.336 128.267 200.96 129.116 200.343 129.857C199.72 130.585 198.906 131.153 197.901 131.562ZM197.139 129.686C198.063 129.311 198.692 128.715 199.026 127.899C199.367 127.064 199.326 126.123 198.901 125.076L198.826 124.893C198.402 123.847 197.785 123.147 196.977 122.795C196.164 122.428 195.288 122.436 194.351 122.817C193.44 123.187 192.814 123.789 192.473 124.624C192.139 125.441 192.185 126.372 192.61 127.418L192.684 127.602C193.109 128.648 193.728 129.354 194.542 129.721C195.363 130.068 196.229 130.056 197.139 129.686ZM207.271 132.172L201.537 118.045L203.596 117.209L204.183 118.656L204.509 118.524C204.585 117.971 204.81 117.412 205.183 116.849C205.569 116.281 206.252 115.798 207.23 115.4C208.073 115.058 208.923 114.95 209.782 115.076C210.654 115.197 211.458 115.559 212.193 116.162C212.937 116.747 213.53 117.583 213.971 118.67L214.095 118.976C214.536 120.063 214.704 121.079 214.597 122.025C214.485 122.957 214.158 123.771 213.617 124.465C213.076 125.16 212.384 125.678 211.541 126.021C210.889 126.286 210.306 126.428 209.791 126.447C209.276 126.466 208.834 126.408 208.463 126.274C208.086 126.126 207.761 125.949 207.488 125.744L207.162 125.876L209.371 131.319L207.271 132.172ZM210.185 124.434C211.109 124.059 211.745 123.461 212.092 122.639C212.439 121.817 212.392 120.863 211.95 119.776L211.876 119.592C211.44 118.518 210.805 117.811 209.97 117.469C209.148 117.122 208.282 117.134 207.372 117.504C206.475 117.868 205.846 118.464 205.486 119.291C205.138 120.113 205.183 121.06 205.619 122.134L205.693 122.317C206.134 123.405 206.766 124.122 207.587 124.469C208.422 124.81 209.288 124.799 210.185 124.434ZM218.674 122.791L214.595 112.741L216.653 111.905L217.133 113.087L217.459 112.955C217.506 112.524 217.685 112.087 217.996 111.645C218.307 111.202 218.822 110.834 219.543 110.541C220.29 110.238 220.951 110.151 221.527 110.282C222.11 110.393 222.614 110.639 223.038 111.021L223.364 110.889C223.407 110.333 223.583 109.81 223.891 109.321C224.212 108.826 224.781 108.414 225.596 108.082C226.248 107.817 226.881 107.719 227.494 107.786C228.102 107.84 228.663 108.071 229.177 108.48C229.685 108.875 230.097 109.46 230.411 110.234L233.125 116.921L231.026 117.773L228.378 111.25C228.13 110.639 227.77 110.239 227.297 110.051C226.833 109.844 226.296 109.864 225.684 110.112C225.032 110.377 224.594 110.801 224.371 111.382C224.148 111.963 224.197 112.648 224.517 113.436L226.949 119.429L224.85 120.282L222.202 113.759C221.954 113.148 221.594 112.748 221.122 112.56C220.658 112.352 220.12 112.373 219.508 112.621C218.856 112.886 218.418 113.309 218.195 113.891C217.972 114.472 218.021 115.157 218.341 115.945L220.773 121.938L218.674 122.791ZM240.873 114.106C239.854 114.52 238.878 114.671 237.946 114.559C237.009 114.433 236.165 114.071 235.416 113.473C234.675 112.856 234.095 112.031 233.675 110.998L233.576 110.754C233.151 109.707 232.992 108.711 233.099 107.765C233.2 106.806 233.539 105.964 234.116 105.239C234.7 104.495 235.488 103.922 236.48 103.519C237.445 103.127 238.376 103.002 239.272 103.144C240.177 103.267 240.988 103.627 241.704 104.222C242.421 104.818 242.986 105.625 243.4 106.644L243.723 107.439L235.998 110.577C236.383 111.45 236.962 112.037 237.735 112.341C238.515 112.626 239.326 112.597 240.169 112.255C240.957 111.935 241.476 111.518 241.727 111.004C241.991 110.485 242.138 109.951 242.168 109.4L244.265 109.594C244.229 110.051 244.113 110.565 243.917 111.136C243.735 111.701 243.41 112.244 242.941 112.767C242.473 113.29 241.783 113.736 240.873 114.106ZM235.364 108.959L240.929 106.698C240.565 105.959 240.054 105.479 239.394 105.256C238.728 105.02 238.001 105.062 237.213 105.382C236.425 105.702 235.867 106.182 235.541 106.821C235.223 107.441 235.164 108.153 235.364 108.959ZM248.054 110.857L243.974 100.807L246.033 99.9707L246.645 101.479L246.971 101.347C246.996 100.862 247.181 100.343 247.527 99.7912C247.873 99.2391 248.528 98.7671 249.493 98.3752C250.254 98.0661 250.995 97.9628 251.718 98.0652C252.453 98.162 253.118 98.454 253.711 98.9412C254.299 99.4147 254.77 100.086 255.123 100.956L257.572 106.99L255.473 107.843L253.09 101.972C252.737 101.102 252.26 100.552 251.66 100.321C251.054 100.076 250.37 100.108 249.609 100.417C248.74 100.771 248.156 101.34 247.858 102.126C247.573 102.907 247.651 103.841 248.093 104.928L250.153 110.004L248.054 110.857ZM264.086 104.344C263.474 104.592 262.911 104.608 262.395 104.39C261.893 104.166 261.517 103.749 261.269 103.137L258.729 96.8793L255.957 98.0054L255.237 96.2319L258.009 95.1059L256.66 91.7832L258.759 90.9304L260.108 94.2531L263.104 93.036L263.824 94.8094L260.828 96.0265L263.219 101.918C263.385 102.325 263.658 102.452 264.038 102.297L266.138 101.445L266.858 103.218L264.086 104.344Z" fill="black"/>
<path d="M90.2845 202.514C89.9176 202.663 89.5446 202.718 89.1656 202.677C88.7933 202.621 88.4572 202.479 88.1574 202.251C87.8577 202.023 87.6333 201.726 87.4844 201.359C87.3309 200.981 87.2822 200.606 87.3382 200.233C87.3943 199.861 87.5385 199.53 87.771 199.241C87.999 198.942 88.3019 198.715 88.6799 198.561C89.0579 198.408 89.4331 198.359 89.8055 198.415C90.1845 198.455 90.5183 198.592 90.807 198.824C91.1067 199.052 91.3333 199.355 91.4868 199.733C91.6402 200.111 91.689 200.486 91.6329 200.859C91.5769 201.231 91.4271 201.564 91.1835 201.858C90.951 202.146 90.6514 202.365 90.2845 202.514ZM105.07 199.209L100.331 187.534L101.732 186.965L105.956 197.372L111.86 194.974L112.374 196.241L105.07 199.209ZM116.82 194.708C116.253 194.938 115.695 195.048 115.147 195.037C114.599 195.027 114.115 194.887 113.695 194.617C113.274 194.348 112.954 193.94 112.732 193.395C112.507 192.84 112.455 192.329 112.578 191.865C112.695 191.39 112.952 190.969 113.346 190.601C113.737 190.222 114.221 189.915 114.799 189.681L117.551 188.563L117.307 187.962C117.072 187.384 116.715 186.998 116.235 186.805C115.766 186.607 115.198 186.643 114.531 186.914C113.875 187.181 113.429 187.55 113.193 188.021C112.952 188.481 112.874 189.006 112.957 189.593L111.56 189.695C111.509 189.184 111.553 188.687 111.693 188.203C111.829 187.707 112.09 187.251 112.478 186.835C112.873 186.403 113.409 186.049 114.087 185.773C115.132 185.349 116.054 185.292 116.854 185.601C117.648 185.9 118.244 186.539 118.641 187.517L120.138 191.203C120.273 191.537 120.496 191.64 120.808 191.514L121.558 191.209L122.012 192.327L120.861 192.794C120.494 192.943 120.159 192.963 119.855 192.853C119.547 192.732 119.323 192.499 119.183 192.154L119.15 192.071L118.949 192.152C118.913 192.413 118.836 192.703 118.72 193.023C118.61 193.326 118.407 193.623 118.109 193.912C117.817 194.212 117.387 194.477 116.82 194.708ZM116.51 193.512C117.288 193.196 117.824 192.713 118.117 192.063C118.416 191.397 118.397 190.648 118.058 189.814L117.984 189.63L115.282 190.728C114.76 190.94 114.374 191.233 114.124 191.606C113.88 191.964 113.851 192.371 114.036 192.827C114.221 193.283 114.538 193.569 114.987 193.684C115.446 193.796 115.954 193.738 116.51 193.512ZM123.816 191.594L120.506 183.438L121.79 182.916L122.352 184.301L122.585 184.206C122.605 183.744 122.763 183.272 123.059 182.789C123.362 182.291 123.93 181.872 124.764 181.533C125.375 181.285 125.972 181.192 126.554 181.253C127.147 181.31 127.689 181.53 128.182 181.913C128.674 182.296 129.069 182.854 129.367 183.588L131.371 188.525L130.053 189.06L128.09 184.223C127.76 183.412 127.315 182.906 126.755 182.706C126.206 182.502 125.587 182.54 124.897 182.82C124.108 183.14 123.567 183.658 123.274 184.373C122.993 185.083 123.057 185.944 123.468 186.956L125.134 191.059L123.816 191.594ZM137.59 186.27C136.89 186.555 136.177 186.65 135.453 186.556C134.728 186.462 134.065 186.168 133.463 185.674C132.861 185.18 132.384 184.5 132.032 183.632L131.944 183.416C131.592 182.548 131.462 181.733 131.554 180.971C131.641 180.197 131.906 179.526 132.349 178.957C132.798 178.373 133.379 177.937 134.09 177.648C134.657 177.417 135.167 177.301 135.619 177.299C136.078 177.281 136.477 177.339 136.817 177.473C137.152 177.596 137.438 177.758 137.675 177.96L137.908 177.865L135.958 173.061L137.276 172.526L142.015 184.201L140.731 184.723L140.183 183.372L139.949 183.467C139.894 183.968 139.698 184.475 139.362 184.987C139.026 185.5 138.435 185.927 137.59 186.27ZM137.467 184.961C138.312 184.617 138.887 184.073 139.193 183.327C139.505 182.565 139.465 181.701 139.073 180.733L139.012 180.583C138.619 179.616 138.048 178.974 137.297 178.657C136.554 178.324 135.759 178.33 134.914 178.673C134.081 179.012 133.502 179.564 133.178 180.33C132.861 181.081 132.899 181.94 133.292 182.907L133.353 183.057C133.745 184.024 134.319 184.672 135.074 185C135.835 185.313 136.633 185.299 137.467 184.961ZM144.776 183.08L141.465 174.924L142.783 174.389L146.093 182.544L144.776 183.08ZM141.618 173.385C141.329 173.503 141.046 173.508 140.769 173.4C140.503 173.288 140.312 173.087 140.194 172.798C140.072 172.498 140.068 172.215 140.18 171.949C140.303 171.679 140.51 171.485 140.799 171.367C141.088 171.25 141.365 171.247 141.631 171.36C141.897 171.472 142.09 171.678 142.212 171.978C142.33 172.267 142.332 172.545 142.22 172.811C142.108 173.076 141.907 173.268 141.618 173.385ZM148.864 181.419L145.553 173.263L146.837 172.742L147.399 174.126L147.633 174.031C147.652 173.57 147.81 173.098 148.107 172.615C148.409 172.116 148.977 171.698 149.811 171.359C150.423 171.11 151.019 171.017 151.601 171.079C152.194 171.136 152.737 171.356 153.229 171.738C153.721 172.121 154.116 172.68 154.414 173.414L156.418 178.35L155.101 178.886L153.137 174.049C152.808 173.237 152.363 172.731 151.803 172.532C151.253 172.327 150.634 172.365 149.945 172.645C149.156 172.966 148.615 173.483 148.322 174.198C148.04 174.908 148.105 175.769 148.516 176.781L150.181 180.884L148.864 181.419ZM157.052 173.391L156.958 173.158C156.61 172.301 156.485 171.498 156.581 170.746C156.677 169.994 156.953 169.332 157.406 168.759C157.86 168.186 158.437 167.758 159.138 167.473C159.994 167.125 160.717 167.026 161.309 167.174C161.907 167.307 162.398 167.528 162.783 167.838L163.016 167.743L162.468 166.392L163.719 165.884L167.801 175.941C167.982 176.386 168.001 176.786 167.861 177.141C167.72 177.496 167.416 177.769 166.949 177.958L161.412 180.207L160.938 179.04L166.125 176.933C166.458 176.798 166.557 176.563 166.422 176.229L165.163 173.127L164.929 173.222C164.895 173.521 164.803 173.837 164.653 174.17C164.504 174.503 164.266 174.826 163.94 175.14C163.609 175.442 163.155 175.711 162.577 175.946C161.877 176.23 161.164 176.325 160.439 176.231C159.715 176.137 159.056 175.854 158.463 175.383C157.866 174.9 157.395 174.236 157.052 173.391ZM162.453 174.636C163.298 174.293 163.874 173.748 164.18 173.002C164.497 172.252 164.465 171.409 164.086 170.475L164.032 170.342C163.649 169.397 163.084 168.771 162.338 168.466C161.599 168.144 160.807 168.155 159.962 168.498C159.128 168.837 158.547 169.384 158.219 170.139C157.897 170.878 157.928 171.721 158.312 172.666L158.366 172.799C158.745 173.733 159.31 174.358 160.06 174.675C160.822 174.988 161.619 174.975 162.453 174.636ZM174.024 171.199L169.285 159.524L173.754 157.708C174.455 157.424 175.134 157.31 175.791 157.367C176.455 157.408 177.05 157.613 177.576 157.982C178.101 158.352 178.509 158.892 178.797 159.604L178.885 159.821C179.17 160.521 179.249 161.195 179.123 161.842C179.004 162.473 178.72 163.035 178.273 163.528C177.825 164.02 177.262 164.404 176.584 164.68L173.516 165.926L175.425 170.63L174.024 171.199ZM173.001 164.659L175.919 163.473C176.664 163.171 177.179 162.748 177.464 162.205C177.744 161.651 177.746 161.034 177.471 160.356L177.403 160.189C177.128 159.511 176.699 159.077 176.117 158.886C175.541 158.679 174.875 158.73 174.119 159.037L171.2 160.222L173.001 164.659ZM186.507 166.4C185.94 166.63 185.382 166.74 184.834 166.73C184.286 166.719 183.802 166.579 183.381 166.31C182.961 166.04 182.64 165.633 182.419 165.088C182.194 164.532 182.142 164.022 182.264 163.558C182.382 163.082 182.638 162.661 183.033 162.293C183.423 161.915 183.908 161.608 184.486 161.373L187.237 160.255L186.994 159.655C186.759 159.077 186.402 158.691 185.921 158.497C185.453 158.299 184.885 158.336 184.217 158.607C183.562 158.873 183.116 159.242 182.88 159.713C182.639 160.174 182.56 160.698 182.644 161.286L181.247 161.387C181.195 160.877 181.24 160.38 181.38 159.895C181.515 159.4 181.777 158.944 182.165 158.527C182.559 158.095 183.096 157.741 183.774 157.466C184.819 157.041 185.741 156.984 186.54 157.294C187.335 157.593 187.931 158.231 188.328 159.21L189.824 162.896C189.96 163.229 190.183 163.333 190.495 163.206L191.245 162.902L191.699 164.019L190.548 164.486C190.181 164.635 189.846 164.655 189.542 164.545C189.234 164.424 189.01 164.192 188.87 163.847L188.836 163.763L188.636 163.845C188.6 164.106 188.523 164.396 188.407 164.715C188.297 165.019 188.093 165.315 187.796 165.604C187.504 165.904 187.074 166.17 186.507 166.4ZM186.197 165.205C186.975 164.889 187.51 164.406 187.803 163.756C188.103 163.09 188.084 162.34 187.745 161.506L187.671 161.323L184.969 162.42C184.446 162.632 184.06 162.925 183.81 163.299C183.567 163.657 183.538 164.063 183.723 164.519C183.908 164.975 184.225 165.261 184.673 165.377C185.133 165.488 185.641 165.431 186.197 165.205ZM191.236 159.505L191.141 159.272C190.794 158.415 190.668 157.612 190.765 156.86C190.861 156.109 191.136 155.446 191.59 154.873C192.044 154.301 192.621 153.872 193.322 153.587C194.178 153.24 194.901 153.14 195.492 153.288C196.09 153.421 196.582 153.642 196.967 153.952L197.2 153.857L196.652 152.507L197.902 151.998L201.985 162.055C202.165 162.5 202.185 162.9 202.044 163.255C201.904 163.61 201.6 163.883 201.133 164.072L195.596 166.321L195.122 165.154L200.309 163.047C200.642 162.912 200.741 162.677 200.606 162.344L199.347 159.241L199.113 159.336C199.079 159.635 198.987 159.951 198.837 160.284C198.687 160.617 198.45 160.94 198.124 161.254C197.793 161.556 197.339 161.825 196.761 162.06C196.06 162.344 195.348 162.439 194.623 162.345C193.899 162.251 193.24 161.968 192.647 161.497C192.05 161.014 191.579 160.35 191.236 159.505ZM196.637 160.75C197.482 160.407 198.057 159.862 198.363 159.116C198.68 158.366 198.649 157.524 198.27 156.59L198.216 156.456C197.832 155.511 197.268 154.886 196.522 154.58C195.783 154.258 194.991 154.269 194.146 154.612C193.312 154.951 192.731 155.498 192.403 156.253C192.081 156.992 192.112 157.835 192.496 158.78L192.55 158.913C192.929 159.847 193.494 160.473 194.244 160.79C195.006 161.102 195.803 161.089 196.637 160.75ZM207.805 157.748C206.982 158.083 206.19 158.204 205.427 158.112C204.66 158.009 203.976 157.711 203.374 157.217C202.772 156.723 202.302 156.059 201.963 155.225L201.882 155.025C201.539 154.18 201.411 153.371 201.498 152.597C201.586 151.823 201.865 151.14 202.337 150.547C202.804 149.943 203.432 149.48 204.221 149.16C204.989 148.848 205.734 148.739 206.459 148.833C207.179 148.917 207.83 149.196 208.412 149.672C208.994 150.148 209.452 150.798 209.786 151.62L210.029 152.221L203.375 154.924C203.765 155.789 204.329 156.363 205.065 156.646C205.798 156.919 206.564 156.893 207.364 156.567C208.065 156.283 208.539 155.903 208.786 155.427C209.033 154.951 209.166 154.45 209.186 153.924L210.543 154.013C210.516 154.426 210.423 154.865 210.263 155.332C210.113 155.794 209.847 156.239 209.464 156.667C209.092 157.09 208.539 157.45 207.805 157.748ZM202.952 153.833L208.255 151.679C207.904 150.941 207.403 150.458 206.754 150.229C206.115 149.996 205.429 150.029 204.695 150.327C203.95 150.63 203.425 151.089 203.118 151.706C202.812 152.323 202.756 153.032 202.952 153.833ZM98.9353 223.825C98.5684 223.974 98.1954 224.029 97.8164 223.988C97.4441 223.932 97.108 223.79 96.8082 223.562C96.5085 223.334 96.2841 223.037 96.1352 222.67C95.9817 222.292 95.933 221.917 95.989 221.544C96.0451 221.172 96.1893 220.841 96.4218 220.553C96.6498 220.253 96.9527 220.026 97.3307 219.872C97.7087 219.719 98.0839 219.67 98.4563 219.726C98.8353 219.766 99.1692 219.903 99.4578 220.135C99.7575 220.363 99.9841 220.666 100.138 221.044C100.291 221.422 100.34 221.798 100.284 222.17C100.228 222.543 100.078 222.875 99.8343 223.169C99.6018 223.457 99.3022 223.676 98.9353 223.825ZM114.905 220.039L108.265 209.136L109.665 208.567L115.69 218.671L115.923 218.576L113.701 206.928L116.203 205.912L122.711 215.819L122.944 215.724L120.222 204.279L121.623 203.71L124.461 216.157L121.959 217.173L115.407 207.206L115.174 207.301L117.423 219.016L114.905 220.039ZM131.965 213.381C131.143 213.715 130.35 213.836 129.587 213.744C128.82 213.641 128.136 213.343 127.534 212.849C126.932 212.355 126.462 211.692 126.123 210.858L126.042 210.658C125.699 209.813 125.571 209.003 125.659 208.229C125.746 207.456 126.026 206.772 126.497 206.179C126.964 205.575 127.592 205.112 128.382 204.792C129.149 204.48 129.895 204.371 130.619 204.466C131.339 204.549 131.99 204.828 132.572 205.304C133.154 205.78 133.612 206.43 133.946 207.253L134.19 207.853L127.536 210.556C127.926 211.421 128.489 211.995 129.226 212.279C129.958 212.551 130.724 212.525 131.525 212.2C132.225 211.915 132.699 211.535 132.946 211.059C133.193 210.583 133.326 210.082 133.346 209.556L134.703 209.645C134.677 210.058 134.583 210.497 134.423 210.964C134.274 211.426 134.007 211.871 133.624 212.299C133.252 212.722 132.699 213.083 131.965 213.381ZM127.112 209.465L132.415 207.311C132.064 206.573 131.564 206.09 130.914 205.861C130.275 205.629 129.589 205.661 128.856 205.959C128.111 206.262 127.585 206.722 127.278 207.338C126.972 207.955 126.916 208.664 127.112 209.465ZM142.618 209.053C141.773 209.396 141.046 209.504 140.437 209.376C139.84 209.243 139.352 209.014 138.973 208.688L138.74 208.783L139.288 210.134L138.004 210.656L133.265 198.981L134.582 198.446L136.532 203.249L136.766 203.154C136.795 202.844 136.887 202.528 137.042 202.207C137.191 201.874 137.432 201.556 137.762 201.253C138.099 200.935 138.551 200.661 139.118 200.431C139.83 200.142 140.544 200.052 141.262 200.162C141.987 200.256 142.65 200.55 143.252 201.044C143.85 201.526 144.324 202.201 144.676 203.069L144.764 203.285C145.117 204.153 145.243 204.976 145.145 205.754C145.057 206.528 144.787 207.201 144.333 207.774C143.89 208.342 143.319 208.769 142.618 209.053ZM141.794 208.028C142.639 207.685 143.214 207.14 143.52 206.394C143.833 205.633 143.793 204.768 143.4 203.801L143.339 203.651C142.947 202.683 142.375 202.041 141.625 201.724C140.881 201.392 140.087 201.397 139.242 201.74C138.408 202.079 137.829 202.631 137.506 203.398C137.189 204.148 137.226 205.007 137.619 205.974L137.68 206.124C138.073 207.092 138.646 207.739 139.401 208.067C140.163 208.38 140.96 208.367 141.794 208.028ZM156.934 203.238C156.089 203.581 155.272 203.738 154.483 203.709C153.694 203.68 152.983 203.444 152.35 203.002C151.724 202.544 151.226 201.859 150.856 200.947L150.714 200.597L152.098 200.035L152.24 200.385C152.633 201.352 153.209 201.96 153.97 202.208C154.727 202.444 155.55 202.382 156.439 202.021C157.351 201.65 157.962 201.162 158.274 200.557C158.585 199.951 158.614 199.337 158.361 198.714C158.185 198.281 157.934 197.981 157.608 197.816C157.293 197.646 156.909 197.562 156.457 197.565C156 197.556 155.485 197.596 154.913 197.686L153.958 197.822C153.208 197.919 152.519 197.946 151.893 197.903C151.267 197.859 150.72 197.693 150.253 197.404C149.792 197.098 149.429 196.618 149.162 195.962C148.896 195.306 148.827 194.673 148.955 194.064C149.095 193.451 149.407 192.896 149.893 192.401C150.389 191.902 151.027 191.494 151.805 191.178C152.594 190.857 153.357 190.709 154.092 190.734C154.834 190.744 155.491 190.943 156.064 191.332C156.643 191.706 157.095 192.293 157.42 193.093L157.704 193.794L156.32 194.356L156.036 193.656C155.805 193.089 155.498 192.682 155.114 192.437C154.74 192.187 154.308 192.065 153.818 192.07C153.339 192.07 152.833 192.178 152.299 192.395C151.532 192.707 150.985 193.13 150.658 193.664C150.326 194.187 150.287 194.76 150.54 195.383C150.707 195.794 150.942 196.087 151.246 196.262C151.55 196.436 151.919 196.532 152.354 196.55C152.784 196.557 153.279 196.517 153.841 196.432L154.796 196.296C155.533 196.165 156.22 196.119 156.857 196.158C157.501 196.182 158.073 196.345 158.571 196.647C159.065 196.939 159.452 197.429 159.732 198.119C160.011 198.808 160.083 199.479 159.946 200.13C159.809 200.781 159.482 201.38 158.966 201.927C158.456 202.458 157.779 202.895 156.934 203.238ZM163.231 200.408L159.92 192.253L161.238 191.717L164.548 199.873L163.231 200.408ZM160.073 190.714C159.784 190.831 159.501 190.836 159.224 190.729C158.958 190.616 158.767 190.416 158.649 190.127C158.527 189.826 158.522 189.543 158.635 189.278C158.758 189.007 158.964 188.813 159.253 188.696C159.543 188.579 159.82 188.576 160.086 188.688C160.351 188.8 160.545 189.007 160.667 189.307C160.784 189.596 160.787 189.873 160.675 190.139C160.562 190.405 160.362 190.597 160.073 190.714ZM170.32 197.528C169.853 197.718 169.44 197.737 169.081 197.585C168.732 197.429 168.468 197.128 168.287 196.683L166.026 191.113L163.574 192.109L163.107 190.958L165.559 189.962L164.381 187.06L165.698 186.525L166.876 189.427L169.544 188.343L170.012 189.494L167.343 190.578L169.523 195.948C169.659 196.282 169.888 196.383 170.21 196.252L172.028 195.514L172.488 196.648L170.32 197.528ZM178.526 194.467C177.704 194.801 176.911 194.922 176.148 194.831C175.381 194.728 174.697 194.429 174.095 193.936C173.493 193.442 173.023 192.778 172.684 191.944L172.603 191.744C172.26 190.899 172.132 190.089 172.22 189.316C172.307 188.542 172.587 187.858 173.058 187.265C173.525 186.661 174.153 186.199 174.943 185.878C175.71 185.567 176.456 185.458 177.18 185.552C177.9 185.635 178.551 185.915 179.133 186.391C179.715 186.867 180.173 187.516 180.507 188.339L180.751 188.939L174.097 191.642C174.487 192.507 175.05 193.081 175.787 193.365C176.519 193.637 177.285 193.611 178.086 193.286C178.786 193.001 179.26 192.621 179.507 192.145C179.754 191.669 179.887 191.168 179.907 190.642L181.264 190.732C181.238 191.144 181.144 191.584 180.984 192.05C180.835 192.512 180.568 192.957 180.185 193.385C179.813 193.808 179.26 194.169 178.526 194.467ZM173.673 190.552L178.976 188.397C178.625 187.659 178.125 187.176 177.475 186.948C176.836 186.715 176.15 186.748 175.417 187.046C174.672 187.348 174.146 187.808 173.839 188.425C173.533 189.041 173.477 189.75 173.673 190.552ZM107.586 245.136C107.219 245.285 106.846 245.34 106.467 245.299C106.095 245.243 105.759 245.101 105.459 244.874C105.159 244.646 104.935 244.348 104.786 243.981C104.633 243.603 104.584 243.228 104.64 242.855C104.696 242.483 104.84 242.152 105.073 241.864C105.301 241.564 105.604 241.337 105.982 241.184C106.36 241.03 106.735 240.981 107.107 241.037C107.486 241.078 107.82 241.214 108.109 241.446C108.408 241.674 108.635 241.977 108.788 242.355C108.942 242.733 108.991 243.109 108.935 243.481C108.879 243.854 108.729 244.186 108.485 244.48C108.253 244.768 107.953 244.987 107.586 245.136ZM123.556 241.35L116.915 230.447L118.316 229.878L124.341 239.982L124.574 239.887L122.352 228.239L124.853 227.223L131.362 237.13L131.595 237.035L128.873 225.59L130.273 225.021L133.111 237.468L130.61 238.484L124.058 228.517L123.825 228.612L126.074 240.327L123.556 241.35ZM140.616 234.692C139.793 235.026 139.001 235.147 138.238 235.055C137.471 234.952 136.787 234.654 136.185 234.16C135.583 233.667 135.113 233.003 134.774 232.169L134.693 231.969C134.35 231.124 134.222 230.314 134.309 229.54C134.397 228.767 134.676 228.083 135.148 227.49C135.615 226.886 136.243 226.424 137.033 226.103C137.8 225.791 138.546 225.683 139.27 225.777C139.99 225.86 140.641 226.139 141.223 226.616C141.805 227.092 142.263 227.741 142.597 228.564L142.84 229.164L136.186 231.867C136.576 232.732 137.14 233.306 137.876 233.59C138.609 233.862 139.375 233.836 140.176 233.511C140.876 233.226 141.35 232.846 141.597 232.37C141.844 231.894 141.977 231.393 141.997 230.867L143.354 230.957C143.327 231.369 143.234 231.809 143.074 232.275C142.924 232.737 142.658 233.182 142.275 233.61C141.903 234.033 141.35 234.394 140.616 234.692ZM135.763 230.776L141.066 228.622C140.715 227.884 140.214 227.401 139.565 227.173C138.926 226.94 138.24 226.972 137.506 227.27C136.762 227.573 136.236 228.033 135.929 228.649C135.623 229.266 135.567 229.975 135.763 230.776ZM151.269 230.364C150.424 230.708 149.697 230.815 149.088 230.687C148.49 230.554 148.002 230.325 147.624 229.999L147.391 230.094L147.939 231.445L146.655 231.967L141.916 220.292L143.233 219.757L145.183 224.56L145.417 224.465C145.446 224.155 145.538 223.839 145.692 223.518C145.842 223.185 146.082 222.867 146.413 222.565C146.75 222.246 147.202 221.972 147.769 221.742C148.48 221.453 149.195 221.363 149.913 221.473C150.638 221.567 151.301 221.861 151.903 222.355C152.5 222.838 152.975 223.512 153.327 224.38L153.415 224.597C153.767 225.464 153.894 226.287 153.796 227.065C153.708 227.839 153.438 228.512 152.984 229.085C152.541 229.653 151.969 230.08 151.269 230.364ZM150.445 229.339C151.29 228.996 151.865 228.451 152.171 227.705C152.484 226.944 152.444 226.079 152.051 225.112L151.99 224.962C151.597 223.994 151.026 223.352 150.276 223.035C149.532 222.703 148.738 222.708 147.893 223.051C147.059 223.39 146.48 223.943 146.156 224.709C145.839 225.459 145.877 226.318 146.27 227.285L146.331 227.435C146.724 228.403 147.297 229.051 148.052 229.379C148.813 229.691 149.611 229.678 150.445 229.339ZM160.491 226.346L159.354 213.208L161.823 212.205L170.164 222.417L168.713 223.006L166.614 220.42L161.644 222.439L161.942 225.757L160.491 226.346ZM161.48 221.029L165.733 219.302L161.051 213.51L160.817 213.605L161.48 221.029ZM173.317 225.022L168.652 213.531L169.936 213.009L170.485 214.36L170.718 214.265C170.763 213.768 170.953 213.263 171.289 212.751C171.636 212.234 172.232 211.804 173.077 211.461C173.777 211.177 174.487 211.089 175.205 211.199C175.929 211.293 176.59 211.582 177.188 212.065C177.796 212.543 178.279 213.221 178.635 214.099L178.723 214.316C179.075 215.183 179.208 216.004 179.12 216.778C179.033 217.551 178.762 218.225 178.308 218.798C177.866 219.366 177.289 219.795 176.577 220.084C176.01 220.314 175.495 220.433 175.031 220.44C174.584 220.453 174.19 220.393 173.851 220.259C173.511 220.125 173.225 219.962 172.993 219.772L172.759 219.867L174.634 224.487L173.317 225.022ZM175.753 219.059C176.598 218.715 177.173 218.171 177.479 217.425C177.792 216.663 177.752 215.799 177.359 214.831L177.298 214.681C176.905 213.714 176.334 213.072 175.584 212.755C174.84 212.422 174.046 212.428 173.201 212.771C172.367 213.11 171.788 213.662 171.464 214.428C171.147 215.179 171.185 216.038 171.578 217.005L171.639 217.155C172.032 218.122 172.605 218.77 173.36 219.098C174.122 219.411 174.919 219.397 175.753 219.059ZM184.049 220.662L179.385 209.171L180.669 208.649L181.217 210L181.451 209.905C181.495 209.408 181.685 208.904 182.021 208.391C182.368 207.875 182.964 207.445 183.809 207.102C184.51 206.817 185.219 206.73 185.937 206.84C186.662 206.934 187.323 207.222 187.92 207.705C188.529 208.183 189.011 208.861 189.368 209.74L189.456 209.957C189.808 210.824 189.94 211.644 189.853 212.418C189.765 213.192 189.495 213.865 189.041 214.438C188.598 215.007 188.021 215.435 187.309 215.724C186.742 215.955 186.227 216.073 185.764 216.08C185.316 216.094 184.922 216.033 184.583 215.899C184.244 215.765 183.958 215.603 183.725 215.412L183.491 215.507L185.367 220.127L184.049 220.662ZM186.485 214.699C187.33 214.356 187.906 213.811 188.212 213.065C188.524 212.304 188.484 211.439 188.091 210.472L188.03 210.322C187.638 209.354 187.066 208.712 186.316 208.395C185.572 208.063 184.778 208.068 183.933 208.411C183.099 208.75 182.52 209.302 182.197 210.069C181.88 210.819 181.918 211.678 182.31 212.645L182.371 212.795C182.764 213.763 183.338 214.41 184.092 214.739C184.854 215.051 185.651 215.038 186.485 214.699Z" fill="black"/>
<path d="M144.922 338.983C144.555 339.132 144.182 339.186 143.803 339.146C143.431 339.09 143.095 338.948 142.795 338.72C142.495 338.492 142.271 338.195 142.122 337.828C141.969 337.45 141.92 337.074 141.976 336.702C142.032 336.33 142.176 335.999 142.409 335.71C142.637 335.41 142.94 335.184 143.318 335.03C143.696 334.877 144.071 334.828 144.443 334.884C144.822 334.924 145.156 335.06 145.445 335.293C145.744 335.521 145.971 335.824 146.124 336.202C146.278 336.58 146.327 336.955 146.271 337.328C146.214 337.7 146.065 338.033 145.821 338.326C145.589 338.615 145.289 338.834 144.922 338.983ZM162.576 334.512L158.351 324.105L154.599 325.629L154.085 324.362L162.99 320.744L163.504 322.012L159.752 323.536L163.977 333.943L162.576 334.512ZM169.415 331.734L166.104 323.578L167.422 323.043L170.733 331.199L169.415 331.734ZM166.257 322.04C165.968 322.157 165.685 322.162 165.408 322.054C165.142 321.942 164.951 321.741 164.834 321.452C164.712 321.152 164.707 320.869 164.819 320.603C164.943 320.333 165.149 320.139 165.438 320.022C165.727 319.904 166.004 319.902 166.27 320.014C166.536 320.126 166.73 320.332 166.851 320.633C166.969 320.922 166.971 321.199 166.859 321.465C166.747 321.731 166.546 321.922 166.257 322.04ZM173.503 330.074L168.764 318.399L170.081 317.864L172.87 324.735L173.104 324.64L175.479 319.77L177.313 319.025L174.405 324.831L180.757 327.127L178.939 327.865L173.612 325.891L173.378 325.986L174.82 329.538L173.503 330.074ZM180.409 322.975L179.914 321.757L184.851 319.752L185.345 320.97L180.409 322.975ZM190.978 322.975L186.754 312.568L183.002 314.092L182.487 312.824L191.392 309.207L191.907 310.474L188.155 311.999L192.379 322.406L190.978 322.975ZM200.167 319.514C199.344 319.849 198.546 319.972 197.772 319.885C197.01 319.793 196.324 319.508 195.716 319.03C195.114 318.536 194.639 317.861 194.291 317.005L194.203 316.788C193.86 315.943 193.733 315.134 193.82 314.36C193.918 313.582 194.209 312.894 194.692 312.296C195.185 311.694 195.844 311.226 196.666 310.892C197.489 310.558 198.282 310.436 199.044 310.528C199.818 310.615 200.506 310.906 201.108 311.4C201.721 311.889 202.199 312.556 202.542 313.401L202.63 313.618C202.977 314.474 203.102 315.291 203.003 316.07C202.911 316.832 202.618 317.515 202.125 318.117C201.642 318.714 200.989 319.18 200.167 319.514ZM199.686 318.33C200.553 317.978 201.132 317.426 201.422 316.673C201.719 315.905 201.678 315.054 201.299 314.12L201.238 313.97C200.859 313.036 200.297 312.402 199.554 312.07C198.816 311.722 198.014 311.724 197.147 312.076C196.291 312.424 195.715 312.982 195.418 313.75C195.116 314.507 195.155 315.352 195.534 316.286L195.595 316.437C195.974 317.371 196.538 318.009 197.286 318.353C198.03 318.686 198.83 318.678 199.686 318.33ZM206.612 316.624L201.873 304.95L203.19 304.414L205.979 311.286L206.213 311.191L208.588 306.321L210.422 305.576L207.514 311.381L213.866 313.677L212.048 314.416L206.721 312.442L206.487 312.537L207.929 316.089L206.612 316.624ZM153.573 360.294C153.206 360.443 152.833 360.497 152.454 360.457C152.082 360.401 151.746 360.259 151.446 360.031C151.146 359.803 150.922 359.506 150.773 359.139C150.619 358.761 150.571 358.386 150.627 358.013C150.683 357.641 150.827 357.31 151.059 357.021C151.287 356.721 151.59 356.495 151.968 356.341C152.346 356.188 152.722 356.139 153.094 356.195C153.473 356.235 153.807 356.372 154.095 356.604C154.395 356.832 154.622 357.135 154.775 357.513C154.929 357.891 154.977 358.266 154.921 358.639C154.865 359.011 154.715 359.344 154.472 359.637C154.239 359.926 153.94 360.145 153.573 360.294ZM168.358 356.988L163.619 345.314L165.02 344.745L169.759 356.419L168.358 356.988ZM172.48 355.314L169.169 347.159L170.453 346.637L171.015 348.021L171.249 347.926C171.269 347.465 171.427 346.993 171.723 346.51C172.025 346.011 172.594 345.593 173.428 345.254C174.039 345.006 174.636 344.912 175.218 344.974C175.811 345.031 176.353 345.251 176.845 345.634C177.338 346.017 177.733 346.575 178.03 347.309L180.034 352.246L178.717 352.781L176.754 347.944C176.424 347.132 175.979 346.627 175.419 346.427C174.87 346.222 174.25 346.26 173.561 346.54C172.772 346.861 172.231 347.379 171.938 348.093C171.657 348.803 171.721 349.664 172.132 350.676L173.797 354.779L172.48 355.314ZM186.087 350.059C185.076 350.47 184.125 350.584 183.235 350.401C182.356 350.214 181.639 349.644 181.084 348.691L182.219 347.9C182.525 348.397 182.863 348.752 183.234 348.964C183.601 349.165 183.989 349.26 184.399 349.249C184.815 349.222 185.229 349.125 185.641 348.958C186.252 348.71 186.686 348.391 186.943 348.002C187.199 347.613 187.244 347.212 187.077 346.801C186.905 346.378 186.613 346.154 186.201 346.127C185.795 346.085 185.275 346.127 184.641 346.256L183.91 346.417C183.351 346.54 182.816 346.595 182.306 346.582C181.796 346.569 181.347 346.454 180.961 346.235C180.574 346.016 180.282 345.663 180.083 345.173C179.785 344.439 179.836 343.752 180.236 343.11C180.636 342.468 181.303 341.958 182.237 341.578C183.16 341.203 183.99 341.112 184.729 341.304C185.474 341.481 186.083 341.913 186.557 342.602L185.452 343.42C185.112 342.871 184.706 342.557 184.234 342.477C183.756 342.386 183.24 342.453 182.684 342.679C182.128 342.905 181.732 343.189 181.495 343.531C181.254 343.862 181.215 344.228 181.377 344.628C181.535 345.017 181.802 345.245 182.179 345.313C182.563 345.364 183.028 345.33 183.576 345.212L184.307 345.051C184.926 344.916 185.499 344.845 186.027 344.838C186.562 344.815 187.028 344.91 187.426 345.124C187.835 345.334 188.145 345.7 188.357 346.222C188.682 347.023 188.632 347.762 188.208 348.44C187.795 349.113 187.088 349.652 186.087 350.059ZM194.324 346.441C193.857 346.63 193.444 346.649 193.085 346.498C192.736 346.341 192.472 346.041 192.291 345.596L190.03 340.025L187.579 341.021L187.111 339.87L189.563 338.874L188.385 335.972L189.702 335.437L190.88 338.339L193.549 337.255L194.016 338.406L191.347 339.49L193.527 344.861C193.663 345.194 193.892 345.295 194.214 345.164L196.032 344.426L196.492 345.56L194.324 346.441ZM201.541 343.781C200.974 344.012 200.416 344.122 199.868 344.111C199.32 344.101 198.835 343.961 198.415 343.691C197.995 343.421 197.674 343.014 197.453 342.469C197.227 341.913 197.176 341.403 197.298 340.939C197.416 340.464 197.672 340.042 198.067 339.675C198.457 339.296 198.941 338.989 199.519 338.755L202.271 337.637L202.027 337.036C201.793 336.458 201.435 336.072 200.955 335.879C200.486 335.681 199.918 335.717 199.251 335.988C198.595 336.255 198.149 336.624 197.913 337.095C197.673 337.555 197.594 338.079 197.677 338.667L196.281 338.768C196.229 338.258 196.273 337.761 196.414 337.277C196.549 336.781 196.811 336.325 197.199 335.909C197.593 335.477 198.129 335.123 198.807 334.847C199.853 334.423 200.775 334.365 201.574 334.675C202.369 334.974 202.965 335.613 203.362 336.591L204.858 340.277C204.994 340.611 205.217 340.714 205.528 340.588L206.279 340.283L206.732 341.401L205.582 341.868C205.215 342.017 204.879 342.037 204.576 341.927C204.268 341.806 204.044 341.573 203.904 341.228L203.87 341.145L203.67 341.226C203.633 341.487 203.557 341.777 203.44 342.097C203.33 342.4 203.127 342.697 202.83 342.986C202.537 343.286 202.108 343.551 201.541 343.781ZM201.23 342.586C202.008 342.27 202.544 341.787 202.837 341.137C203.137 340.471 203.117 339.722 202.779 338.888L202.704 338.704L200.003 339.802C199.48 340.014 199.094 340.307 198.844 340.68C198.601 341.038 198.572 341.445 198.757 341.901C198.942 342.357 199.259 342.643 199.707 342.758C200.167 342.869 200.674 342.812 201.23 342.586ZM206.27 336.887L206.175 336.653C205.828 335.797 205.702 334.993 205.798 334.242C205.895 333.49 206.17 332.828 206.624 332.255C207.078 331.682 207.655 331.253 208.355 330.969C209.211 330.621 209.935 330.521 210.526 330.67C211.124 330.803 211.615 331.024 212 331.334L212.234 331.239L211.685 329.888L212.936 329.38L217.018 339.437C217.199 339.882 217.219 340.282 217.078 340.637C216.937 340.992 216.633 341.264 216.166 341.454L210.63 343.703L210.156 342.535L215.342 340.429C215.676 340.293 215.775 340.059 215.64 339.725L214.38 336.623L214.147 336.718C214.113 337.017 214.021 337.332 213.871 337.665C213.721 337.998 213.483 338.321 213.157 338.635C212.827 338.938 212.373 339.206 211.794 339.441C211.094 339.726 210.382 339.821 209.657 339.727C208.932 339.633 208.273 339.35 207.681 338.878C207.083 338.396 206.613 337.732 206.27 336.887ZM211.671 338.132C212.516 337.788 213.091 337.244 213.397 336.498C213.714 335.747 213.683 334.905 213.304 333.971L213.25 333.838C212.866 332.893 212.301 332.267 211.556 331.961C210.816 331.64 210.024 331.651 209.179 331.994C208.346 332.333 207.765 332.88 207.436 333.635C207.115 334.374 207.146 335.216 207.53 336.161L207.584 336.295C207.963 337.229 208.528 337.854 209.278 338.171C210.039 338.483 210.837 338.47 211.671 338.132ZM219.008 336.414L215.698 328.258L216.982 327.737L217.388 328.737L217.621 328.642C217.622 328.228 217.738 327.876 217.97 327.588C218.203 327.299 218.564 327.055 219.053 326.856L220.02 326.464L220.508 327.664L219.457 328.091C218.868 328.33 218.457 328.691 218.226 329.174C218.001 329.641 218.028 330.219 218.308 330.909L220.326 335.879L219.008 336.414ZM227.614 333.19C227.047 333.42 226.489 333.53 225.941 333.52C225.393 333.509 224.909 333.369 224.489 333.1C224.068 332.83 223.748 332.423 223.526 331.878C223.301 331.322 223.249 330.812 223.371 330.348C223.489 329.873 223.746 329.451 224.14 329.083C224.531 328.705 225.015 328.398 225.593 328.163L228.345 327.045L228.101 326.445C227.866 325.867 227.509 325.481 227.029 325.287C226.56 325.089 225.992 325.126 225.325 325.397C224.669 325.663 224.223 326.032 223.987 326.504C223.746 326.964 223.668 327.488 223.751 328.076L222.354 328.177C222.303 327.667 222.347 327.17 222.487 326.685C222.623 326.19 222.884 325.734 223.272 325.317C223.666 324.885 224.203 324.531 224.881 324.256C225.926 323.831 226.848 323.774 227.647 324.084C228.442 324.383 229.038 325.022 229.435 326L230.932 329.686C231.067 330.019 231.29 330.123 231.602 329.997L232.352 329.692L232.806 330.809L231.655 331.277C231.288 331.426 230.953 331.445 230.649 331.335C230.341 331.214 230.117 330.982 229.977 330.637L229.943 330.554L229.743 330.635C229.707 330.896 229.63 331.186 229.514 331.505C229.404 331.809 229.201 332.105 228.903 332.394C228.611 332.695 228.181 332.96 227.614 333.19ZM227.304 331.995C228.082 331.679 228.618 331.196 228.911 330.546C229.21 329.88 229.191 329.13 228.852 328.296L228.778 328.113L226.076 329.21C225.554 329.423 225.167 329.715 224.918 330.089C224.674 330.447 224.645 330.854 224.83 331.309C225.015 331.765 225.332 332.051 225.781 332.167C226.24 332.278 226.748 332.221 227.304 331.995ZM234.61 330.076L231.299 321.921L232.584 321.399L232.997 322.416L233.23 322.321C233.268 321.969 233.416 321.598 233.672 321.209C233.929 320.82 234.379 320.495 235.024 320.233C235.658 319.975 236.226 319.907 236.728 320.026C237.241 320.142 237.667 320.364 238.008 320.692L238.241 320.597C238.268 320.12 238.414 319.665 238.679 319.234C238.955 318.798 239.438 318.44 240.127 318.16C240.672 317.938 241.195 317.855 241.697 317.911C242.198 317.966 242.652 318.158 243.057 318.485C243.468 318.797 243.791 319.242 244.026 319.821L246.267 325.341L244.95 325.876L242.756 320.472C242.535 319.928 242.2 319.565 241.751 319.385C241.309 319.189 240.804 319.206 240.237 319.436C239.637 319.68 239.221 320.076 238.99 320.623C238.77 321.166 238.809 321.804 239.107 322.538L241.097 327.441L239.78 327.976L237.586 322.572C237.365 322.028 237.03 321.665 236.581 321.485C236.139 321.289 235.635 321.306 235.068 321.536C234.467 321.78 234.051 322.176 233.82 322.723C233.6 323.266 233.639 323.904 233.937 324.638L235.928 329.541L234.61 330.076ZM162.224 381.605C161.857 381.754 161.484 381.808 161.105 381.768C160.732 381.712 160.396 381.57 160.097 381.342C159.797 381.114 159.573 380.817 159.424 380.45C159.27 380.072 159.221 379.697 159.277 379.324C159.333 378.952 159.478 378.621 159.71 378.332C159.938 378.033 160.241 377.806 160.619 377.652C160.997 377.499 161.372 377.45 161.745 377.506C162.124 377.546 162.458 377.683 162.746 377.915C163.046 378.143 163.273 378.446 163.426 378.824C163.579 379.202 163.628 379.577 163.572 379.95C163.516 380.322 163.366 380.655 163.123 380.948C162.89 381.237 162.591 381.456 162.224 381.605ZM180.061 377.06L178.253 372.607L171.169 367.072L172.77 366.422L178.18 370.752L178.414 370.657L179.274 363.78L180.875 363.129L179.654 372.038L181.462 376.491L180.061 377.06ZM189.652 373.436C188.829 373.77 188.031 373.894 187.258 373.806C186.495 373.714 185.81 373.43 185.201 372.951C184.599 372.458 184.124 371.783 183.777 370.927L183.689 370.71C183.346 369.865 183.218 369.055 183.305 368.281C183.404 367.503 183.695 366.815 184.177 366.218C184.671 365.616 185.329 365.147 186.152 364.813C186.975 364.479 187.767 364.358 188.53 364.45C189.303 364.537 189.991 364.827 190.593 365.321C191.206 365.81 191.684 366.478 192.027 367.323L192.115 367.539C192.463 368.396 192.587 369.213 192.489 369.991C192.397 370.754 192.104 371.436 191.61 372.038C191.128 372.636 190.475 373.102 189.652 373.436ZM189.171 372.252C190.039 371.899 190.617 371.347 190.908 370.594C191.204 369.826 191.163 368.975 190.784 368.041L190.723 367.891C190.344 366.957 189.783 366.324 189.039 365.991C188.302 365.643 187.5 365.645 186.633 365.997C185.777 366.345 185.2 366.903 184.903 367.671C184.602 368.428 184.641 369.274 185.02 370.208L185.081 370.358C185.46 371.292 186.024 371.931 186.772 372.274C187.515 372.607 188.315 372.599 189.171 372.252ZM199.277 369.429C198.688 369.668 198.091 369.762 197.487 369.709C196.894 369.652 196.351 369.432 195.859 369.049C195.373 368.651 194.984 368.09 194.691 367.367L192.687 362.431L194.004 361.896L195.967 366.732C196.297 367.544 196.736 368.052 197.285 368.256C197.846 368.456 198.471 368.416 199.16 368.136C199.938 367.82 200.474 367.304 200.766 366.59C201.059 365.875 201 365.012 200.589 364L198.924 359.897L200.241 359.362L203.552 367.518L202.268 368.039L201.706 366.655L201.472 366.75C201.452 367.211 201.291 367.691 200.988 368.19C200.681 368.677 200.111 369.09 199.277 369.429ZM209.127 365.253L204.902 354.846L201.15 356.37L200.635 355.102L209.541 351.485L210.055 352.753L206.303 354.277L210.528 364.684L209.127 365.253ZM218.005 361.821C217.416 362.061 216.819 362.154 216.215 362.102C215.622 362.045 215.08 361.825 214.588 361.442C214.102 361.043 213.713 360.482 213.419 359.76L211.415 354.823L212.733 354.288L214.696 359.124C215.026 359.936 215.465 360.444 216.014 360.648C216.574 360.848 217.199 360.808 217.888 360.528C218.667 360.212 219.202 359.697 219.495 358.982C219.788 358.267 219.729 357.404 219.318 356.392L217.652 352.289L218.97 351.754L222.28 359.91L220.996 360.431L220.434 359.047L220.201 359.142C220.181 359.603 220.02 360.083 219.717 360.582C219.41 361.069 218.839 361.483 218.005 361.821ZM229.651 357.188C228.806 357.531 228.079 357.638 227.47 357.51C226.873 357.377 226.385 357.148 226.006 356.823L225.773 356.917L226.321 358.268L225.037 358.79L220.298 347.115L221.615 346.58L223.565 351.383L223.799 351.289C223.828 350.979 223.92 350.663 224.075 350.341C224.224 350.008 224.465 349.691 224.795 349.388C225.132 349.07 225.584 348.795 226.151 348.565C226.863 348.276 227.577 348.186 228.295 348.296C229.02 348.39 229.683 348.684 230.285 349.178C230.883 349.661 231.357 350.336 231.709 351.203L231.797 351.42C232.15 352.287 232.276 353.11 232.178 353.888C232.09 354.662 231.82 355.335 231.366 355.908C230.923 356.477 230.352 356.903 229.651 357.188ZM228.827 356.163C229.672 355.819 230.247 355.275 230.553 354.529C230.866 353.767 230.826 352.903 230.433 351.935L230.372 351.785C229.98 350.818 229.408 350.176 228.658 349.859C227.914 349.526 227.12 349.532 226.275 349.875C225.441 350.214 224.862 350.766 224.539 351.532C224.222 352.283 224.259 353.141 224.652 354.109L224.713 354.259C225.106 355.226 225.679 355.874 226.434 356.202C227.196 356.514 227.993 356.501 228.827 356.163ZM239.6 353.147C238.777 353.481 237.984 353.602 237.222 353.51C236.455 353.407 235.77 353.109 235.169 352.615C234.567 352.121 234.096 351.458 233.758 350.624L233.677 350.423C233.334 349.578 233.206 348.769 233.293 347.995C233.381 347.221 233.66 346.538 234.132 345.945C234.599 345.341 235.227 344.878 236.016 344.558C236.783 344.246 237.529 344.137 238.254 344.232C238.974 344.315 239.625 344.594 240.207 345.07C240.788 345.546 241.246 346.196 241.58 347.019L241.824 347.619L235.17 350.322C235.56 351.187 236.123 351.761 236.86 352.045C237.592 352.317 238.359 352.291 239.159 351.965C239.86 351.681 240.333 351.301 240.581 350.825C240.828 350.349 240.961 349.848 240.981 349.322L242.338 349.411C242.311 349.824 242.218 350.263 242.057 350.73C241.908 351.192 241.642 351.637 241.259 352.065C240.887 352.488 240.334 352.848 239.6 353.147ZM234.747 349.231L240.05 347.077C239.699 346.339 239.198 345.856 238.548 345.627C237.91 345.395 237.224 345.427 236.49 345.725C235.745 346.028 235.22 346.487 234.913 347.104C234.606 347.721 234.551 348.43 234.747 349.231Z" fill="black"/>
<path d="M109.45 291.283L108.796 289.673C108.394 288.681 108.232 287.796 108.313 287.02C108.393 286.243 108.666 285.531 109.131 284.883C109.604 284.216 110.234 283.564 111.021 282.928L112.107 282.036C112.592 281.633 112.98 281.222 113.269 280.804C113.572 280.38 113.755 279.934 113.817 279.465C113.875 278.982 113.799 278.483 113.589 277.966L113.556 277.885C113.231 277.083 112.705 276.568 111.98 276.341C111.248 276.099 110.441 276.158 109.558 276.517C108.648 276.887 108.006 277.432 107.634 278.153C107.276 278.869 107.289 279.702 107.676 280.654L107.808 280.98L105.688 281.841L105.564 281.535C105.145 280.502 105.016 279.541 105.178 278.653C105.334 277.75 105.728 276.949 106.362 276.248C106.996 275.547 107.802 274.998 108.78 274.601C109.759 274.203 110.703 274.034 111.613 274.091C112.536 274.144 113.35 274.415 114.056 274.904C114.774 275.388 115.316 276.078 115.68 276.975L115.754 277.158C116.129 278.082 116.258 278.925 116.139 279.685C116.02 280.446 115.715 281.156 115.223 281.815C114.744 282.468 114.138 283.102 113.406 283.716L112.353 284.571C111.791 285.021 111.36 285.441 111.06 285.833C110.768 286.205 110.59 286.585 110.527 286.975C110.477 287.36 110.551 287.796 110.75 288.286L110.833 288.49L118.884 285.219L119.662 287.135L109.45 291.283ZM123.795 285.789C123.32 285.982 122.855 285.988 122.402 285.808C121.963 285.623 121.644 285.285 121.445 284.796C121.247 284.307 121.243 283.849 121.434 283.423C121.633 282.978 121.971 282.659 122.446 282.466C122.922 282.273 123.38 282.269 123.819 282.454C124.272 282.635 124.595 282.962 124.788 283.438C124.987 283.927 124.986 284.394 124.787 284.839C124.601 285.279 124.271 285.595 123.795 285.789ZM136.066 280.472L128.174 267.055L130.375 266.161L137.276 278.247L137.602 278.114L134.615 264.439L138.467 262.874L145.857 274.761L146.183 274.628L142.687 261.16L144.888 260.266L148.581 275.388L144.728 276.953L137.224 264.899L136.897 265.031L139.938 278.898L136.066 280.472ZM157.44 272.122C156.421 272.536 155.445 272.687 154.513 272.574C153.576 272.449 152.732 272.087 151.983 271.489C151.242 270.872 150.662 270.047 150.242 269.014L150.143 268.769C149.718 267.723 149.559 266.727 149.666 265.781C149.767 264.822 150.106 263.98 150.682 263.255C151.267 262.511 152.055 261.937 153.047 261.535C154.012 261.143 154.943 261.018 155.839 261.16C156.744 261.283 157.555 261.643 158.271 262.238C158.988 262.834 159.553 263.641 159.967 264.66L160.289 265.455L152.564 268.593C152.95 269.465 153.529 270.053 154.302 270.357C155.082 270.642 155.893 270.613 156.736 270.271C157.524 269.95 158.043 269.534 158.294 269.02C158.558 268.501 158.705 267.967 158.735 267.416L160.832 267.609C160.796 268.067 160.68 268.581 160.484 269.152C160.302 269.716 159.976 270.26 159.508 270.783C159.04 271.306 158.35 271.752 157.44 272.122ZM151.931 266.974L157.496 264.714C157.132 263.975 156.621 263.494 155.96 263.272C155.295 263.036 154.568 263.078 153.78 263.398C152.992 263.718 152.434 264.198 152.108 264.837C151.79 265.457 151.731 266.169 151.931 266.974ZM170.545 266.798C169.567 267.195 168.741 267.325 168.068 267.187C167.408 267.044 166.861 266.807 166.426 266.477L166.1 266.609L166.679 268.036L164.62 268.872L158.828 254.603L160.928 253.75L163.195 259.336L163.521 259.203C163.574 258.865 163.686 258.519 163.859 258.164C164.026 257.795 164.3 257.438 164.683 257.093C165.065 256.748 165.582 256.443 166.234 256.178C167.077 255.835 167.934 255.725 168.806 255.845C169.678 255.966 170.482 256.328 171.218 256.932C171.953 257.535 172.539 258.374 172.975 259.447L173.099 259.753C173.54 260.84 173.701 261.859 173.58 262.811C173.468 263.743 173.141 264.556 172.6 265.251C172.073 265.94 171.388 266.456 170.545 266.798ZM169.189 265.212C170.1 264.842 170.728 264.246 171.075 263.425C171.436 262.597 171.396 261.64 170.954 260.553L170.88 260.369C170.444 259.296 169.816 258.586 168.994 258.239C168.173 257.892 167.3 257.906 166.376 258.281C165.479 258.645 164.85 259.241 164.489 260.068C164.142 260.89 164.187 261.838 164.623 262.911L164.697 263.095C165.138 264.182 165.77 264.899 166.591 265.246C167.426 265.588 168.292 265.576 169.189 265.212ZM182.282 261.698L181.488 259.741L183.404 258.963L179.2 248.607L177.284 249.386L176.49 247.429L182.197 245.111C184.099 244.338 185.749 244.23 187.146 244.786C188.557 245.337 189.657 246.584 190.446 248.527L191.53 251.198C192.319 253.141 192.399 254.802 191.772 256.181C191.152 257.541 189.892 258.607 187.989 259.38L182.282 261.698ZM185.609 258.02L187.199 257.374C188.435 256.871 189.226 256.186 189.57 255.318C189.914 254.45 189.835 253.398 189.333 252.161L188.191 249.348C187.683 248.098 187.007 247.289 186.161 246.92C185.314 246.551 184.273 246.618 183.037 247.12L181.447 247.766L185.609 258.02ZM201.151 254.366C200.132 254.78 199.156 254.931 198.224 254.819C197.287 254.693 196.443 254.331 195.694 253.733C194.953 253.116 194.373 252.291 193.953 251.258L193.854 251.013C193.429 249.967 193.27 248.971 193.377 248.025C193.478 247.066 193.817 246.224 194.393 245.499C194.978 244.755 195.766 244.182 196.758 243.779C197.723 243.387 198.654 243.262 199.55 243.404C200.455 243.527 201.266 243.887 201.982 244.482C202.699 245.078 203.264 245.885 203.678 246.904L204 247.699L196.275 250.837C196.661 251.709 197.24 252.297 198.012 252.601C198.793 252.886 199.604 252.857 200.447 252.515C201.235 252.194 201.754 251.778 202.005 251.264C202.269 250.745 202.416 250.211 202.446 249.66L204.543 249.854C204.507 250.311 204.391 250.825 204.195 251.396C204.013 251.96 203.687 252.504 203.219 253.027C202.751 253.55 202.061 253.996 201.151 254.366ZM195.642 249.218L201.207 246.958C200.843 246.219 200.332 245.738 199.671 245.516C199.006 245.28 198.279 245.322 197.491 245.642C196.703 245.962 196.145 246.442 195.819 247.081C195.501 247.701 195.442 248.413 195.642 249.218ZM212.565 249.729C211.287 250.248 210.112 250.393 209.037 250.165C207.963 249.936 207.097 249.283 206.437 248.205L208.204 246.942C208.539 247.455 208.901 247.822 209.292 248.043C209.683 248.264 210.096 248.366 210.531 248.347C210.981 248.323 211.429 248.22 211.878 248.037C212.544 247.767 213.001 247.431 213.249 247.029C213.511 246.622 213.56 246.214 213.394 245.807C213.229 245.399 212.937 245.169 212.52 245.117C212.104 245.065 211.537 245.113 210.822 245.261L210.079 245.42C209.35 245.574 208.66 245.648 208.009 245.643C207.358 245.639 206.787 245.499 206.295 245.223C205.804 244.948 205.428 244.491 205.169 243.853C204.783 242.901 204.838 242.024 205.335 241.22C205.827 240.403 206.657 239.758 207.825 239.283C208.953 238.825 209.982 238.708 210.912 238.931C211.85 239.136 212.604 239.629 213.174 240.411L211.441 241.756C211.071 241.194 210.639 240.871 210.145 240.786C209.646 240.688 209.105 240.758 208.52 240.995C207.95 241.227 207.546 241.518 207.308 241.868C207.064 242.204 207.02 242.563 207.174 242.943C207.34 243.351 207.617 243.586 208.007 243.65C208.411 243.707 208.903 243.673 209.485 243.548L210.248 243.38C211.018 243.21 211.746 243.112 212.432 243.087C213.119 243.061 213.714 243.183 214.219 243.453C214.738 243.717 215.136 244.189 215.411 244.869C215.82 245.874 215.763 246.807 215.242 247.668C214.721 248.529 213.828 249.216 212.565 249.729ZM219.04 246.766L214.961 236.717L217.06 235.864L221.14 245.914L219.04 246.766ZM215.466 234.921C215.059 235.086 214.66 235.098 214.27 234.955C213.887 234.794 213.611 234.503 213.44 234.081C213.269 233.66 213.267 233.265 213.434 232.897C213.609 232.509 213.9 232.232 214.308 232.067C214.729 231.896 215.131 231.891 215.513 232.052C215.889 232.2 216.163 232.484 216.334 232.906C216.505 233.327 216.51 233.729 216.349 234.111C216.182 234.48 215.888 234.749 215.466 234.921ZM221.747 239.873L221.623 239.567C221.193 238.507 221.036 237.518 221.154 236.599C221.286 235.675 221.622 234.866 222.163 234.171C222.704 233.476 223.396 232.958 224.238 232.616C225.217 232.218 226.039 232.098 226.704 232.255C227.383 232.407 227.93 232.644 228.346 232.966L228.672 232.833L228.084 231.386L230.123 230.558L235.038 242.666C235.286 243.278 235.301 243.842 235.083 244.358C234.879 244.868 234.464 245.25 233.839 245.504L227.072 248.253L226.327 246.418L232.442 243.934C232.836 243.774 232.95 243.49 232.785 243.083L231.486 239.882L231.16 240.015C231.11 240.32 231.001 240.657 230.834 241.026C230.667 241.394 230.392 241.751 230.01 242.097C229.642 242.436 229.124 242.741 228.459 243.012C227.616 243.354 226.755 243.474 225.875 243.373C225.002 243.252 224.204 242.904 223.479 242.327C222.749 241.737 222.172 240.919 221.747 239.873ZM228.285 240.945C229.195 240.576 229.826 239.987 230.179 239.178C230.54 238.351 230.513 237.428 230.099 236.409L230.025 236.225C229.6 235.179 228.983 234.496 228.172 234.176C227.356 233.843 226.486 233.864 225.562 234.239C224.665 234.603 224.034 235.192 223.668 236.006C223.309 236.8 223.343 237.721 223.768 238.767L223.842 238.951C224.256 239.97 224.873 240.653 225.695 241C226.524 241.328 227.388 241.31 228.285 240.945ZM237.293 239.352L233.214 229.302L235.272 228.466L235.885 229.975L236.211 229.842C236.235 229.357 236.421 228.839 236.766 228.287C237.112 227.735 237.767 227.263 238.732 226.871C239.493 226.562 240.235 226.458 240.957 226.561C241.693 226.657 242.357 226.949 242.951 227.437C243.539 227.91 244.009 228.582 244.362 229.451L246.812 235.485L244.712 236.338L242.329 230.467C241.976 229.598 241.499 229.047 240.899 228.816C240.293 228.572 239.61 228.604 238.849 228.913C237.979 229.266 237.395 229.836 237.097 230.622C236.812 231.402 236.891 232.336 237.332 233.423L239.392 238.499L237.293 239.352Z" fill="black"/>
<path d="M126.555 319.206C125.509 319.631 124.501 319.819 123.531 319.77C122.562 319.721 121.699 319.43 120.945 318.897C120.204 318.359 119.633 317.594 119.23 316.602L119.081 316.235L121.221 315.365L121.353 315.692C121.718 316.589 122.299 317.183 123.099 317.476C123.906 317.75 124.799 317.688 125.778 317.29C126.756 316.893 127.418 316.339 127.763 315.629C128.107 314.919 128.128 314.19 127.825 313.443L127.75 313.259C127.535 312.729 127.232 312.354 126.842 312.132C126.451 311.911 126.008 311.814 125.513 311.841C125.012 311.855 124.489 311.972 123.946 312.193L121.357 313.244L120.356 310.778L124.17 305.785L124.054 305.5L116.391 308.613L115.613 306.697L125.6 302.64L126.775 305.534L123.144 310.334L123.26 310.619L124.136 310.263C124.856 309.971 125.591 309.831 126.34 309.843C127.089 309.855 127.773 310.06 128.394 310.457C129.028 310.849 129.518 311.473 129.866 312.329L129.965 312.573C130.335 313.484 130.44 314.367 130.281 315.223C130.116 316.066 129.717 316.837 129.084 317.538C128.444 318.225 127.602 318.781 126.555 319.206ZM135.689 315.496C135.214 315.689 134.749 315.696 134.296 315.516C133.857 315.33 133.538 314.993 133.339 314.503C133.141 314.014 133.137 313.557 133.328 313.131C133.527 312.686 133.865 312.367 134.34 312.173C134.816 311.98 135.273 311.976 135.713 312.162C136.166 312.342 136.489 312.67 136.682 313.146C136.881 313.635 136.88 314.102 136.681 314.547C136.495 314.986 136.165 315.303 135.689 315.496ZM149.59 309.517L139.823 296.862L142.106 295.935L150.801 307.41L151.066 307.303L149.281 293.02L151.564 292.093L153.402 307.968L149.59 309.517ZM159.356 305.55L155.277 295.5L157.376 294.647L161.456 304.697L159.356 305.55ZM155.783 293.704C155.375 293.869 154.976 293.881 154.586 293.739C154.204 293.577 153.927 293.286 153.756 292.865C153.585 292.443 153.583 292.048 153.75 291.68C153.925 291.292 154.216 291.016 154.624 290.85C155.045 290.679 155.447 290.674 155.829 290.835C156.206 290.983 156.479 291.268 156.65 291.689C156.821 292.11 156.826 292.512 156.665 292.894C156.498 293.263 156.204 293.533 155.783 293.704ZM168.845 302.028C168.016 302.364 167.166 302.472 166.294 302.352C165.422 302.231 164.614 301.878 163.87 301.294C163.134 300.691 162.546 299.845 162.105 298.758L161.981 298.452C161.545 297.379 161.38 296.369 161.487 295.423C161.594 294.478 161.918 293.657 162.459 292.963C163 292.268 163.692 291.749 164.534 291.407C165.187 291.142 165.763 291.003 166.264 290.989C166.779 290.97 167.231 291.032 167.621 291.174C168.006 291.303 168.328 291.473 168.588 291.684L168.914 291.551L166.647 285.966L168.746 285.113L174.539 299.383L172.48 300.219L171.901 298.792L171.575 298.924C171.493 299.464 171.259 300.018 170.872 300.587C170.499 301.15 169.824 301.63 168.845 302.028ZM168.692 299.953C169.602 299.583 170.231 298.987 170.578 298.166C170.939 297.338 170.898 296.381 170.457 295.294L170.383 295.111C169.947 294.037 169.318 293.327 168.497 292.98C167.675 292.633 166.802 292.647 165.878 293.022C164.982 293.386 164.353 293.982 163.992 294.809C163.645 295.631 163.689 296.579 164.125 297.652L164.2 297.836C164.641 298.923 165.272 299.64 166.094 299.987C166.929 300.329 167.795 300.317 168.692 299.953ZM182.351 296.541C181.332 296.955 180.357 297.106 179.425 296.994C178.487 296.868 177.644 296.506 176.895 295.908C176.153 295.291 175.573 294.466 175.154 293.434L175.055 293.189C174.63 292.143 174.471 291.146 174.578 290.201C174.679 289.241 175.018 288.399 175.594 287.674C176.179 286.93 176.967 286.357 177.959 285.954C178.923 285.562 179.854 285.437 180.751 285.58C181.656 285.703 182.466 286.062 183.183 286.658C183.9 287.253 184.465 288.06 184.878 289.08L185.201 289.875L177.476 293.013C177.862 293.885 178.441 294.473 179.213 294.777C179.994 295.061 180.805 295.032 181.647 294.69C182.436 294.37 182.955 293.953 183.206 293.44C183.47 292.921 183.617 292.386 183.647 291.836L185.743 292.029C185.707 292.487 185.592 293.001 185.396 293.571C185.213 294.136 184.888 294.68 184.42 295.202C183.951 295.725 183.262 296.171 182.351 296.541ZM176.843 291.394L182.407 289.134C182.044 288.395 181.532 287.914 180.872 287.691C180.206 287.455 179.479 287.497 178.691 287.817C177.903 288.137 177.346 288.617 177.02 289.256C176.702 289.876 176.643 290.589 176.843 291.394ZM194.356 291.665C193.351 292.073 192.371 292.234 191.418 292.146C190.472 292.039 189.618 291.69 188.855 291.097C188.092 290.505 187.496 289.679 187.065 288.619L186.941 288.313C186.511 287.253 186.366 286.251 186.505 285.308C186.639 284.351 187.008 283.505 187.611 282.769C188.228 282.028 189.04 281.453 190.045 281.044C191.051 280.636 192.033 280.482 192.992 280.583C193.951 280.685 194.812 281.031 195.575 281.624C196.333 282.203 196.926 283.022 197.357 284.082L197.481 284.388C197.911 285.448 198.059 286.456 197.925 287.413C197.791 288.37 197.416 289.219 196.799 289.96C196.176 290.688 195.362 291.256 194.356 291.665ZM193.595 289.789C194.519 289.414 195.148 288.818 195.481 288.002C195.823 287.167 195.781 286.226 195.357 285.179L195.282 284.996C194.857 283.95 194.241 283.25 193.433 282.898C192.62 282.532 191.744 282.539 190.807 282.92C189.896 283.29 189.27 283.892 188.929 284.727C188.595 285.544 188.641 286.475 189.065 287.521L189.14 287.705C189.565 288.751 190.184 289.457 190.997 289.824C191.819 290.171 192.685 290.159 193.595 289.789ZM207.206 286.113L201.414 271.843L210.403 268.192L211.214 270.19L204.426 272.947L206.089 277.044L212.306 274.519L213.117 276.517L206.9 279.042L208.597 283.221L215.486 280.422L216.297 282.42L207.206 286.113ZM222.927 280.059C222.098 280.396 221.247 280.504 220.375 280.383C219.503 280.262 218.695 279.91 217.952 279.326C217.216 278.722 216.627 277.877 216.186 276.79L216.062 276.484C215.626 275.41 215.462 274.401 215.568 273.455C215.675 272.509 215.999 271.689 216.54 270.994C217.081 270.299 217.773 269.781 218.616 269.439C219.268 269.174 219.845 269.035 220.346 269.021C220.86 269.002 221.313 269.063 221.703 269.206C222.087 269.334 222.41 269.504 222.669 269.715L222.996 269.583L220.728 263.998L222.828 263.145L228.62 277.414L226.561 278.25L225.982 276.823L225.656 276.956C225.574 277.496 225.34 278.05 224.954 278.618C224.581 279.181 223.905 279.662 222.927 280.059ZM222.773 277.984C223.684 277.615 224.312 277.019 224.659 276.197C225.02 275.37 224.98 274.413 224.538 273.325L224.464 273.142C224.028 272.068 223.4 271.358 222.578 271.011C221.757 270.664 220.884 270.678 219.96 271.054C219.063 271.418 218.434 272.014 218.073 272.841C217.726 273.663 217.771 274.61 218.207 275.684L218.281 275.867C218.722 276.954 219.354 277.672 220.175 278.019C221.01 278.36 221.876 278.349 222.773 277.984ZM231.71 276.159L227.631 266.109L229.73 265.256L233.81 275.306L231.71 276.159ZM228.137 264.313C227.729 264.478 227.33 264.49 226.94 264.348C226.558 264.186 226.281 263.895 226.11 263.474C225.939 263.052 225.937 262.657 226.104 262.289C226.279 261.901 226.57 261.624 226.978 261.459C227.399 261.288 227.801 261.283 228.183 261.444C228.56 261.592 228.833 261.877 229.004 262.298C229.175 262.719 229.18 263.121 229.019 263.503C228.852 263.872 228.558 264.142 228.137 264.313ZM240.696 272.508C240.085 272.757 239.521 272.772 239.005 272.554C238.503 272.331 238.128 271.913 237.88 271.302L235.339 265.044L232.567 266.17L231.847 264.396L234.619 263.27L233.271 259.948L235.37 259.095L236.719 262.417L239.715 261.2L240.435 262.974L237.439 264.191L239.83 270.082C239.996 270.49 240.269 270.616 240.649 270.462L242.748 269.609L243.468 271.382L240.696 272.508ZM246.261 270.248L242.181 260.198L244.281 259.346L248.36 269.395L246.261 270.248ZM242.687 258.402C242.279 258.568 241.88 258.579 241.49 258.437C241.108 258.276 240.832 257.984 240.661 257.563C240.49 257.142 240.488 256.747 240.654 256.378C240.829 255.991 241.121 255.714 241.528 255.548C241.95 255.377 242.351 255.372 242.733 255.534C243.11 255.682 243.384 255.966 243.555 256.387C243.726 256.809 243.731 257.21 243.569 257.593C243.402 257.961 243.108 258.231 242.687 258.402ZM251.476 268.13L247.397 258.08L249.455 257.244L250.067 258.752L250.394 258.62C250.418 258.135 250.604 257.616 250.949 257.064C251.295 256.512 251.95 256.04 252.915 255.648C253.676 255.339 254.418 255.236 255.14 255.338C255.876 255.435 256.54 255.727 257.134 256.214C257.722 256.688 258.192 257.359 258.545 258.229L260.995 264.263L258.895 265.116L256.512 259.245C256.159 258.375 255.682 257.825 255.082 257.594C254.476 257.349 253.793 257.381 253.032 257.691C252.162 258.044 251.578 258.613 251.28 259.399C250.995 260.18 251.074 261.114 251.515 262.201L253.575 267.277L251.476 268.13ZM261.508 258.261L261.384 257.955C260.953 256.895 260.797 255.906 260.915 254.987C261.046 254.063 261.383 253.254 261.924 252.559C262.465 251.864 263.157 251.346 263.999 251.003C264.977 250.606 265.799 250.486 266.465 250.643C267.144 250.795 267.691 251.031 268.106 251.353L268.432 251.221L267.845 249.774L269.883 248.946L274.798 261.054C275.047 261.666 275.062 262.229 274.844 262.745C274.639 263.256 274.225 263.638 273.6 263.892L266.833 266.641L266.088 264.806L272.203 262.322C272.597 262.162 272.711 261.878 272.546 261.47L271.246 258.27L270.92 258.403C270.87 258.708 270.762 259.045 270.595 259.413C270.428 259.782 270.153 260.139 269.771 260.484C269.402 260.824 268.885 261.129 268.219 261.4C267.377 261.742 266.515 261.862 265.635 261.761C264.763 261.64 263.965 261.291 263.24 260.715C262.51 260.125 261.933 259.307 261.508 258.261ZM268.045 259.333C268.956 258.963 269.587 258.374 269.94 257.566C270.3 256.739 270.274 255.816 269.86 254.796L269.786 254.613C269.361 253.567 268.743 252.883 267.933 252.564C267.117 252.23 266.247 252.251 265.323 252.627C264.426 252.991 263.794 253.58 263.428 254.393C263.07 255.188 263.103 256.108 263.528 257.155L263.603 257.338C264.016 258.358 264.634 259.041 265.456 259.388C266.285 259.716 267.148 259.697 268.045 259.333Z" fill="black"/>
</g>
<defs>
<filter id="filter0_d_16_1214" x="0" y="0" width="415.305" height="433.939" filterUnits="userSpaceOnUse" color-interpolation-filters="sRGB">
<feFlood flood-opacity="0" result="BackgroundImageFix"/>
<feColorMatrix in="SourceAlpha" type="matrix" values="0 0 0 0 0 0 0 0 0 0 0 0 0 0 0 0 0 0 127 0" result="hardAlpha"/>
<feOffset dy="12.5815"/>
<feComposite in2="hardAlpha" operator="out"/>
<feColorMatrix type="matrix" values="0 0 0 0 0 0 0 0 0 0 0 0 0 0 0 0 0 0 0.25 0"/>
<feBlend mode="normal" in2="BackgroundImageFix" result="effect1_dropShadow_16_1214"/>
<feBlend mode="normal" in="SourceGraphic" in2="effect1_dropShadow_16_1214" result="shape"/>
</filter>
</defs>
</svg>
