<svg width="416" height="434" viewBox="0 0 416 434" fill="none" xmlns="http://www.w3.org/2000/svg">
<g filter="url(#filter0_d_149_22)">
<rect width="327.22" height="316.346" transform="translate(293.682) rotate(68.1805)" fill="#BAE6FF"/>
<path d="M237.306 46.593C237.229 53.209 242.01 59.4464 245.056 56.5858C247.428 54.4329 245.305 45.0069 241.808 42.344C239.219 40.2535 237.405 41.9614 237.306 46.593Z" fill="#0C0C0C"/>
<path d="M256.778 36.009C255.418 39.0506 259.179 46.7836 263.229 49.2911C266.327 51.1575 268.219 49.8762 268.173 45.9073C268.175 41.7174 264.255 36.2734 260.569 35.2519C257.755 34.4447 257.446 34.5434 256.778 36.009Z" fill="#0C0C0C"/>
<path d="M226.615 65.0952C228.014 69.4544 237.603 76.5814 245.558 79.1165C248.02 79.9537 252.095 80.2559 255.612 79.9555C261.131 79.4481 261.883 79.1672 268.489 75.0275C274.829 71.055 275.769 70.1801 278.47 66.0126C281.899 60.6272 284.307 49.6948 282.611 46.9502C281.126 44.5488 279.713 46.0058 277.441 52.6648C274.914 59.9596 273.317 62.7687 269.622 66.2264C266.085 69.4901 259.018 72.5856 254.336 72.9493C248.775 73.3881 237.565 69.1805 231.067 64.2095C227.763 61.7105 225.671 62.0698 226.615 65.0952Z" fill="#0C0C0C"/>
<path d="M39.1533 146.343C37.6858 146.939 36.3545 147.013 35.1593 146.564C33.9778 146.11 33.0947 145.163 32.5099 143.722L31.9638 142.377L34.6543 141.284L35.2004 142.629C35.4597 143.268 35.8404 143.699 36.3427 143.923C36.8394 144.132 37.4071 144.108 38.0458 143.848C38.6436 143.605 39.0339 143.241 39.2166 142.755C39.4129 142.264 39.3786 141.692 39.1139 141.04L36.0522 133.498L33.6063 134.491L32.6134 132.045L39.3804 129.296L40.3733 131.742L38.7427 132.405L41.8044 139.947C42.4056 141.428 42.4654 142.726 41.9837 143.84C41.4964 144.94 40.5529 145.774 39.1533 146.343ZM50.6845 141.516C49.8964 141.836 49.1316 141.941 48.3903 141.831C47.6571 141.701 46.9978 141.383 46.4124 140.877C45.827 140.371 45.366 139.703 45.0295 138.874L42.5802 132.84L45.1484 131.797L47.515 137.627C47.8239 138.388 48.239 138.884 48.7604 139.116C49.2953 139.342 49.9093 139.314 50.6023 139.033C51.3904 138.712 51.8971 138.206 52.1223 137.513C52.342 136.806 52.2615 135.984 51.8808 135.046L49.7956 129.909L52.3638 128.866L56.4681 138.977L53.9406 140.004L53.4028 138.679L53.0359 138.828C53.0107 139.234 52.8402 139.691 52.5241 140.199C52.2081 140.707 51.5949 141.146 50.6845 141.516ZM63.6406 136.396C62.3225 136.931 61.1264 137.085 60.0522 136.856C58.978 136.628 58.1375 136.019 57.5306 135.031L59.6467 133.459C59.9349 133.896 60.2429 134.206 60.5706 134.39C60.9119 134.568 61.2705 134.652 61.6462 134.641C62.0301 134.612 62.419 134.517 62.8131 134.357C63.411 134.114 63.8112 133.833 64.0138 133.513C64.2109 133.18 64.246 132.857 64.1192 132.545C63.9923 132.232 63.7599 132.049 63.4219 131.997C63.0784 131.93 62.5857 131.964 61.9436 132.098L61.3316 132.228C60.5698 132.38 59.8499 132.458 59.1718 132.465C58.4882 132.457 57.8843 132.315 57.36 132.037C56.8356 131.759 56.4383 131.287 56.168 130.622C55.7598 129.616 55.815 128.699 56.3336 127.871C56.8468 127.029 57.7012 126.366 58.897 125.88C60.0248 125.422 61.0645 125.292 62.0159 125.492C62.9674 125.691 63.7241 126.151 64.2861 126.873L62.1993 128.575C61.8809 128.103 61.5078 127.827 61.0798 127.748C60.6654 127.663 60.2136 127.72 59.7244 127.918C59.2353 128.117 58.8974 128.357 58.711 128.639C58.519 128.907 58.4837 129.19 58.6051 129.489C58.7374 129.815 58.9726 130.005 59.3106 130.057C59.643 130.096 60.0568 130.063 60.5519 129.957L61.164 129.827C61.9801 129.654 62.7408 129.558 63.4461 129.541C64.1594 129.505 64.7782 129.625 65.3025 129.903C65.8349 130.162 66.2445 130.644 66.5314 131.351C66.9616 132.411 66.9081 133.39 66.3708 134.289C65.8415 135.169 64.9315 135.871 63.6406 136.396ZM73.6884 131.982C73.0226 132.252 72.3963 132.269 71.8096 132.033C71.2309 131.777 70.8009 131.303 70.5196 130.609L68.2027 124.902L65.6752 125.928L64.8147 123.808L67.3421 122.782L66.0678 119.643L68.636 118.599L69.9103 121.739L72.6823 120.613L73.5429 122.733L70.7709 123.859L72.9058 129.118C73.0712 129.525 73.3442 129.652 73.7247 129.497L75.6814 128.703L76.542 130.823L73.6884 131.982ZM80.1712 129.348L72.5037 115.841L75.1738 114.756L81.5909 126.587L81.9577 126.438L78.7204 113.316L83.3676 111.428L90.1923 123.093L90.5592 122.944L86.9142 109.987L89.5843 108.903L93.5014 123.934L88.8542 125.821L81.8729 113.887L81.506 114.036L84.8184 127.461L80.1712 129.348ZM102.027 120.803C101.021 121.211 100.046 121.362 99.1 121.256C98.1625 121.13 97.3191 120.768 96.5699 120.17C95.8287 119.553 95.2429 118.714 94.8127 117.654L94.7134 117.41C94.2831 116.35 94.1213 115.347 94.2281 114.401C94.3294 113.442 94.675 112.597 95.265 111.867C95.8494 111.123 96.6444 110.546 97.6499 110.138C98.6419 109.735 99.5957 109.609 100.512 109.759C101.422 109.896 102.241 110.276 102.968 110.898C103.69 111.507 104.261 112.328 104.68 113.361L105.036 114.238L97.6781 117.227C97.9867 117.909 98.4738 118.368 99.1395 118.604C99.8052 118.84 100.491 118.815 101.198 118.527C101.918 118.235 102.385 117.863 102.597 117.413C102.81 116.962 102.928 116.511 102.95 116.059L105.496 116.307C105.449 116.737 105.328 117.238 105.132 117.808C104.944 118.359 104.612 118.906 104.136 119.448C103.654 119.976 102.951 120.428 102.027 120.803ZM96.9207 115.302L101.649 113.381C101.358 112.819 100.93 112.447 100.365 112.264C99.814 112.077 99.2056 112.118 98.5397 112.389C97.8467 112.67 97.3681 113.07 97.1039 113.589C96.8397 114.108 96.7786 114.679 96.9207 115.302ZM115.258 115.428C114.347 115.798 113.584 115.926 112.968 115.812C112.352 115.698 111.851 115.498 111.466 115.211L111.099 115.36L111.595 116.583L109.068 117.61L103.276 103.341L105.844 102.298L108.004 107.618L108.371 107.469C108.421 107.164 108.524 106.853 108.68 106.536C108.85 106.214 109.111 105.902 109.464 105.6C109.824 105.28 110.31 104.995 110.922 104.747C111.737 104.416 112.574 104.313 113.433 104.439C114.286 104.552 115.08 104.91 115.816 105.513C116.551 106.117 117.143 106.969 117.589 108.07L117.722 108.396C118.169 109.497 118.339 110.52 118.232 111.466C118.125 112.411 117.808 113.229 117.28 113.918C116.747 114.594 116.073 115.097 115.258 115.428ZM113.573 113.501C114.361 113.18 114.918 112.661 115.244 111.943C115.564 111.211 115.526 110.356 115.129 109.378L115.046 109.174C114.649 108.196 114.083 107.563 113.349 107.275C112.623 106.968 111.859 106.978 111.058 107.304C110.27 107.624 109.715 108.15 109.395 108.881C109.069 109.599 109.105 110.448 109.502 111.426L109.585 111.63C109.982 112.608 110.55 113.248 111.29 113.549C112.024 113.837 112.785 113.821 113.573 113.501ZM123.792 111.962C123.248 112.182 122.715 112.193 122.191 111.995C121.675 111.777 121.301 111.382 121.07 110.812C120.838 110.241 120.834 109.704 121.057 109.202C121.289 108.68 121.676 108.309 122.22 108.088C122.777 107.862 123.313 107.858 123.829 108.076C124.34 108.28 124.711 108.668 124.942 109.238C125.174 109.809 125.181 110.353 124.963 110.869C124.739 111.371 124.349 111.735 123.792 111.962ZM121.028 105.153C120.485 105.374 119.951 105.385 119.427 105.186C118.911 104.968 118.537 104.574 118.306 104.003C118.074 103.432 118.07 102.896 118.293 102.393C118.525 101.872 118.912 101.501 119.456 101.28C120.013 101.054 120.55 101.05 121.065 101.267C121.576 101.472 121.947 101.859 122.178 102.43C122.41 103.001 122.417 103.544 122.199 104.06C121.976 104.562 121.585 104.927 121.028 105.153Z" fill="black"/>
<path d="M71.5982 182.535L66.4348 169.815L66.1086 169.947L66.3124 175.421L64.1315 176.307L63.9103 169.036L67.9664 167.388L73.7587 181.657L71.5982 182.535ZM66.8287 184.472L66.0177 182.475L76.4128 178.252L77.2237 180.25L66.8287 184.472ZM81.0516 179.027C80.576 179.22 80.1117 179.227 79.6587 179.047C79.2193 178.861 78.9003 178.524 78.7017 178.035C78.5031 177.545 78.4994 177.088 78.6906 176.662C78.8898 176.217 79.2272 175.898 79.7028 175.704C80.1784 175.511 80.6359 175.508 81.0753 175.693C81.5283 175.873 81.8514 176.201 82.0444 176.677C82.243 177.166 82.2427 177.633 82.0435 178.078C81.8578 178.518 81.5272 178.834 81.0516 179.027ZM92.0381 174.232L86.2458 159.963L88.4471 159.069L94.2394 173.338L92.0381 174.232ZM96.8668 172.27L95.8242 169.702L99.5545 161.87L99.4386 161.585L93.7111 163.911L92.9912 162.138L101.002 158.884L102.052 161.473L98.3018 169.313L98.4094 169.578L104.524 167.094L105.244 168.867L96.8668 172.27ZM107.844 167.811L103.765 157.762L105.823 156.926L106.303 158.108L106.629 157.975C106.621 157.488 106.755 157.077 107.031 156.743C107.316 156.391 107.723 156.106 108.252 155.891L109.455 155.403L110.225 157.298L108.941 157.82C108.261 158.096 107.781 158.513 107.501 159.07C107.215 159.613 107.229 160.272 107.544 161.047L109.943 166.959L107.844 167.811ZM118.682 163.741C117.962 164.034 117.267 164.174 116.597 164.161C115.94 164.143 115.346 163.965 114.813 163.627C114.294 163.284 113.896 162.772 113.62 162.093C113.339 161.4 113.27 160.763 113.414 160.182C113.567 159.582 113.881 159.051 114.358 158.588C114.849 158.119 115.461 157.736 116.194 157.438L119.252 156.196L118.987 155.544C118.75 154.959 118.383 154.562 117.886 154.352C117.389 154.143 116.774 154.187 116.04 154.485C115.32 154.777 114.839 155.171 114.596 155.665C114.354 156.159 114.282 156.703 114.38 157.296L112.167 157.459C112.109 156.85 112.169 156.255 112.346 155.677C112.53 155.08 112.867 154.523 113.354 154.009C113.842 153.494 114.507 153.066 115.349 152.723C116.654 152.194 117.815 152.11 118.832 152.472C119.85 152.834 120.607 153.627 121.104 154.85L122.783 158.988C122.949 159.396 123.222 159.523 123.602 159.368L124.458 159.02L125.17 160.773L123.601 161.411C123.125 161.604 122.688 161.639 122.29 161.516C121.892 161.393 121.607 161.12 121.436 160.699L121.411 160.638L121.105 160.762C121.079 161.01 121.013 161.314 120.906 161.674C120.799 162.034 120.576 162.402 120.237 162.777C119.893 163.138 119.375 163.46 118.682 163.741ZM118.284 161.884C119.127 161.542 119.71 161.028 120.033 160.343C120.351 159.644 120.339 158.873 119.997 158.031L119.914 157.827L116.979 159.019C116.422 159.245 116.023 159.55 115.782 159.932C115.537 160.301 115.507 160.717 115.695 161.179C115.882 161.641 116.208 161.936 116.672 162.065C117.135 162.193 117.673 162.133 118.284 161.884ZM131.246 158.637C130.417 158.974 129.567 159.082 128.695 158.962C127.823 158.841 127.015 158.488 126.271 157.904C125.535 157.3 124.947 156.455 124.506 155.368L124.382 155.062C123.946 153.989 123.781 152.979 123.888 152.033C123.995 151.087 124.319 150.267 124.86 149.573C125.401 148.878 126.093 148.359 126.935 148.017C127.587 147.752 128.164 147.613 128.665 147.599C129.18 147.58 129.632 147.642 130.022 147.784C130.407 147.913 130.729 148.083 130.989 148.294L131.315 148.161L129.048 142.576L131.147 141.723L136.94 155.992L134.881 156.829L134.302 155.402L133.976 155.534C133.894 156.074 133.66 156.628 133.273 157.197C132.9 157.76 132.225 158.24 131.246 158.637ZM131.093 156.563C132.003 156.193 132.632 155.597 132.979 154.775C133.34 153.948 133.299 152.991 132.858 151.904L132.784 151.72C132.348 150.647 131.719 149.936 130.898 149.589C130.076 149.242 129.203 149.257 128.279 149.632C127.382 149.996 126.754 150.592 126.393 151.419C126.046 152.241 126.09 153.189 126.526 154.262L126.601 154.446C127.042 155.533 127.673 156.25 128.495 156.597C129.33 156.938 130.196 156.927 131.093 156.563ZM143.264 153.756C142.544 154.048 141.849 154.188 141.179 154.175C140.523 154.157 139.928 153.979 139.395 153.641C138.876 153.298 138.479 152.787 138.203 152.107C137.921 151.414 137.853 150.777 137.997 150.196C138.149 149.596 138.464 149.065 138.94 148.602C139.431 148.134 140.043 147.75 140.777 147.452L143.834 146.21L143.57 145.558C143.332 144.974 142.965 144.577 142.469 144.367C141.972 144.157 141.357 144.201 140.623 144.499C139.903 144.792 139.421 145.185 139.179 145.679C138.936 146.174 138.864 146.717 138.962 147.311L136.749 147.474C136.692 146.864 136.751 146.27 136.928 145.691C137.113 145.094 137.449 144.538 137.937 144.023C138.424 143.508 139.089 143.08 139.932 142.738C141.236 142.208 142.397 142.124 143.415 142.486C144.433 142.849 145.19 143.641 145.686 144.864L147.366 149.003C147.531 149.41 147.804 149.537 148.185 149.382L149.041 149.035L149.752 150.788L148.183 151.425C147.707 151.618 147.271 151.653 146.872 151.53C146.474 151.407 146.189 151.135 146.018 150.713L145.994 150.652L145.688 150.776C145.662 151.024 145.595 151.329 145.488 151.689C145.381 152.049 145.158 152.416 144.82 152.791C144.476 153.153 143.957 153.474 143.264 153.756ZM142.867 151.899C143.709 151.556 144.292 151.043 144.615 150.357C144.933 149.658 144.921 148.888 144.579 148.045L144.496 147.841L141.561 149.033C141.004 149.26 140.605 149.564 140.365 149.947C140.119 150.316 140.09 150.731 140.277 151.193C140.465 151.655 140.79 151.951 141.254 152.079C141.718 152.207 142.255 152.147 142.867 151.899ZM159.584 146.794L149.817 134.139L152.1 133.212L160.794 144.688L161.059 144.58L159.274 130.298L161.557 129.37L163.395 145.246L159.584 146.794ZM173.395 141.516C172.376 141.93 171.401 142.081 170.469 141.969C169.531 141.843 168.688 141.481 167.939 140.883C167.197 140.266 166.617 139.441 166.198 138.408L166.099 138.164C165.674 137.117 165.515 136.121 165.622 135.175C165.723 134.216 166.062 133.374 166.638 132.649C167.223 131.905 168.011 131.332 169.003 130.929C169.967 130.537 170.898 130.412 171.795 130.554C172.7 130.678 173.51 131.037 174.227 131.632C174.944 132.228 175.509 133.035 175.922 134.054L176.245 134.849L168.52 137.987C168.906 138.86 169.485 139.448 170.257 139.751C171.037 140.036 171.849 140.007 172.691 139.665C173.48 139.345 173.999 138.928 174.25 138.415C174.514 137.896 174.661 137.361 174.691 136.811L176.787 137.004C176.751 137.462 176.636 137.976 176.44 138.546C176.257 139.111 175.932 139.654 175.464 140.177C174.995 140.7 174.306 141.146 173.395 141.516ZM167.887 136.369L173.451 134.108C173.088 133.369 172.576 132.889 171.916 132.666C171.25 132.43 170.523 132.472 169.735 132.792C168.947 133.112 168.39 133.592 168.064 134.231C167.746 134.851 167.687 135.563 167.887 136.369ZM186.501 136.192C185.523 136.59 184.697 136.719 184.023 136.581C183.364 136.438 182.816 136.201 182.382 135.871L182.056 136.003L182.635 137.43L180.576 138.267L174.784 123.997L176.883 123.145L179.151 128.73L179.477 128.598C179.529 128.26 179.642 127.913 179.814 127.558C179.981 127.189 180.256 126.832 180.638 126.487C181.02 126.142 181.538 125.837 182.19 125.572C183.032 125.23 183.89 125.119 184.762 125.24C185.634 125.36 186.438 125.722 187.173 126.326C187.909 126.929 188.495 127.768 188.931 128.842L189.055 129.147C189.496 130.234 189.656 131.254 189.536 132.205C189.424 133.137 189.097 133.95 188.556 134.645C188.028 135.334 187.343 135.85 186.501 136.192ZM185.145 134.606C186.055 134.236 186.684 133.641 187.031 132.819C187.392 131.992 187.351 131.034 186.91 129.947L186.836 129.764C186.4 128.69 185.771 127.98 184.95 127.633C184.128 127.286 183.255 127.3 182.331 127.675C181.435 128.04 180.806 128.635 180.445 129.463C180.098 130.284 180.142 131.232 180.578 132.306L180.653 132.489C181.094 133.576 181.725 134.293 182.547 134.64C183.382 134.982 184.248 134.97 185.145 134.606ZM203.735 129.192C202.661 129.628 201.633 129.824 200.649 129.78C199.666 129.736 198.788 129.444 198.014 128.904C197.249 128.344 196.651 127.534 196.221 126.474L196.014 125.964L198.195 125.078L198.401 125.588C198.81 126.594 199.415 127.226 200.217 127.486C201.032 127.741 201.943 127.664 202.948 127.255C203.968 126.841 204.65 126.319 204.995 125.688C205.335 125.043 205.367 124.381 205.091 123.702C204.909 123.253 204.638 122.936 204.277 122.75C203.917 122.564 203.48 122.48 202.965 122.499C202.445 122.505 201.842 122.56 201.156 122.664L200.327 122.787C199.329 122.94 198.426 122.998 197.62 122.961C196.822 122.905 196.132 122.687 195.55 122.306C194.968 121.925 194.508 121.32 194.172 120.491C193.83 119.648 193.741 118.845 193.906 118.082C194.085 117.313 194.475 116.616 195.076 115.992C195.677 115.368 196.474 114.854 197.466 114.451C198.458 114.048 199.41 113.859 200.323 113.884C201.249 113.904 202.071 114.156 202.79 114.64C203.508 115.123 204.072 115.868 204.48 116.874L204.778 117.607L202.597 118.493L202.299 117.759C202.051 117.148 201.721 116.704 201.308 116.429C200.909 116.148 200.449 116.01 199.929 116.015C199.409 116.021 198.85 116.145 198.252 116.388C197.382 116.741 196.778 117.2 196.437 117.766C196.105 118.313 196.069 118.905 196.328 119.544C196.504 119.979 196.753 120.298 197.072 120.5C197.4 120.684 197.804 120.781 198.283 120.792C198.762 120.803 199.335 120.752 200.002 120.64L200.831 120.517C201.837 120.345 202.76 120.279 203.599 120.318C204.433 120.344 205.164 120.546 205.792 120.924C206.42 121.302 206.908 121.919 207.256 122.775C207.603 123.631 207.689 124.467 207.514 125.282C207.352 126.092 206.951 126.84 206.312 127.528C205.667 128.201 204.808 128.756 203.735 129.192ZM214.484 124.825C213.764 125.118 213.069 125.258 212.399 125.245C211.742 125.227 211.148 125.049 210.615 124.711C210.096 124.368 209.698 123.857 209.422 123.177C209.141 122.484 209.072 121.847 209.216 121.266C209.368 120.666 209.683 120.135 210.16 119.672C210.65 119.203 211.263 118.82 211.996 118.522L215.054 117.28L214.789 116.628C214.552 116.043 214.185 115.646 213.688 115.437C213.191 115.227 212.576 115.271 211.842 115.569C211.122 115.861 210.641 116.255 210.398 116.749C210.156 117.243 210.084 117.787 210.182 118.381L207.969 118.543C207.911 117.934 207.971 117.34 208.147 116.761C208.332 116.164 208.668 115.608 209.156 115.093C209.644 114.578 210.309 114.15 211.151 113.808C212.456 113.278 213.617 113.194 214.634 113.556C215.652 113.919 216.409 114.711 216.906 115.934L218.585 120.072C218.751 120.48 219.024 120.607 219.404 120.452L220.26 120.104L220.972 121.857L219.402 122.495C218.927 122.688 218.49 122.723 218.092 122.6C217.693 122.477 217.409 122.205 217.238 121.783L217.213 121.722L216.907 121.846C216.881 122.094 216.815 122.398 216.708 122.758C216.601 123.119 216.378 123.486 216.039 123.861C215.695 124.222 215.177 124.544 214.484 124.825ZM214.086 122.968C214.929 122.626 215.512 122.112 215.835 121.427C216.153 120.728 216.14 119.957 215.798 119.115L215.716 118.911L212.781 120.103C212.224 120.329 211.825 120.634 211.584 121.017C211.338 121.386 211.309 121.801 211.497 122.263C211.684 122.725 212.01 123.02 212.474 123.149C212.937 123.277 213.475 123.217 214.086 122.968ZM222.752 125.883L222.016 124.069L223.381 123.514C223.775 123.354 223.89 123.07 223.724 122.663L218.975 110.962L221.074 110.109L225.989 122.218C226.237 122.829 226.259 123.39 226.055 123.901C225.851 124.411 225.429 124.796 224.79 125.055L222.752 125.883ZM219.48 109.166C219.072 109.331 218.673 109.343 218.283 109.201C217.901 109.039 217.625 108.748 217.454 108.327C217.283 107.905 217.281 107.51 217.448 107.142C217.623 106.754 217.914 106.477 218.322 106.312C218.743 106.141 219.144 106.136 219.527 106.297C219.903 106.445 220.177 106.73 220.348 107.151C220.519 107.572 220.524 107.974 220.362 108.356C220.195 108.725 219.901 108.995 219.48 109.166ZM232.039 117.362C231.427 117.61 230.864 117.625 230.348 117.408C229.846 117.184 229.47 116.767 229.222 116.155L226.682 109.897L223.91 111.023L223.19 109.25L225.962 108.124L224.613 104.801L226.713 103.948L228.061 107.271L231.058 106.054L231.777 107.827L228.781 109.044L231.173 114.935C231.338 115.343 231.611 115.47 231.992 115.315L234.091 114.462L234.811 116.236L232.039 117.362ZM240.818 114.128C240.098 114.421 239.403 114.561 238.733 114.548C238.076 114.529 237.482 114.351 236.949 114.014C236.43 113.671 236.032 113.159 235.756 112.48C235.475 111.787 235.406 111.15 235.55 110.569C235.703 109.969 236.017 109.437 236.494 108.975C236.985 108.506 237.597 108.123 238.33 107.825L241.388 106.583L241.123 105.931C240.886 105.346 240.519 104.949 240.022 104.739C239.525 104.53 238.91 104.574 238.176 104.872C237.456 105.164 236.975 105.558 236.732 106.052C236.49 106.546 236.418 107.09 236.516 107.683L234.303 107.846C234.245 107.236 234.305 106.642 234.481 106.064C234.666 105.466 235.003 104.91 235.49 104.396C235.978 103.881 236.643 103.453 237.485 103.11C238.79 102.58 239.951 102.497 240.968 102.859C241.986 103.221 242.743 104.014 243.24 105.237L244.919 109.375C245.085 109.783 245.358 109.909 245.738 109.755L246.594 109.407L247.306 111.16L245.737 111.798C245.261 111.991 244.824 112.026 244.426 111.903C244.028 111.78 243.743 111.507 243.572 111.086L243.547 111.025L243.241 111.149C243.215 111.397 243.149 111.701 243.042 112.061C242.935 112.421 242.712 112.789 242.373 113.164C242.029 113.525 241.511 113.847 240.818 114.128ZM240.42 112.271C241.263 111.929 241.846 111.415 242.169 110.73C242.487 110.031 242.475 109.26 242.133 108.418L242.05 108.214L239.115 109.406C238.558 109.632 238.159 109.937 237.918 110.319C237.672 110.688 237.643 111.104 237.831 111.566C238.018 112.028 238.344 112.323 238.808 112.451C239.271 112.58 239.809 112.52 240.42 112.271Z" fill="black"/>
<path d="M90.2845 202.514C89.9176 202.663 89.5446 202.718 89.1656 202.677C88.7933 202.621 88.4572 202.479 88.1574 202.251C87.8577 202.023 87.6333 201.726 87.4844 201.359C87.3309 200.981 87.2822 200.606 87.3382 200.233C87.3943 199.861 87.5385 199.53 87.771 199.241C87.999 198.942 88.3019 198.715 88.6799 198.561C89.0579 198.408 89.4331 198.359 89.8055 198.415C90.1845 198.455 90.5183 198.592 90.807 198.824C91.1067 199.052 91.3333 199.355 91.4868 199.733C91.6402 200.111 91.689 200.486 91.6329 200.859C91.5769 201.231 91.4271 201.564 91.1835 201.858C90.951 202.146 90.6514 202.365 90.2845 202.514ZM105.07 199.209L100.331 187.534L101.732 186.965L105.956 197.372L111.86 194.974L112.374 196.241L105.07 199.209ZM116.82 194.708C116.253 194.938 115.695 195.048 115.147 195.037C114.599 195.027 114.115 194.887 113.695 194.617C113.274 194.348 112.954 193.94 112.732 193.395C112.507 192.84 112.455 192.329 112.578 191.865C112.695 191.39 112.952 190.969 113.346 190.601C113.737 190.222 114.221 189.915 114.799 189.681L117.551 188.563L117.307 187.962C117.072 187.384 116.715 186.998 116.235 186.805C115.766 186.607 115.198 186.643 114.531 186.914C113.875 187.181 113.429 187.55 113.193 188.021C112.952 188.481 112.874 189.006 112.957 189.593L111.56 189.695C111.509 189.184 111.553 188.687 111.693 188.203C111.829 187.707 112.09 187.251 112.478 186.835C112.873 186.403 113.409 186.049 114.087 185.773C115.132 185.349 116.054 185.292 116.854 185.601C117.648 185.9 118.244 186.539 118.641 187.517L120.138 191.203C120.273 191.537 120.496 191.64 120.808 191.514L121.558 191.209L122.012 192.327L120.861 192.794C120.494 192.943 120.159 192.963 119.855 192.853C119.547 192.732 119.323 192.499 119.183 192.154L119.15 192.071L118.949 192.152C118.913 192.413 118.836 192.703 118.72 193.023C118.61 193.326 118.407 193.623 118.109 193.912C117.817 194.212 117.387 194.477 116.82 194.708ZM116.51 193.512C117.288 193.196 117.824 192.713 118.117 192.063C118.416 191.397 118.397 190.648 118.058 189.814L117.984 189.63L115.282 190.728C114.76 190.94 114.374 191.233 114.124 191.606C113.88 191.964 113.851 192.371 114.036 192.827C114.221 193.283 114.538 193.569 114.987 193.684C115.446 193.796 115.954 193.738 116.51 193.512ZM123.816 191.594L120.506 183.438L121.79 182.916L122.352 184.301L122.585 184.206C122.605 183.744 122.763 183.272 123.059 182.789C123.362 182.291 123.93 181.872 124.764 181.533C125.375 181.285 125.972 181.192 126.554 181.253C127.147 181.31 127.689 181.53 128.182 181.913C128.674 182.296 129.069 182.854 129.367 183.588L131.371 188.525L130.053 189.06L128.09 184.223C127.76 183.412 127.315 182.906 126.755 182.706C126.206 182.502 125.587 182.54 124.897 182.82C124.108 183.14 123.567 183.658 123.274 184.373C122.993 185.083 123.057 185.944 123.468 186.956L125.134 191.059L123.816 191.594ZM137.59 186.27C136.89 186.555 136.177 186.65 135.453 186.556C134.728 186.462 134.065 186.168 133.463 185.674C132.861 185.18 132.384 184.5 132.032 183.632L131.944 183.416C131.592 182.548 131.462 181.733 131.554 180.971C131.641 180.197 131.906 179.526 132.349 178.957C132.798 178.373 133.379 177.937 134.09 177.648C134.657 177.417 135.167 177.301 135.619 177.299C136.078 177.281 136.477 177.339 136.817 177.473C137.152 177.596 137.438 177.758 137.675 177.96L137.908 177.865L135.958 173.061L137.276 172.526L142.015 184.201L140.731 184.723L140.183 183.372L139.949 183.467C139.894 183.968 139.698 184.475 139.362 184.987C139.026 185.5 138.435 185.927 137.59 186.27ZM137.467 184.961C138.312 184.617 138.887 184.073 139.193 183.327C139.505 182.565 139.465 181.701 139.073 180.733L139.012 180.583C138.619 179.616 138.048 178.974 137.297 178.657C136.554 178.324 135.759 178.33 134.914 178.673C134.081 179.012 133.502 179.564 133.178 180.33C132.861 181.081 132.899 181.94 133.292 182.907L133.353 183.057C133.745 184.024 134.319 184.672 135.074 185C135.835 185.313 136.633 185.299 137.467 184.961ZM144.776 183.08L141.465 174.924L142.783 174.389L146.093 182.544L144.776 183.08ZM141.618 173.385C141.329 173.503 141.046 173.508 140.769 173.4C140.503 173.288 140.312 173.087 140.194 172.798C140.072 172.498 140.068 172.215 140.18 171.949C140.303 171.679 140.51 171.485 140.799 171.367C141.088 171.25 141.365 171.247 141.631 171.36C141.897 171.472 142.09 171.678 142.212 171.978C142.33 172.267 142.332 172.545 142.22 172.811C142.108 173.076 141.907 173.268 141.618 173.385ZM148.864 181.419L145.553 173.263L146.837 172.742L147.399 174.126L147.633 174.031C147.652 173.57 147.81 173.098 148.107 172.615C148.409 172.116 148.977 171.698 149.811 171.359C150.423 171.11 151.019 171.017 151.601 171.079C152.194 171.136 152.737 171.356 153.229 171.738C153.721 172.121 154.116 172.68 154.414 173.414L156.418 178.35L155.101 178.886L153.137 174.049C152.808 173.237 152.363 172.731 151.803 172.532C151.253 172.327 150.634 172.365 149.945 172.645C149.156 172.966 148.615 173.483 148.322 174.198C148.04 174.908 148.105 175.769 148.516 176.781L150.181 180.884L148.864 181.419ZM157.052 173.391L156.958 173.158C156.61 172.301 156.485 171.498 156.581 170.746C156.677 169.994 156.953 169.332 157.406 168.759C157.86 168.186 158.437 167.758 159.138 167.473C159.994 167.125 160.717 167.026 161.309 167.174C161.907 167.307 162.398 167.528 162.783 167.838L163.016 167.743L162.468 166.392L163.719 165.884L167.801 175.941C167.982 176.386 168.001 176.786 167.861 177.141C167.72 177.496 167.416 177.769 166.949 177.958L161.412 180.207L160.938 179.04L166.125 176.933C166.458 176.798 166.557 176.563 166.422 176.229L165.163 173.127L164.929 173.222C164.895 173.521 164.803 173.837 164.653 174.17C164.504 174.503 164.266 174.826 163.94 175.14C163.609 175.442 163.155 175.711 162.577 175.946C161.877 176.23 161.164 176.325 160.439 176.231C159.715 176.137 159.056 175.854 158.463 175.383C157.866 174.9 157.395 174.236 157.052 173.391ZM162.453 174.636C163.298 174.293 163.874 173.748 164.18 173.002C164.497 172.252 164.465 171.409 164.086 170.475L164.032 170.342C163.649 169.397 163.084 168.771 162.338 168.466C161.599 168.144 160.807 168.155 159.962 168.498C159.128 168.837 158.547 169.384 158.219 170.139C157.897 170.878 157.928 171.721 158.312 172.666L158.366 172.799C158.745 173.733 159.31 174.358 160.06 174.675C160.822 174.988 161.619 174.975 162.453 174.636ZM174.024 171.199L169.285 159.524L173.754 157.708C174.455 157.424 175.134 157.31 175.791 157.367C176.455 157.408 177.05 157.613 177.576 157.982C178.101 158.352 178.509 158.892 178.797 159.604L178.885 159.821C179.17 160.521 179.249 161.195 179.123 161.842C179.004 162.473 178.72 163.035 178.273 163.528C177.825 164.02 177.262 164.404 176.584 164.68L173.516 165.926L175.425 170.63L174.024 171.199ZM173.001 164.659L175.919 163.473C176.664 163.171 177.179 162.748 177.464 162.205C177.744 161.651 177.746 161.034 177.471 160.356L177.403 160.189C177.128 159.511 176.699 159.077 176.117 158.886C175.541 158.679 174.875 158.73 174.119 159.037L171.2 160.222L173.001 164.659ZM186.507 166.4C185.94 166.63 185.382 166.74 184.834 166.73C184.286 166.719 183.802 166.579 183.381 166.31C182.961 166.04 182.64 165.633 182.419 165.088C182.194 164.532 182.142 164.022 182.264 163.558C182.382 163.082 182.638 162.661 183.033 162.293C183.423 161.915 183.908 161.608 184.486 161.373L187.237 160.255L186.994 159.655C186.759 159.077 186.402 158.691 185.921 158.497C185.453 158.299 184.885 158.336 184.217 158.607C183.562 158.873 183.116 159.242 182.88 159.713C182.639 160.174 182.56 160.698 182.644 161.286L181.247 161.387C181.195 160.877 181.24 160.38 181.38 159.895C181.515 159.4 181.777 158.944 182.165 158.527C182.559 158.095 183.096 157.741 183.774 157.466C184.819 157.041 185.741 156.984 186.54 157.294C187.335 157.593 187.931 158.231 188.328 159.21L189.824 162.896C189.96 163.229 190.183 163.333 190.495 163.206L191.245 162.902L191.699 164.019L190.548 164.486C190.181 164.635 189.846 164.655 189.542 164.545C189.234 164.424 189.01 164.192 188.87 163.847L188.836 163.763L188.636 163.845C188.6 164.106 188.523 164.396 188.407 164.715C188.297 165.019 188.093 165.315 187.796 165.604C187.504 165.904 187.074 166.17 186.507 166.4ZM186.197 165.205C186.975 164.889 187.51 164.406 187.803 163.756C188.103 163.09 188.084 162.34 187.745 161.506L187.671 161.323L184.969 162.42C184.446 162.632 184.06 162.925 183.81 163.299C183.567 163.657 183.538 164.063 183.723 164.519C183.908 164.975 184.225 165.261 184.673 165.377C185.133 165.488 185.641 165.431 186.197 165.205ZM191.236 159.505L191.141 159.272C190.794 158.415 190.668 157.612 190.765 156.86C190.861 156.109 191.136 155.446 191.59 154.873C192.044 154.301 192.621 153.872 193.322 153.587C194.178 153.24 194.901 153.14 195.492 153.288C196.09 153.421 196.582 153.642 196.967 153.952L197.2 153.857L196.652 152.507L197.902 151.998L201.985 162.055C202.165 162.5 202.185 162.9 202.044 163.255C201.904 163.61 201.6 163.883 201.133 164.072L195.596 166.321L195.122 165.154L200.309 163.047C200.642 162.912 200.741 162.677 200.606 162.344L199.347 159.241L199.113 159.336C199.079 159.635 198.987 159.951 198.837 160.284C198.687 160.617 198.45 160.94 198.124 161.254C197.793 161.556 197.339 161.825 196.761 162.06C196.06 162.344 195.348 162.439 194.623 162.345C193.899 162.251 193.24 161.968 192.647 161.497C192.05 161.014 191.579 160.35 191.236 159.505ZM196.637 160.75C197.482 160.407 198.057 159.862 198.363 159.116C198.68 158.366 198.649 157.524 198.27 156.59L198.216 156.456C197.832 155.511 197.268 154.886 196.522 154.58C195.783 154.258 194.991 154.269 194.146 154.612C193.312 154.951 192.731 155.498 192.403 156.253C192.081 156.992 192.112 157.835 192.496 158.78L192.55 158.913C192.929 159.847 193.494 160.473 194.244 160.79C195.006 161.102 195.803 161.089 196.637 160.75ZM207.805 157.748C206.982 158.083 206.19 158.204 205.427 158.112C204.66 158.009 203.976 157.711 203.374 157.217C202.772 156.723 202.302 156.059 201.963 155.225L201.882 155.025C201.539 154.18 201.411 153.371 201.498 152.597C201.586 151.823 201.865 151.14 202.337 150.547C202.804 149.943 203.432 149.48 204.221 149.16C204.989 148.848 205.734 148.739 206.459 148.833C207.179 148.917 207.83 149.196 208.412 149.672C208.994 150.148 209.452 150.798 209.786 151.62L210.029 152.221L203.375 154.924C203.765 155.789 204.329 156.363 205.065 156.646C205.798 156.919 206.564 156.893 207.364 156.567C208.065 156.283 208.539 155.903 208.786 155.427C209.033 154.951 209.166 154.45 209.186 153.924L210.543 154.013C210.516 154.426 210.423 154.865 210.263 155.332C210.113 155.794 209.847 156.239 209.464 156.667C209.092 157.09 208.539 157.45 207.805 157.748ZM202.952 153.833L208.255 151.679C207.904 150.941 207.403 150.458 206.754 150.229C206.115 149.996 205.429 150.029 204.695 150.327C203.95 150.63 203.425 151.089 203.118 151.706C202.812 152.323 202.756 153.032 202.952 153.833ZM98.9353 223.825C98.5684 223.974 98.1954 224.029 97.8164 223.988C97.4441 223.932 97.108 223.79 96.8082 223.562C96.5085 223.334 96.2841 223.037 96.1352 222.67C95.9817 222.292 95.933 221.917 95.989 221.544C96.0451 221.172 96.1893 220.841 96.4218 220.553C96.6498 220.253 96.9527 220.026 97.3307 219.872C97.7087 219.719 98.0839 219.67 98.4563 219.726C98.8353 219.766 99.1692 219.903 99.4578 220.135C99.7575 220.363 99.9841 220.666 100.138 221.044C100.291 221.422 100.34 221.798 100.284 222.17C100.228 222.543 100.078 222.875 99.8343 223.169C99.6018 223.457 99.3022 223.676 98.9353 223.825ZM116.322 219.463L108.065 209.218L109.515 208.628L117.094 218.158L117.311 218.07L116.103 205.952L117.554 205.363L118.774 218.467L116.322 219.463ZM127.308 215.273C126.485 215.607 125.692 215.728 124.93 215.636C124.163 215.533 123.478 215.235 122.876 214.741C122.274 214.247 121.804 213.584 121.466 212.75L121.384 212.55C121.041 211.705 120.914 210.895 121.001 210.121C121.088 209.348 121.368 208.664 121.839 208.071C122.306 207.467 122.935 207.004 123.724 206.684C124.491 206.372 125.237 206.264 125.962 206.358C126.682 206.441 127.333 206.72 127.914 207.196C128.496 207.672 128.954 208.322 129.288 209.145L129.532 209.745L122.878 212.448C123.268 213.313 123.831 213.887 124.568 214.171C125.3 214.443 126.067 214.417 126.867 214.092C127.567 213.807 128.041 213.427 128.288 212.951C128.535 212.475 128.669 211.974 128.688 211.448L130.046 211.537C130.019 211.95 129.925 212.389 129.765 212.856C129.616 213.318 129.35 213.763 128.966 214.191C128.594 214.614 128.041 214.975 127.308 215.273ZM122.455 211.357L127.758 209.203C127.406 208.465 126.906 207.982 126.256 207.753C125.618 207.521 124.932 207.553 124.198 207.851C123.453 208.154 122.927 208.614 122.621 209.23C122.314 209.847 122.259 210.556 122.455 211.357ZM137.961 210.945C137.116 211.288 136.389 211.396 135.78 211.268C135.182 211.135 134.694 210.906 134.316 210.58L134.082 210.675L134.63 212.026L133.346 212.548L128.607 200.873L129.925 200.338L131.875 205.141L132.108 205.046C132.138 204.736 132.23 204.42 132.384 204.099C132.534 203.766 132.774 203.448 133.104 203.145C133.441 202.827 133.893 202.553 134.46 202.323C135.172 202.034 135.887 201.944 136.605 202.054C137.329 202.148 137.993 202.442 138.595 202.936C139.192 203.418 139.667 204.093 140.019 204.961L140.107 205.177C140.459 206.045 140.586 206.868 140.487 207.646C140.4 208.42 140.129 209.093 139.675 209.666C139.233 210.234 138.661 210.661 137.961 210.945ZM137.136 209.92C137.981 209.577 138.557 209.032 138.863 208.286C139.175 207.525 139.135 206.66 138.742 205.693L138.681 205.543C138.289 204.575 137.717 203.933 136.967 203.616C136.223 203.284 135.429 203.289 134.584 203.632C133.75 203.971 133.171 204.523 132.848 205.29C132.531 206.04 132.569 206.899 132.961 207.866L133.022 208.016C133.415 208.984 133.989 209.631 134.744 209.959C135.505 210.272 136.303 210.259 137.136 209.92ZM152.276 205.13C151.431 205.473 150.614 205.63 149.825 205.601C149.036 205.572 148.325 205.336 147.692 204.894C147.066 204.436 146.568 203.751 146.198 202.839L146.056 202.489L147.44 201.927L147.582 202.277C147.975 203.244 148.552 203.852 149.313 204.1C150.069 204.336 150.892 204.274 151.782 203.913C152.693 203.542 153.305 203.054 153.616 202.449C153.927 201.843 153.956 201.229 153.703 200.606C153.527 200.173 153.276 199.873 152.95 199.708C152.635 199.538 152.251 199.454 151.799 199.457C151.342 199.448 150.828 199.488 150.255 199.578L149.3 199.714C148.55 199.811 147.861 199.838 147.235 199.795C146.609 199.752 146.062 199.585 145.595 199.296C145.134 198.99 144.771 198.51 144.505 197.854C144.238 197.198 144.169 196.565 144.298 195.956C144.437 195.343 144.75 194.788 145.235 194.293C145.732 193.794 146.369 193.386 147.147 193.07C147.936 192.749 148.699 192.601 149.434 192.626C150.176 192.636 150.834 192.835 151.406 193.224C151.985 193.598 152.437 194.185 152.762 194.985L153.046 195.686L151.662 196.248L151.378 195.548C151.148 194.981 150.84 194.574 150.456 194.329C150.082 194.079 149.651 193.957 149.16 193.962C148.681 193.962 148.175 194.07 147.641 194.287C146.874 194.599 146.327 195.022 146 195.556C145.669 196.079 145.629 196.652 145.882 197.275C146.049 197.686 146.284 197.979 146.588 198.154C146.892 198.328 147.262 198.424 147.696 198.442C148.126 198.449 148.622 198.409 149.183 198.324L150.138 198.188C150.875 198.057 151.562 198.011 152.2 198.05C152.844 198.074 153.415 198.237 153.913 198.539C154.407 198.831 154.794 199.321 155.074 200.011C155.354 200.7 155.425 201.371 155.288 202.022C155.151 202.673 154.824 203.272 154.308 203.819C153.798 204.35 153.121 204.787 152.276 205.13ZM161.169 201.518C160.602 201.748 160.045 201.858 159.496 201.847C158.948 201.837 158.464 201.697 158.044 201.427C157.624 201.158 157.303 200.75 157.082 200.205C156.856 199.65 156.804 199.139 156.927 198.675C157.045 198.2 157.301 197.779 157.696 197.411C158.086 197.032 158.57 196.725 159.148 196.491L161.9 195.373L161.656 194.772C161.421 194.194 161.064 193.808 160.584 193.615C160.115 193.417 159.547 193.453 158.88 193.724C158.224 193.991 157.778 194.36 157.542 194.831C157.301 195.291 157.223 195.816 157.306 196.403L155.91 196.504C155.858 195.994 155.902 195.497 156.042 195.013C156.178 194.517 156.44 194.061 156.827 193.645C157.222 193.213 157.758 192.859 158.436 192.583C159.481 192.159 160.403 192.102 161.203 192.411C161.998 192.71 162.593 193.349 162.991 194.327L164.487 198.013C164.622 198.347 164.846 198.45 165.157 198.324L165.907 198.019L166.361 199.137L165.21 199.604C164.843 199.753 164.508 199.773 164.205 199.663C163.896 199.542 163.672 199.309 163.533 198.964L163.499 198.881L163.299 198.962C163.262 199.223 163.186 199.513 163.069 199.833C162.959 200.136 162.756 200.433 162.459 200.722C162.166 201.022 161.736 201.287 161.169 201.518ZM160.859 200.322C161.637 200.006 162.173 199.523 162.466 198.873C162.765 198.207 162.746 197.458 162.408 196.624L162.333 196.44L159.631 197.538C159.109 197.75 158.723 198.043 158.473 198.416C158.23 198.774 158.2 199.181 158.386 199.637C158.571 200.093 158.887 200.379 159.336 200.494C159.795 200.606 160.303 200.548 160.859 200.322ZM167.918 202.39L167.444 201.222L168.579 200.762C168.912 200.626 169.011 200.392 168.876 200.058L164.888 190.234L166.206 189.699L170.288 199.756C170.468 200.201 170.483 200.603 170.331 200.963C170.19 201.318 169.886 201.59 169.419 201.78L167.918 202.39ZM165.041 188.696C164.752 188.813 164.469 188.818 164.192 188.71C163.926 188.598 163.734 188.398 163.617 188.108C163.495 187.808 163.49 187.525 163.603 187.259C163.726 186.989 163.932 186.795 164.221 186.678C164.51 186.56 164.788 186.558 165.054 186.67C165.319 186.782 165.513 186.989 165.635 187.289C165.752 187.578 165.755 187.855 165.643 188.121C165.53 188.387 165.33 188.579 165.041 188.696ZM175.287 195.511C174.82 195.7 174.407 195.719 174.048 195.567C173.699 195.411 173.435 195.11 173.254 194.666L170.993 189.095L168.542 190.091L168.074 188.94L170.526 187.944L169.348 185.042L170.665 184.507L171.843 187.409L174.512 186.325L174.979 187.476L172.311 188.56L174.491 193.93C174.626 194.264 174.855 194.365 175.177 194.234L176.995 193.496L177.455 194.63L175.287 195.511ZM107.586 245.136C107.219 245.285 106.846 245.34 106.467 245.299C106.095 245.243 105.759 245.101 105.459 244.874C105.159 244.646 104.935 244.348 104.786 243.981C104.633 243.603 104.584 243.228 104.64 242.855C104.696 242.483 104.84 242.152 105.073 241.864C105.301 241.564 105.604 241.337 105.982 241.184C106.36 241.03 106.735 240.981 107.107 241.037C107.486 241.078 107.82 241.214 108.109 241.446C108.408 241.674 108.635 241.977 108.788 242.355C108.942 242.733 108.991 243.109 108.935 243.481C108.879 243.854 108.729 244.186 108.485 244.48C108.253 244.768 107.953 244.987 107.586 245.136ZM124.973 240.774L116.715 230.529L118.166 229.939L125.745 239.47L125.962 239.382L124.753 227.263L126.204 226.674L127.425 239.778L124.973 240.774ZM135.958 236.584C135.136 236.918 134.343 237.039 133.581 236.947C132.813 236.844 132.129 236.546 131.527 236.052C130.925 235.559 130.455 234.895 130.116 234.061L130.035 233.861C129.692 233.016 129.564 232.206 129.652 231.432C129.739 230.659 130.019 229.975 130.49 229.382C130.957 228.778 131.585 228.316 132.375 227.995C133.142 227.683 133.888 227.575 134.612 227.669C135.333 227.752 135.984 228.031 136.565 228.508C137.147 228.984 137.605 229.633 137.939 230.456L138.183 231.056L131.529 233.759C131.919 234.624 132.482 235.198 133.219 235.482C133.951 235.754 134.717 235.728 135.518 235.403C136.218 235.118 136.692 234.738 136.939 234.262C137.186 233.786 137.32 233.285 137.339 232.759L138.697 232.849C138.67 233.261 138.576 233.701 138.416 234.167C138.267 234.629 138.001 235.074 137.617 235.502C137.245 235.925 136.692 236.286 135.958 236.584ZM131.105 232.668L136.408 230.514C136.057 229.776 135.557 229.293 134.907 229.065C134.269 228.832 133.582 228.864 132.849 229.162C132.104 229.465 131.578 229.925 131.272 230.541C130.965 231.158 130.91 231.867 131.105 232.668ZM146.611 232.256C145.766 232.6 145.039 232.707 144.43 232.579C143.833 232.446 143.345 232.217 142.966 231.891L142.733 231.986L143.281 233.337L141.997 233.859L137.258 222.184L138.575 221.649L140.525 226.452L140.759 226.357C140.788 226.047 140.88 225.731 141.035 225.41C141.184 225.077 141.425 224.759 141.755 224.457C142.092 224.138 142.544 223.864 143.111 223.634C143.823 223.345 144.537 223.255 145.255 223.365C145.98 223.459 146.643 223.753 147.245 224.247C147.843 224.73 148.317 225.405 148.67 226.272L148.758 226.489C149.11 227.356 149.236 228.179 149.138 228.957C149.05 229.731 148.78 230.404 148.326 230.977C147.883 231.545 147.312 231.972 146.611 232.256ZM145.787 231.231C146.632 230.888 147.208 230.343 147.513 229.597C147.826 228.836 147.786 227.971 147.393 227.004L147.332 226.854C146.94 225.887 146.368 225.244 145.618 224.927C144.874 224.595 144.08 224.6 143.235 224.943C142.401 225.282 141.822 225.835 141.499 226.601C141.182 227.351 141.219 228.21 141.612 229.177L141.673 229.328C142.066 230.295 142.64 230.943 143.394 231.271C144.156 231.583 144.953 231.57 145.787 231.231ZM155.834 228.238L154.697 215.1L157.165 214.098L165.506 224.309L164.055 224.898L161.956 222.312L156.987 224.331L157.285 227.649L155.834 228.238ZM156.822 222.921L161.075 221.194L156.393 215.402L156.159 215.497L156.822 222.921ZM168.659 226.914L163.995 215.423L165.279 214.901L165.827 216.252L166.061 216.157C166.105 215.66 166.295 215.155 166.631 214.643C166.978 214.126 167.574 213.696 168.419 213.353C169.12 213.069 169.829 212.981 170.547 213.091C171.272 213.185 171.933 213.474 172.53 213.957C173.138 214.435 173.621 215.113 173.978 215.991L174.066 216.208C174.418 217.075 174.55 217.896 174.463 218.67C174.375 219.443 174.105 220.117 173.651 220.69C173.208 221.258 172.631 221.687 171.919 221.976C171.352 222.206 170.837 222.325 170.374 222.332C169.926 222.345 169.532 222.285 169.193 222.151C168.854 222.017 168.568 221.854 168.335 221.664L168.101 221.759L169.977 226.379L168.659 226.914ZM171.095 220.951C171.94 220.607 172.516 220.063 172.822 219.317C173.134 218.555 173.094 217.691 172.701 216.724L172.64 216.573C172.248 215.606 171.676 214.964 170.926 214.647C170.182 214.314 169.388 214.32 168.543 214.663C167.709 215.002 167.13 215.554 166.807 216.32C166.49 217.071 166.528 217.93 166.92 218.897L166.981 219.047C167.374 220.014 167.948 220.662 168.702 220.99C169.464 221.303 170.261 221.289 171.095 220.951ZM178.038 219.219L173.298 207.544L174.616 207.009L179.355 218.683L178.038 219.219ZM182.125 217.558L178.815 209.402L180.132 208.867L183.443 217.023L182.125 217.558ZM178.967 207.864C178.678 207.981 178.395 207.986 178.118 207.879C177.853 207.766 177.661 207.566 177.544 207.277C177.422 206.976 177.417 206.693 177.529 206.427C177.653 206.157 177.859 205.963 178.148 205.846C178.437 205.728 178.714 205.726 178.98 205.838C179.246 205.95 179.44 206.157 179.562 206.457C179.679 206.746 179.681 207.023 179.569 207.289C179.457 207.555 179.256 207.747 178.967 207.864ZM186.213 215.898L181.474 204.223L182.791 203.688L185.581 210.559L185.814 210.464L188.189 205.595L190.023 204.849L187.115 210.655L193.467 212.951L191.65 213.689L186.322 211.715L186.088 211.81L187.53 215.363L186.213 215.898ZM197.604 211.543C197.037 211.773 196.479 211.883 195.931 211.872C195.383 211.862 194.898 211.722 194.478 211.452C194.058 211.183 193.737 210.775 193.516 210.231C193.29 209.675 193.239 209.165 193.361 208.7C193.479 208.225 193.735 207.804 194.13 207.436C194.52 207.057 195.004 206.751 195.582 206.516L198.334 205.398L198.09 204.798C197.856 204.219 197.498 203.834 197.018 203.64C196.549 203.442 195.981 203.478 195.314 203.749C194.658 204.016 194.212 204.385 193.976 204.856C193.736 205.317 193.657 205.841 193.74 206.429L192.344 206.53C192.292 206.02 192.336 205.522 192.477 205.038C192.612 204.543 192.874 204.087 193.262 203.67C193.656 203.238 194.192 202.884 194.871 202.608C195.916 202.184 196.838 202.127 197.637 202.437C198.432 202.735 199.028 203.374 199.425 204.353L200.921 208.038C201.057 208.372 201.28 208.476 201.591 208.349L202.342 208.044L202.795 209.162L201.645 209.629C201.278 209.778 200.942 209.798 200.639 209.688C200.331 209.567 200.107 209.334 199.967 208.99L199.933 208.906L199.733 208.987C199.696 209.248 199.62 209.539 199.503 209.858C199.394 210.161 199.19 210.458 198.893 210.747C198.6 211.047 198.171 211.312 197.604 211.543ZM197.293 210.348C198.072 210.031 198.607 209.548 198.9 208.898C199.2 208.233 199.18 207.483 198.842 206.649L198.767 206.465L196.066 207.563C195.543 207.775 195.157 208.068 194.907 208.441C194.664 208.799 194.635 209.206 194.82 209.662C195.005 210.118 195.322 210.404 195.77 210.519C196.23 210.631 196.737 210.573 197.293 210.348ZM208.219 207.231C207.429 207.551 206.65 207.674 205.881 207.597C205.118 207.506 204.425 207.217 203.801 206.733C203.188 206.243 202.705 205.565 202.353 204.698L202.279 204.514C201.922 203.636 201.796 202.813 201.899 202.046C202.008 201.263 202.307 200.579 202.794 199.992C203.288 199.39 203.929 198.929 204.718 198.608C205.497 198.292 206.217 198.168 206.879 198.236C207.552 198.299 208.142 198.506 208.647 198.858C209.163 199.205 209.577 199.633 209.887 200.142L208.711 200.93C208.493 200.552 208.211 200.24 207.864 199.992C207.528 199.74 207.137 199.588 206.688 199.537C206.24 199.486 205.749 199.569 205.216 199.785C204.671 200.007 204.232 200.328 203.897 200.748C203.574 201.165 203.377 201.653 203.306 202.212C203.247 202.768 203.346 203.362 203.603 203.996L203.664 204.146C203.921 204.78 204.265 205.275 204.694 205.631C205.135 205.983 205.616 206.196 206.138 206.269C206.671 206.337 207.21 206.261 207.755 206.04C208.566 205.71 209.098 205.248 209.348 204.654C209.611 204.055 209.665 203.424 209.513 202.761L210.928 202.516C211.023 203.1 211.006 203.696 210.877 204.305C210.749 204.914 210.466 205.476 210.027 205.991C209.6 206.501 208.997 206.915 208.219 207.231ZM214.339 204.473L211.028 196.317L212.345 195.782L215.656 203.938L214.339 204.473ZM211.18 194.779C210.891 194.896 210.608 194.901 210.332 194.793C210.066 194.681 209.874 194.48 209.757 194.191C209.635 193.891 209.63 193.608 209.743 193.342C209.866 193.072 210.072 192.878 210.361 192.76C210.65 192.643 210.928 192.64 211.193 192.753C211.459 192.865 211.653 193.071 211.775 193.371C211.892 193.66 211.895 193.938 211.782 194.204C211.67 194.47 211.469 194.661 211.18 194.779ZM218.179 206.798L217.705 205.631L218.839 205.17C219.173 205.035 219.272 204.8 219.137 204.467L215.149 194.643L216.466 194.108L220.549 204.165C220.729 204.61 220.744 205.012 220.592 205.371C220.451 205.726 220.147 205.999 219.68 206.189L218.179 206.798ZM215.301 193.105C215.012 193.222 214.729 193.227 214.453 193.119C214.187 193.007 213.995 192.806 213.878 192.517C213.756 192.217 213.751 191.934 213.864 191.668C213.987 191.398 214.193 191.204 214.482 191.086C214.771 190.969 215.049 190.966 215.314 191.079C215.58 191.191 215.774 191.397 215.896 191.697C216.013 191.986 216.016 192.264 215.903 192.53C215.791 192.795 215.591 192.987 215.301 193.105ZM225.143 200.356C224.576 200.586 224.018 200.696 223.47 200.686C222.922 200.675 222.438 200.535 222.017 200.266C221.597 199.996 221.276 199.589 221.055 199.044C220.829 198.488 220.778 197.978 220.9 197.514C221.018 197.038 221.274 196.617 221.669 196.249C222.059 195.871 222.544 195.564 223.122 195.329L225.873 194.211L225.63 193.611C225.395 193.033 225.037 192.647 224.557 192.453C224.089 192.255 223.521 192.292 222.853 192.563C222.197 192.829 221.752 193.198 221.516 193.669C221.275 194.13 221.196 194.654 221.28 195.242L219.883 195.343C219.831 194.833 219.876 194.336 220.016 193.851C220.151 193.356 220.413 192.9 220.801 192.483C221.195 192.051 221.732 191.697 222.41 191.422C223.455 190.997 224.377 190.94 225.176 191.25C225.971 191.549 226.567 192.187 226.964 193.166L228.46 196.852C228.596 197.185 228.819 197.289 229.13 197.162L229.881 196.858L230.335 197.975L229.184 198.442C228.817 198.591 228.482 198.611 228.178 198.501C227.87 198.38 227.646 198.147 227.506 197.803L227.472 197.719L227.272 197.801C227.236 198.062 227.159 198.352 227.043 198.671C226.933 198.975 226.729 199.271 226.432 199.56C226.14 199.86 225.71 200.126 225.143 200.356ZM224.833 199.161C225.611 198.845 226.146 198.362 226.439 197.712C226.739 197.046 226.72 196.296 226.381 195.462L226.307 195.279L223.605 196.376C223.082 196.588 222.696 196.881 222.446 197.255C222.203 197.613 222.174 198.019 222.359 198.475C222.544 198.931 222.861 199.217 223.309 199.333C223.769 199.444 224.277 199.387 224.833 199.161Z" fill="black"/>
<path d="M144.922 338.983C144.555 339.132 144.182 339.186 143.803 339.146C143.431 339.09 143.095 338.948 142.795 338.72C142.495 338.492 142.271 338.195 142.122 337.828C141.968 337.45 141.92 337.074 141.976 336.702C142.032 336.33 142.176 335.999 142.408 335.71C142.636 335.41 142.939 335.184 143.317 335.03C143.695 334.877 144.071 334.828 144.443 334.884C144.822 334.924 145.156 335.06 145.444 335.293C145.744 335.521 145.971 335.824 146.124 336.202C146.278 336.58 146.326 336.955 146.27 337.328C146.214 337.7 146.065 338.033 145.821 338.326C145.589 338.615 145.289 338.834 144.922 338.983ZM162.576 334.512L158.351 324.105L154.599 325.629L154.085 324.362L162.99 320.744L163.504 322.012L159.752 323.536L163.977 333.943L162.576 334.512ZM169.415 331.734L166.104 323.578L167.422 323.043L170.733 331.199L169.415 331.734ZM166.257 322.04C165.968 322.157 165.685 322.162 165.408 322.054C165.142 321.942 164.951 321.741 164.833 321.452C164.712 321.152 164.707 320.869 164.819 320.603C164.942 320.333 165.149 320.139 165.438 320.022C165.727 319.904 166.004 319.902 166.27 320.014C166.536 320.126 166.729 320.332 166.851 320.633C166.969 320.922 166.971 321.199 166.859 321.465C166.747 321.731 166.546 321.922 166.257 322.04ZM173.503 330.074L168.764 318.399L170.081 317.864L172.87 324.735L173.104 324.64L175.479 319.77L177.313 319.025L174.405 324.831L180.757 327.127L178.939 327.865L173.612 325.891L173.378 325.986L174.82 329.538L173.503 330.074ZM180.408 322.975L179.914 321.757L184.851 319.752L185.345 320.97L180.408 322.975ZM190.978 322.975L186.754 312.568L183.001 314.092L182.487 312.824L191.392 309.207L191.907 310.474L188.155 311.999L192.379 322.406L190.978 322.975ZM200.167 319.514C199.344 319.849 198.546 319.972 197.772 319.885C197.01 319.793 196.324 319.508 195.715 319.03C195.114 318.536 194.639 317.861 194.291 317.005L194.203 316.788C193.86 315.943 193.732 315.134 193.82 314.36C193.918 313.582 194.209 312.894 194.692 312.296C195.185 311.694 195.844 311.226 196.666 310.892C197.489 310.558 198.282 310.436 199.044 310.528C199.818 310.615 200.506 310.906 201.108 311.4C201.721 311.889 202.199 312.556 202.542 313.401L202.63 313.618C202.977 314.474 203.102 315.291 203.003 316.07C202.911 316.832 202.618 317.515 202.125 318.117C201.642 318.714 200.989 319.18 200.167 319.514ZM199.686 318.33C200.553 317.978 201.132 317.426 201.422 316.673C201.719 315.905 201.678 315.054 201.299 314.12L201.238 313.97C200.859 313.036 200.297 312.402 199.553 312.07C198.816 311.722 198.014 311.724 197.147 312.076C196.291 312.424 195.715 312.982 195.418 313.75C195.116 314.507 195.155 315.352 195.534 316.286L195.595 316.437C195.974 317.371 196.538 318.009 197.286 318.353C198.03 318.686 198.83 318.678 199.686 318.33ZM206.612 316.624L201.873 304.95L203.19 304.414L205.979 311.286L206.213 311.191L208.588 306.321L210.422 305.576L207.514 311.381L213.866 313.677L212.048 314.416L206.721 312.442L206.487 312.537L207.929 316.089L206.612 316.624ZM153.573 360.294C153.206 360.443 152.833 360.497 152.454 360.457C152.082 360.401 151.745 360.259 151.446 360.031C151.146 359.803 150.922 359.506 150.773 359.139C150.619 358.761 150.571 358.386 150.627 358.013C150.683 357.641 150.827 357.31 151.059 357.021C151.287 356.721 151.59 356.495 151.968 356.341C152.346 356.188 152.721 356.139 153.094 356.195C153.473 356.235 153.807 356.372 154.095 356.604C154.395 356.832 154.622 357.135 154.775 357.513C154.929 357.891 154.977 358.266 154.921 358.639C154.865 359.011 154.715 359.344 154.472 359.637C154.239 359.926 153.94 360.145 153.573 360.294ZM168.358 356.988L163.619 345.314L165.02 344.745L169.759 356.419L168.358 356.988ZM172.48 355.314L169.169 347.159L170.453 346.637L171.015 348.021L171.249 347.926C171.269 347.465 171.427 346.993 171.723 346.51C172.025 346.011 172.594 345.593 173.428 345.254C174.039 345.006 174.636 344.912 175.218 344.974C175.811 345.031 176.353 345.251 176.845 345.634C177.337 346.017 177.732 346.575 178.03 347.309L180.034 352.246L178.717 352.781L176.754 347.944C176.424 347.132 175.979 346.627 175.419 346.427C174.87 346.222 174.25 346.26 173.561 346.54C172.772 346.861 172.231 347.379 171.938 348.093C171.657 348.803 171.721 349.664 172.132 350.676L173.797 354.779L172.48 355.314ZM186.087 350.059C185.076 350.47 184.125 350.584 183.235 350.401C182.356 350.214 181.639 349.644 181.084 348.691L182.219 347.9C182.525 348.397 182.863 348.752 183.234 348.964C183.601 349.165 183.989 349.26 184.399 349.249C184.815 349.222 185.229 349.125 185.641 348.958C186.252 348.71 186.686 348.391 186.942 348.002C187.199 347.613 187.244 347.212 187.077 346.801C186.905 346.378 186.613 346.154 186.201 346.127C185.795 346.085 185.275 346.127 184.641 346.256L183.91 346.417C183.351 346.54 182.816 346.595 182.306 346.582C181.796 346.569 181.347 346.454 180.961 346.235C180.574 346.016 180.282 345.663 180.083 345.173C179.785 344.439 179.836 343.752 180.236 343.11C180.636 342.468 181.303 341.958 182.237 341.578C183.16 341.203 183.99 341.112 184.729 341.304C185.474 341.481 186.083 341.913 186.557 342.602L185.452 343.42C185.112 342.871 184.706 342.557 184.234 342.477C183.756 342.386 183.24 342.453 182.684 342.679C182.128 342.905 181.732 343.189 181.495 343.531C181.254 343.862 181.214 344.228 181.377 344.628C181.535 345.017 181.802 345.245 182.179 345.313C182.563 345.364 183.028 345.33 183.576 345.212L184.307 345.051C184.926 344.916 185.499 344.845 186.027 344.838C186.562 344.815 187.028 344.91 187.426 345.124C187.835 345.334 188.145 345.7 188.357 346.222C188.682 347.023 188.632 347.762 188.208 348.44C187.795 349.113 187.088 349.652 186.087 350.059ZM194.324 346.441C193.857 346.63 193.444 346.649 193.085 346.498C192.736 346.341 192.472 346.041 192.291 345.596L190.03 340.025L187.578 341.021L187.111 339.87L189.563 338.874L188.385 335.972L189.702 335.437L190.88 338.339L193.548 337.255L194.016 338.406L191.347 339.49L193.527 344.861C193.663 345.194 193.892 345.295 194.214 345.164L196.032 344.426L196.492 345.56L194.324 346.441ZM201.54 343.781C200.973 344.012 200.416 344.122 199.868 344.111C199.319 344.101 198.835 343.961 198.415 343.691C197.995 343.421 197.674 343.014 197.453 342.469C197.227 341.913 197.175 341.403 197.298 340.939C197.416 340.464 197.672 340.042 198.067 339.675C198.457 339.296 198.941 338.989 199.519 338.755L202.271 337.637L202.027 337.036C201.793 336.458 201.435 336.072 200.955 335.879C200.486 335.681 199.918 335.717 199.251 335.988C198.595 336.255 198.149 336.624 197.913 337.095C197.673 337.555 197.594 338.079 197.677 338.667L196.281 338.768C196.229 338.258 196.273 337.761 196.413 337.277C196.549 336.781 196.811 336.325 197.199 335.909C197.593 335.477 198.129 335.123 198.807 334.847C199.852 334.423 200.775 334.365 201.574 334.675C202.369 334.974 202.965 335.613 203.362 336.591L204.858 340.277C204.993 340.611 205.217 340.714 205.528 340.588L206.279 340.283L206.732 341.401L205.581 341.868C205.215 342.017 204.879 342.037 204.576 341.927C204.268 341.806 204.044 341.573 203.904 341.228L203.87 341.145L203.67 341.226C203.633 341.487 203.557 341.777 203.44 342.097C203.33 342.4 203.127 342.697 202.83 342.986C202.537 343.286 202.107 343.551 201.54 343.781ZM201.23 342.586C202.008 342.27 202.544 341.787 202.837 341.137C203.137 340.471 203.117 339.722 202.779 338.888L202.704 338.704L200.003 339.802C199.48 340.014 199.094 340.307 198.844 340.68C198.601 341.038 198.572 341.445 198.757 341.901C198.942 342.357 199.259 342.643 199.707 342.758C200.167 342.869 200.674 342.812 201.23 342.586ZM206.27 336.887L206.175 336.653C205.828 335.797 205.702 334.993 205.798 334.242C205.895 333.49 206.17 332.828 206.624 332.255C207.078 331.682 207.655 331.253 208.355 330.969C209.211 330.621 209.935 330.521 210.526 330.67C211.124 330.803 211.615 331.024 212 331.334L212.234 331.239L211.685 329.888L212.936 329.38L217.018 339.437C217.199 339.882 217.219 340.282 217.078 340.637C216.937 340.992 216.633 341.264 216.166 341.454L210.63 343.703L210.156 342.535L215.342 340.429C215.676 340.293 215.775 340.059 215.639 339.725L214.38 336.623L214.147 336.718C214.113 337.017 214.021 337.332 213.871 337.665C213.721 337.998 213.483 338.321 213.157 338.635C212.827 338.938 212.373 339.206 211.794 339.441C211.094 339.726 210.381 339.821 209.657 339.727C208.932 339.633 208.273 339.35 207.681 338.878C207.083 338.396 206.613 337.732 206.27 336.887ZM211.671 338.132C212.516 337.788 213.091 337.244 213.397 336.498C213.714 335.747 213.683 334.905 213.304 333.971L213.25 333.838C212.866 332.893 212.301 332.267 211.555 331.961C210.816 331.64 210.024 331.651 209.179 331.994C208.345 332.333 207.764 332.88 207.436 333.635C207.115 334.374 207.146 335.216 207.53 336.161L207.584 336.295C207.963 337.229 208.528 337.854 209.278 338.171C210.039 338.483 210.837 338.47 211.671 338.132ZM219.008 336.414L215.698 328.258L216.982 327.737L217.388 328.737L217.621 328.642C217.622 328.228 217.738 327.876 217.97 327.588C218.203 327.299 218.564 327.055 219.053 326.856L220.02 326.464L220.507 327.664L219.457 328.091C218.868 328.33 218.457 328.691 218.226 329.174C218.001 329.641 218.028 330.219 218.308 330.909L220.326 335.879L219.008 336.414ZM227.614 333.19C227.047 333.42 226.489 333.53 225.941 333.52C225.393 333.509 224.909 333.369 224.488 333.1C224.068 332.83 223.747 332.423 223.526 331.878C223.301 331.322 223.249 330.812 223.371 330.348C223.489 329.873 223.746 329.451 224.14 329.083C224.531 328.705 225.015 328.398 225.593 328.163L228.344 327.045L228.101 326.445C227.866 325.867 227.509 325.481 227.029 325.287C226.56 325.089 225.992 325.126 225.325 325.397C224.669 325.663 224.223 326.032 223.987 326.504C223.746 326.964 223.668 327.488 223.751 328.076L222.354 328.177C222.303 327.667 222.347 327.17 222.487 326.685C222.623 326.19 222.884 325.734 223.272 325.317C223.666 324.885 224.203 324.531 224.881 324.256C225.926 323.831 226.848 323.774 227.647 324.084C228.442 324.383 229.038 325.022 229.435 326L230.932 329.686C231.067 330.019 231.29 330.123 231.602 329.997L232.352 329.692L232.806 330.809L231.655 331.277C231.288 331.426 230.953 331.445 230.649 331.335C230.341 331.214 230.117 330.982 229.977 330.637L229.943 330.554L229.743 330.635C229.707 330.896 229.63 331.186 229.514 331.505C229.404 331.809 229.2 332.105 228.903 332.394C228.611 332.695 228.181 332.96 227.614 333.19ZM227.304 331.995C228.082 331.679 228.618 331.196 228.911 330.546C229.21 329.88 229.191 329.13 228.852 328.296L228.778 328.113L226.076 329.21C225.554 329.423 225.167 329.715 224.918 330.089C224.674 330.447 224.645 330.854 224.83 331.309C225.015 331.765 225.332 332.051 225.78 332.167C226.24 332.278 226.748 332.221 227.304 331.995ZM234.61 330.076L231.299 321.921L232.583 321.399L232.996 322.416L233.23 322.321C233.268 321.969 233.416 321.598 233.672 321.209C233.929 320.82 234.379 320.495 235.024 320.233C235.658 319.975 236.226 319.907 236.728 320.026C237.241 320.142 237.667 320.364 238.008 320.692L238.241 320.597C238.268 320.12 238.414 319.665 238.679 319.234C238.955 318.798 239.438 318.44 240.127 318.16C240.672 317.938 241.195 317.855 241.697 317.911C242.198 317.966 242.652 318.158 243.057 318.485C243.468 318.797 243.791 319.242 244.026 319.821L246.267 325.341L244.95 325.876L242.756 320.472C242.535 319.928 242.2 319.565 241.751 319.385C241.309 319.189 240.804 319.206 240.237 319.436C239.637 319.68 239.221 320.076 238.99 320.623C238.77 321.166 238.809 321.804 239.107 322.538L241.097 327.441L239.78 327.976L237.586 322.572C237.365 322.028 237.03 321.665 236.581 321.485C236.139 321.289 235.635 321.306 235.068 321.536C234.467 321.78 234.051 322.176 233.82 322.723C233.6 323.266 233.639 323.904 233.937 324.638L235.927 329.541L234.61 330.076ZM162.224 381.605C161.857 381.754 161.484 381.808 161.105 381.768C160.732 381.712 160.396 381.57 160.097 381.342C159.797 381.114 159.572 380.817 159.424 380.45C159.27 380.072 159.221 379.697 159.277 379.324C159.333 378.952 159.478 378.621 159.71 378.332C159.938 378.033 160.241 377.806 160.619 377.652C160.997 377.499 161.372 377.45 161.745 377.506C162.124 377.546 162.457 377.683 162.746 377.915C163.046 378.143 163.272 378.446 163.426 378.824C163.579 379.202 163.628 379.577 163.572 379.95C163.516 380.322 163.366 380.655 163.123 380.948C162.89 381.237 162.59 381.456 162.224 381.605ZM180.061 377.06L178.253 372.607L171.169 367.072L172.77 366.422L178.18 370.752L178.414 370.657L179.274 363.78L180.875 363.129L179.654 372.038L181.462 376.491L180.061 377.06ZM189.652 373.436C188.829 373.77 188.031 373.894 187.258 373.806C186.495 373.714 185.81 373.43 185.201 372.951C184.599 372.458 184.124 371.783 183.777 370.927L183.689 370.71C183.346 369.865 183.218 369.055 183.305 368.281C183.404 367.503 183.694 366.815 184.177 366.218C184.671 365.616 185.329 365.147 186.152 364.813C186.975 364.479 187.767 364.358 188.53 364.45C189.303 364.537 189.991 364.827 190.593 365.321C191.206 365.81 191.684 366.478 192.027 367.323L192.115 367.539C192.463 368.396 192.587 369.213 192.489 369.991C192.397 370.754 192.104 371.436 191.61 372.038C191.127 372.636 190.475 373.102 189.652 373.436ZM189.171 372.252C190.039 371.899 190.617 371.347 190.908 370.594C191.204 369.826 191.163 368.975 190.784 368.041L190.723 367.891C190.344 366.957 189.783 366.324 189.039 365.991C188.302 365.643 187.5 365.645 186.633 365.997C185.776 366.345 185.2 366.903 184.903 367.671C184.602 368.428 184.641 369.274 185.02 370.208L185.081 370.358C185.46 371.292 186.024 371.931 186.772 372.274C187.515 372.607 188.315 372.599 189.171 372.252ZM199.277 369.429C198.687 369.668 198.091 369.762 197.487 369.709C196.894 369.652 196.351 369.432 195.859 369.049C195.373 368.651 194.984 368.09 194.691 367.367L192.687 362.431L194.004 361.896L195.967 366.732C196.297 367.544 196.736 368.052 197.285 368.256C197.846 368.456 198.47 368.416 199.16 368.136C199.938 367.82 200.473 367.304 200.766 366.59C201.059 365.875 201 365.012 200.589 364L198.924 359.897L200.241 359.362L203.552 367.518L202.268 368.039L201.706 366.655L201.472 366.75C201.452 367.211 201.291 367.691 200.988 368.19C200.681 368.677 200.111 369.09 199.277 369.429ZM209.127 365.253L204.902 354.846L201.15 356.37L200.635 355.102L209.541 351.485L210.055 352.753L206.303 354.277L210.528 364.684L209.127 365.253ZM218.005 361.821C217.416 362.061 216.819 362.154 216.215 362.102C215.622 362.045 215.08 361.825 214.588 361.442C214.102 361.043 213.713 360.482 213.419 359.76L211.415 354.823L212.733 354.288L214.696 359.124C215.025 359.936 215.465 360.444 216.014 360.648C216.574 360.848 217.199 360.808 217.888 360.528C218.667 360.212 219.202 359.697 219.495 358.982C219.787 358.267 219.728 357.404 219.318 356.392L217.652 352.289L218.97 351.754L222.28 359.91L220.996 360.431L220.434 359.047L220.201 359.142C220.181 359.603 220.02 360.083 219.717 360.582C219.41 361.069 218.839 361.483 218.005 361.821ZM229.651 357.188C228.806 357.531 228.079 357.638 227.47 357.51C226.873 357.377 226.384 357.148 226.006 356.823L225.773 356.917L226.321 358.268L225.037 358.79L220.298 347.115L221.615 346.58L223.565 351.383L223.799 351.289C223.828 350.979 223.92 350.663 224.075 350.341C224.224 350.008 224.464 349.691 224.795 349.388C225.132 349.07 225.584 348.795 226.151 348.565C226.863 348.276 227.577 348.186 228.295 348.296C229.02 348.39 229.683 348.684 230.285 349.178C230.883 349.661 231.357 350.336 231.709 351.203L231.797 351.42C232.149 352.287 232.276 353.11 232.178 353.888C232.09 354.662 231.82 355.335 231.366 355.908C230.923 356.477 230.352 356.903 229.651 357.188ZM228.827 356.163C229.672 355.819 230.247 355.275 230.553 354.529C230.866 353.767 230.826 352.903 230.433 351.935L230.372 351.785C229.979 350.818 229.408 350.176 228.658 349.859C227.914 349.526 227.12 349.532 226.275 349.875C225.441 350.214 224.862 350.766 224.539 351.532C224.222 352.283 224.259 353.141 224.652 354.109L224.713 354.259C225.106 355.226 225.679 355.874 226.434 356.202C227.196 356.514 227.993 356.501 228.827 356.163ZM239.6 353.147C238.777 353.481 237.984 353.602 237.222 353.51C236.455 353.407 235.77 353.109 235.168 352.615C234.567 352.121 234.096 351.458 233.758 350.624L233.677 350.423C233.334 349.578 233.206 348.769 233.293 347.995C233.38 347.221 233.66 346.538 234.132 345.945C234.599 345.341 235.227 344.878 236.016 344.558C236.783 344.246 237.529 344.137 238.254 344.232C238.974 344.315 239.625 344.594 240.207 345.07C240.788 345.546 241.246 346.196 241.58 347.019L241.824 347.619L235.17 350.322C235.56 351.187 236.123 351.761 236.86 352.045C237.592 352.317 238.359 352.291 239.159 351.965C239.86 351.681 240.333 351.301 240.58 350.825C240.828 350.349 240.961 349.848 240.98 349.322L242.338 349.411C242.311 349.824 242.218 350.263 242.057 350.73C241.908 351.192 241.642 351.637 241.259 352.065C240.886 352.488 240.333 352.848 239.6 353.147ZM234.747 349.231L240.05 347.077C239.698 346.339 239.198 345.856 238.548 345.627C237.91 345.395 237.224 345.427 236.49 345.725C235.745 346.028 235.219 346.487 234.913 347.104C234.606 347.721 234.551 348.43 234.747 349.231Z" fill="black"/>
<path d="M109.45 291.283L108.796 289.673C108.394 288.681 108.232 287.796 108.313 287.02C108.393 286.243 108.666 285.531 109.131 284.883C109.604 284.216 110.234 283.564 111.021 282.928L112.107 282.036C112.592 281.633 112.98 281.222 113.269 280.804C113.572 280.38 113.755 279.934 113.817 279.465C113.875 278.982 113.799 278.483 113.589 277.966L113.556 277.885C113.231 277.083 112.705 276.568 111.98 276.341C111.248 276.099 110.441 276.158 109.558 276.517C108.648 276.887 108.006 277.432 107.634 278.153C107.276 278.869 107.289 279.702 107.676 280.654L107.808 280.98L105.688 281.841L105.564 281.535C105.145 280.502 105.016 279.541 105.178 278.653C105.334 277.75 105.728 276.949 106.362 276.248C106.996 275.547 107.802 274.998 108.78 274.601C109.759 274.203 110.703 274.034 111.613 274.091C112.536 274.144 113.35 274.415 114.056 274.904C114.774 275.388 115.316 276.078 115.68 276.975L115.754 277.158C116.129 278.082 116.258 278.925 116.139 279.685C116.02 280.446 115.715 281.156 115.223 281.815C114.744 282.468 114.138 283.102 113.406 283.716L112.353 284.571C111.791 285.021 111.36 285.441 111.06 285.833C110.768 286.205 110.59 286.585 110.527 286.975C110.477 287.36 110.551 287.796 110.75 288.286L110.833 288.49L118.884 285.219L119.662 287.135L109.45 291.283ZM123.795 285.789C123.32 285.982 122.855 285.988 122.402 285.808C121.963 285.623 121.644 285.285 121.445 284.796C121.247 284.307 121.243 283.849 121.434 283.423C121.633 282.978 121.971 282.659 122.446 282.466C122.922 282.273 123.38 282.269 123.819 282.454C124.272 282.635 124.595 282.962 124.788 283.438C124.987 283.927 124.986 284.394 124.787 284.839C124.601 285.279 124.271 285.595 123.795 285.789ZM137.696 279.809L127.93 267.155L130.212 266.227L138.907 277.703L139.172 277.595L137.387 263.313L139.67 262.386L141.508 278.261L137.696 279.809ZM151.508 274.531C150.489 274.945 149.513 275.096 148.581 274.984C147.644 274.858 146.801 274.496 146.051 273.898C145.31 273.281 144.73 272.456 144.311 271.423L144.211 271.179C143.787 270.132 143.628 269.136 143.734 268.191C143.836 267.231 144.175 266.389 144.751 265.664C145.335 264.92 146.123 264.347 147.115 263.944C148.08 263.552 149.011 263.427 149.908 263.57C150.812 263.693 151.623 264.052 152.34 264.648C153.056 265.243 153.621 266.05 154.035 267.07L154.358 267.865L146.633 271.003C147.019 271.875 147.598 272.463 148.37 272.767C149.15 273.051 149.962 273.022 150.804 272.68C151.592 272.36 152.112 271.943 152.362 271.43C152.626 270.911 152.773 270.376 152.803 269.826L154.9 270.019C154.864 270.477 154.748 270.991 154.552 271.561C154.37 272.126 154.045 272.67 153.576 273.192C153.108 273.715 152.418 274.161 151.508 274.531ZM146 269.384L151.564 267.124C151.201 266.385 150.689 265.904 150.029 265.681C149.363 265.445 148.636 265.487 147.848 265.807C147.06 266.127 146.503 266.607 146.176 267.246C145.858 267.866 145.799 268.579 146 269.384ZM164.614 269.208C163.635 269.605 162.809 269.735 162.136 269.597C161.476 269.453 160.929 269.216 160.494 268.886L160.168 269.019L160.747 270.446L158.689 271.282L152.897 257.013L154.996 256.16L157.263 261.745L157.589 261.613C157.642 261.275 157.755 260.928 157.927 260.573C158.094 260.205 158.369 259.848 158.751 259.502C159.133 259.157 159.65 258.852 160.303 258.587C161.145 258.245 162.002 258.134 162.874 258.255C163.747 258.376 164.55 258.738 165.286 259.341C166.022 259.945 166.608 260.783 167.043 261.857L167.167 262.163C167.609 263.25 167.769 264.269 167.649 265.22C167.536 266.152 167.21 266.966 166.669 267.66C166.141 268.35 165.456 268.865 164.614 269.208ZM163.258 267.621C164.168 267.252 164.797 266.656 165.144 265.834C165.504 265.007 165.464 264.05 165.023 262.962L164.948 262.779C164.513 261.705 163.884 260.995 163.062 260.648C162.241 260.301 161.368 260.315 160.444 260.691C159.547 261.055 158.919 261.651 158.558 262.478C158.211 263.3 158.255 264.247 158.691 265.321L158.765 265.504C159.207 266.591 159.838 267.309 160.66 267.656C161.495 267.997 162.361 267.986 163.258 267.621ZM181.215 262.464C180.387 262.8 179.536 262.908 178.664 262.788C177.792 262.667 176.984 262.315 176.24 261.73C175.505 261.127 174.916 260.281 174.475 259.194L174.351 258.888C173.915 257.815 173.75 256.805 173.857 255.859C173.964 254.914 174.288 254.094 174.829 253.399C175.37 252.704 176.062 252.186 176.904 251.843C177.557 251.578 178.133 251.439 178.634 251.426C179.149 251.407 179.601 251.468 179.991 251.61C180.376 251.739 180.698 251.909 180.958 252.12L181.284 251.988L179.017 246.402L181.116 245.549L186.909 259.819L184.85 260.655L184.271 259.228L183.945 259.36C183.863 259.9 183.629 260.454 183.242 261.023C182.869 261.586 182.194 262.066 181.215 262.464ZM181.062 260.389C181.972 260.019 182.601 259.423 182.948 258.602C183.309 257.774 183.268 256.817 182.827 255.73L182.753 255.547C182.317 254.473 181.688 253.763 180.867 253.416C180.045 253.069 179.172 253.083 178.248 253.458C177.352 253.823 176.723 254.418 176.362 255.246C176.015 256.067 176.059 257.015 176.495 258.089L176.57 258.272C177.011 259.359 177.642 260.076 178.464 260.423C179.299 260.765 180.165 260.753 181.062 260.389ZM189.999 258.563L185.92 248.514L188.019 247.661L192.099 257.71L189.999 258.563ZM186.425 246.717C186.018 246.883 185.619 246.895 185.228 246.752C184.846 246.591 184.57 246.3 184.399 245.878C184.228 245.457 184.226 245.062 184.393 244.693C184.568 244.306 184.859 244.029 185.267 243.864C185.688 243.692 186.09 243.688 186.472 243.849C186.848 243.997 187.122 244.281 187.293 244.703C187.464 245.124 187.469 245.526 187.307 245.908C187.141 246.276 186.846 246.546 186.425 246.717ZM194.807 256.61L193.764 254.042L197.494 246.21L197.378 245.925L191.651 248.252L190.931 246.478L198.941 243.224L199.992 245.813L196.242 253.653L196.349 253.918L202.464 251.434L203.184 253.207L194.807 256.61ZM208.998 251.178C208.278 251.471 207.583 251.611 206.913 251.598C206.256 251.579 205.662 251.401 205.129 251.064C204.61 250.721 204.212 250.209 203.936 249.53C203.655 248.837 203.587 248.2 203.731 247.619C203.883 247.019 204.197 246.487 204.674 246.024C205.165 245.556 205.777 245.173 206.511 244.875L209.568 243.633L209.303 242.981C209.066 242.396 208.699 241.999 208.202 241.789C207.706 241.579 207.09 241.624 206.357 241.922C205.636 242.214 205.155 242.608 204.912 243.102C204.67 243.596 204.598 244.14 204.696 244.733L202.483 244.896C202.425 244.286 202.485 243.692 202.662 243.114C202.847 242.516 203.183 241.96 203.67 241.446C204.158 240.931 204.823 240.503 205.665 240.16C206.97 239.63 208.131 239.547 209.149 239.909C210.166 240.271 210.923 241.064 211.42 242.287L213.1 246.425C213.265 246.833 213.538 246.959 213.919 246.805L214.775 246.457L215.486 248.21L213.917 248.848C213.441 249.041 213.004 249.076 212.606 248.953C212.208 248.829 211.923 248.557 211.752 248.136L211.727 248.075L211.422 248.199C211.396 248.447 211.329 248.751 211.222 249.111C211.115 249.471 210.892 249.839 210.554 250.214C210.21 250.575 209.691 250.897 208.998 251.178ZM208.6 249.321C209.443 248.979 210.026 248.465 210.349 247.78C210.667 247.081 210.655 246.31 210.313 245.467L210.23 245.264L207.295 246.456C206.738 246.682 206.339 246.987 206.099 247.369C205.853 247.738 205.823 248.154 206.011 248.616C206.199 249.078 206.524 249.373 206.988 249.501C207.451 249.63 207.989 249.57 208.6 249.321ZM217.266 252.236L216.53 250.422L217.896 249.867C218.29 249.707 218.404 249.423 218.238 249.015L213.489 237.315L215.588 236.462L220.503 248.57C220.752 249.182 220.774 249.743 220.569 250.253C220.365 250.764 219.943 251.149 219.305 251.408L217.266 252.236ZM213.994 235.518C213.587 235.684 213.188 235.696 212.798 235.553C212.415 235.392 212.139 235.101 211.968 234.679C211.797 234.258 211.795 233.863 211.962 233.495C212.137 233.107 212.428 232.83 212.836 232.665C213.257 232.494 213.659 232.489 214.041 232.65C214.417 232.798 214.691 233.082 214.862 233.504C215.033 233.925 215.038 234.327 214.877 234.709C214.71 235.077 214.416 235.347 213.994 235.518ZM222.782 245.246L218.703 235.197L220.762 234.36L221.374 235.869L221.7 235.736C221.725 235.251 221.91 234.733 222.256 234.181C222.602 233.629 223.257 233.157 224.222 232.765C224.982 232.456 225.724 232.353 226.446 232.455C227.182 232.552 227.847 232.844 228.44 233.331C229.028 233.805 229.499 234.476 229.852 235.346L232.301 241.38L230.202 242.233L227.818 236.362C227.465 235.492 226.989 234.942 226.388 234.711C225.783 234.466 225.099 234.498 224.338 234.807C223.469 235.161 222.885 235.73 222.586 236.516C222.302 237.297 222.38 238.231 222.821 239.318L224.882 244.394L222.782 245.246Z" fill="black"/>
<path d="M126.555 319.206C125.509 319.631 124.501 319.819 123.531 319.77C122.561 319.721 121.699 319.43 120.945 318.897C120.204 318.359 119.633 317.594 119.23 316.602L119.081 316.235L121.221 315.365L121.353 315.692C121.718 316.589 122.299 317.183 123.099 317.476C123.906 317.75 124.799 317.688 125.778 317.29C126.756 316.893 127.418 316.339 127.762 315.629C128.107 314.919 128.128 314.19 127.825 313.443L127.75 313.259C127.535 312.729 127.232 312.354 126.842 312.132C126.451 311.911 126.008 311.814 125.513 311.841C125.012 311.855 124.489 311.972 123.946 312.193L121.357 313.244L120.356 310.778L124.17 305.785L124.054 305.5L116.391 308.613L115.613 306.697L125.6 302.64L126.775 305.534L123.144 310.334L123.26 310.619L124.136 310.263C124.856 309.971 125.591 309.831 126.34 309.843C127.089 309.855 127.773 310.06 128.394 310.457C129.027 310.849 129.518 311.473 129.866 312.329L129.965 312.573C130.335 313.484 130.44 314.367 130.281 315.223C130.116 316.066 129.717 316.837 129.084 317.538C128.444 318.225 127.602 318.781 126.555 319.206ZM135.689 315.496C135.214 315.689 134.749 315.696 134.296 315.516C133.857 315.33 133.538 314.993 133.339 314.503C133.141 314.014 133.137 313.557 133.328 313.131C133.527 312.686 133.865 312.367 134.34 312.173C134.816 311.98 135.273 311.976 135.713 312.162C136.166 312.342 136.489 312.67 136.682 313.146C136.881 313.635 136.88 314.102 136.681 314.547C136.495 314.986 136.165 315.303 135.689 315.496ZM149.59 309.517L139.823 296.862L142.106 295.935L150.801 307.41L151.066 307.303L149.281 293.02L151.564 292.093L153.402 307.968L149.59 309.517ZM159.356 305.55L155.277 295.5L157.376 294.647L161.456 304.697L159.356 305.55ZM155.782 293.704C155.375 293.869 154.976 293.881 154.586 293.739C154.204 293.577 153.927 293.286 153.756 292.865C153.585 292.443 153.583 292.048 153.75 291.68C153.925 291.292 154.216 291.016 154.624 290.85C155.045 290.679 155.447 290.674 155.829 290.835C156.206 290.983 156.479 291.268 156.65 291.689C156.821 292.11 156.826 292.512 156.665 292.894C156.498 293.263 156.204 293.533 155.782 293.704ZM168.845 302.028C168.016 302.364 167.166 302.472 166.294 302.352C165.422 302.231 164.614 301.878 163.87 301.294C163.134 300.691 162.546 299.845 162.105 298.758L161.98 298.452C161.545 297.379 161.38 296.369 161.487 295.423C161.594 294.478 161.918 293.657 162.459 292.963C163 292.268 163.692 291.749 164.534 291.407C165.186 291.142 165.763 291.003 166.264 290.989C166.779 290.97 167.231 291.032 167.621 291.174C168.006 291.303 168.328 291.473 168.588 291.684L168.914 291.551L166.647 285.966L168.746 285.113L174.538 299.383L172.48 300.219L171.901 298.792L171.575 298.924C171.493 299.464 171.259 300.018 170.872 300.587C170.499 301.15 169.824 301.63 168.845 302.028ZM168.692 299.953C169.602 299.583 170.231 298.987 170.578 298.166C170.939 297.338 170.898 296.381 170.457 295.294L170.383 295.111C169.947 294.037 169.318 293.327 168.497 292.98C167.675 292.633 166.802 292.647 165.878 293.022C164.981 293.386 164.353 293.982 163.992 294.809C163.645 295.631 163.689 296.579 164.125 297.652L164.2 297.836C164.641 298.923 165.272 299.64 166.094 299.987C166.929 300.329 167.795 300.317 168.692 299.953ZM182.351 296.541C181.332 296.955 180.357 297.106 179.425 296.994C178.487 296.868 177.644 296.506 176.895 295.908C176.153 295.291 175.573 294.466 175.154 293.434L175.055 293.189C174.63 292.143 174.471 291.146 174.578 290.201C174.679 289.241 175.018 288.399 175.594 287.674C176.179 286.93 176.967 286.357 177.959 285.954C178.923 285.562 179.854 285.437 180.751 285.58C181.656 285.703 182.466 286.062 183.183 286.658C183.899 287.253 184.465 288.06 184.878 289.08L185.201 289.875L177.476 293.013C177.862 293.885 178.441 294.473 179.213 294.777C179.993 295.061 180.805 295.032 181.647 294.69C182.435 294.37 182.955 293.953 183.205 293.44C183.47 292.921 183.617 292.386 183.647 291.836L185.743 292.029C185.707 292.487 185.592 293.001 185.396 293.571C185.213 294.136 184.888 294.68 184.42 295.202C183.951 295.725 183.262 296.171 182.351 296.541ZM176.843 291.394L182.407 289.134C182.044 288.395 181.532 287.914 180.872 287.691C180.206 287.455 179.479 287.497 178.691 287.817C177.903 288.137 177.346 288.617 177.02 289.256C176.702 289.876 176.643 290.589 176.843 291.394ZM194.356 291.665C193.351 292.073 192.371 292.234 191.418 292.146C190.472 292.039 189.618 291.69 188.855 291.097C188.092 290.505 187.496 289.679 187.065 288.619L186.941 288.313C186.511 287.253 186.365 286.251 186.505 285.308C186.639 284.351 187.008 283.505 187.611 282.769C188.228 282.028 189.04 281.453 190.045 281.044C191.051 280.636 192.033 280.482 192.992 280.583C193.951 280.685 194.812 281.031 195.575 281.624C196.333 282.203 196.926 283.022 197.357 284.082L197.481 284.388C197.911 285.448 198.059 286.456 197.925 287.413C197.791 288.37 197.416 289.219 196.799 289.96C196.176 290.688 195.362 291.256 194.356 291.665ZM193.595 289.789C194.519 289.414 195.148 288.818 195.481 288.002C195.823 287.167 195.781 286.226 195.356 285.179L195.282 284.996C194.857 283.95 194.241 283.25 193.433 282.898C192.62 282.532 191.744 282.539 190.806 282.92C189.896 283.29 189.27 283.892 188.928 284.727C188.595 285.544 188.641 286.475 189.065 287.521L189.14 287.705C189.565 288.751 190.184 289.457 190.997 289.824C191.819 290.171 192.685 290.159 193.595 289.789ZM207.206 286.113L201.414 271.843L210.403 268.192L211.213 270.19L204.426 272.947L206.089 277.044L212.306 274.519L213.117 276.517L206.9 279.042L208.597 283.221L215.486 280.422L216.297 282.42L207.206 286.113ZM222.927 280.059C222.098 280.396 221.247 280.504 220.375 280.383C219.503 280.262 218.695 279.91 217.951 279.326C217.216 278.722 216.627 277.877 216.186 276.79L216.062 276.484C215.626 275.41 215.462 274.401 215.568 273.455C215.675 272.509 215.999 271.689 216.54 270.994C217.081 270.299 217.773 269.781 218.616 269.439C219.268 269.174 219.844 269.035 220.345 269.021C220.86 269.002 221.313 269.063 221.703 269.206C222.087 269.334 222.41 269.504 222.669 269.715L222.995 269.583L220.728 263.998L222.828 263.145L228.62 277.414L226.561 278.25L225.982 276.823L225.656 276.956C225.574 277.496 225.34 278.05 224.954 278.618C224.581 279.181 223.905 279.662 222.927 280.059ZM222.773 277.984C223.684 277.615 224.312 277.019 224.659 276.197C225.02 275.37 224.98 274.413 224.538 273.325L224.464 273.142C224.028 272.068 223.399 271.358 222.578 271.011C221.756 270.664 220.884 270.678 219.96 271.054C219.063 271.418 218.434 272.014 218.073 272.841C217.726 273.663 217.771 274.61 218.206 275.684L218.281 275.867C218.722 276.954 219.354 277.672 220.175 278.019C221.01 278.36 221.876 278.349 222.773 277.984ZM231.71 276.159L227.631 266.109L229.73 265.256L233.81 275.306L231.71 276.159ZM228.136 264.313C227.729 264.478 227.33 264.49 226.94 264.348C226.558 264.186 226.281 263.895 226.11 263.474C225.939 263.052 225.937 262.657 226.104 262.289C226.279 261.901 226.57 261.624 226.978 261.459C227.399 261.288 227.801 261.283 228.183 261.444C228.56 261.592 228.833 261.877 229.004 262.298C229.175 262.719 229.18 263.121 229.019 263.503C228.852 263.872 228.558 264.142 228.136 264.313ZM240.696 272.508C240.085 272.757 239.521 272.772 239.005 272.554C238.503 272.331 238.128 271.913 237.88 271.302L235.339 265.044L232.567 266.17L231.847 264.396L234.619 263.27L233.271 259.948L235.37 259.095L236.719 262.417L239.715 261.2L240.435 262.974L237.439 264.191L239.83 270.082C239.995 270.49 240.268 270.616 240.649 270.462L242.748 269.609L243.468 271.382L240.696 272.508ZM250.727 268.766C249.721 269.175 248.742 269.335 247.788 269.248C246.842 269.141 245.988 268.792 245.225 268.199C244.463 267.607 243.866 266.78 243.436 265.72L243.312 265.415C242.881 264.355 242.736 263.353 242.875 262.41C243.009 261.453 243.378 260.607 243.982 259.871C244.599 259.129 245.41 258.554 246.416 258.146C247.421 257.738 248.403 257.584 249.363 257.685C250.322 257.786 251.183 258.133 251.946 258.725C252.703 259.304 253.297 260.124 253.727 261.184L253.851 261.489C254.281 262.549 254.43 263.558 254.296 264.515C254.162 265.471 253.786 266.32 253.169 267.062C252.546 267.79 251.732 268.358 250.727 268.766ZM249.965 266.891C250.889 266.516 251.518 265.92 251.852 265.104C252.193 264.268 252.152 263.328 251.727 262.281L251.652 262.098C251.228 261.051 250.611 260.352 249.803 259.999C248.99 259.633 248.114 259.641 247.177 260.021C246.266 260.391 245.64 260.994 245.299 261.829C244.965 262.645 245.011 263.577 245.436 264.623L245.51 264.806C245.935 265.853 246.554 266.559 247.368 266.925C248.189 267.272 249.055 267.261 249.965 266.891ZM260.408 264.501L252.945 255.826L255.167 254.924L261.287 262.339L261.613 262.207L260.833 252.622L263.055 251.719L263.751 263.143L260.408 264.501ZM272.127 260.073C271.407 260.366 270.712 260.506 270.042 260.493C269.385 260.475 268.791 260.297 268.258 259.959C267.739 259.616 267.341 259.105 267.065 258.425C266.784 257.732 266.715 257.095 266.859 256.514C267.012 255.914 267.326 255.383 267.803 254.92C268.294 254.451 268.906 254.068 269.64 253.77L272.697 252.528L272.432 251.876C272.195 251.291 271.828 250.894 271.331 250.685C270.834 250.475 270.219 250.519 269.485 250.817C268.765 251.109 268.284 251.503 268.041 251.997C267.799 252.491 267.727 253.035 267.825 253.628L265.612 253.791C265.554 253.182 265.614 252.587 265.791 252.009C265.975 251.412 266.312 250.856 266.799 250.341C267.287 249.826 267.952 249.398 268.794 249.056C270.099 248.526 271.26 248.442 272.277 248.804C273.295 249.166 274.052 249.959 274.549 251.182L276.228 255.32C276.394 255.728 276.667 255.855 277.047 255.7L277.903 255.352L278.615 257.105L277.046 257.743C276.57 257.936 276.133 257.971 275.735 257.848C275.337 257.725 275.052 257.452 274.881 257.031L274.856 256.97L274.55 257.094C274.524 257.342 274.458 257.646 274.351 258.006C274.244 258.367 274.021 258.734 273.682 259.109C273.338 259.47 272.82 259.792 272.127 260.073ZM271.729 258.216C272.572 257.874 273.155 257.36 273.478 256.675C273.796 255.976 273.784 255.205 273.442 254.363L273.359 254.159L270.424 255.351C269.867 255.577 269.468 255.882 269.227 256.264C268.982 256.634 268.952 257.049 269.14 257.511C269.327 257.973 269.653 258.268 270.117 258.397C270.58 258.525 271.118 258.465 271.729 258.216ZM280.656 256.276L276.577 246.227L278.636 245.39L279.248 246.899L279.574 246.766C279.599 246.281 279.784 245.763 280.13 245.211C280.475 244.659 281.131 244.187 282.096 243.795C282.856 243.486 283.598 243.382 284.32 243.485C285.056 243.582 285.721 243.874 286.314 244.361C286.902 244.834 287.373 245.506 287.726 246.376L290.175 252.41L288.076 253.262L285.692 247.392C285.339 246.522 284.863 245.971 284.262 245.74C283.657 245.496 282.973 245.528 282.212 245.837C281.343 246.19 280.759 246.76 280.46 247.546C280.176 248.327 280.254 249.26 280.695 250.348L282.756 255.423L280.656 256.276ZM292.935 256.037L292.199 254.223L293.565 253.668C293.959 253.508 294.073 253.224 293.907 252.817L289.158 241.116L291.257 240.263L296.172 252.372C296.421 252.983 296.442 253.544 296.238 254.055C296.034 254.565 295.612 254.95 294.974 255.209L292.935 256.037ZM289.663 239.32C289.256 239.485 288.857 239.497 288.466 239.355C288.084 239.193 287.808 238.902 287.637 238.481C287.466 238.059 287.464 237.664 287.631 237.296C287.806 236.908 288.097 236.632 288.505 236.466C288.926 236.295 289.328 236.29 289.71 236.451C290.086 236.599 290.36 236.884 290.531 237.305C290.702 237.726 290.707 238.128 290.545 238.51C290.379 238.879 290.084 239.149 289.663 239.32ZM303.174 247.462C302.154 247.876 301.179 248.027 300.247 247.915C299.309 247.789 298.466 247.427 297.717 246.829C296.976 246.212 296.395 245.387 295.976 244.354L295.877 244.109C295.452 243.063 295.293 242.067 295.4 241.121C295.501 240.162 295.84 239.32 296.416 238.595C297.001 237.851 297.789 237.278 298.781 236.875C299.746 236.483 300.676 236.358 301.573 236.5C302.478 236.623 303.289 236.983 304.005 237.578C304.722 238.174 305.287 238.981 305.701 240L306.023 240.795L298.298 243.933C298.684 244.805 299.263 245.393 300.035 245.697C300.816 245.982 301.627 245.953 302.47 245.611C303.258 245.29 303.777 244.874 304.028 244.36C304.292 243.841 304.439 243.307 304.469 242.756L306.565 242.95C306.53 243.407 306.414 243.921 306.218 244.492C306.036 245.056 305.71 245.6 305.242 246.123C304.773 246.646 304.084 247.092 303.174 247.462ZM297.665 242.314L303.229 240.054C302.866 239.315 302.354 238.834 301.694 238.612C301.029 238.376 300.302 238.418 299.514 238.738C298.725 239.058 298.168 239.538 297.842 240.177C297.524 240.797 297.465 241.509 297.665 242.314Z" fill="black"/>
</g>
<defs>
<filter id="filter0_d_149_22" x="0" y="0" width="415.305" height="433.939" filterUnits="userSpaceOnUse" color-interpolation-filters="sRGB">
<feFlood flood-opacity="0" result="BackgroundImageFix"/>
<feColorMatrix in="SourceAlpha" type="matrix" values="0 0 0 0 0 0 0 0 0 0 0 0 0 0 0 0 0 0 127 0" result="hardAlpha"/>
<feOffset dy="12.5815"/>
<feComposite in2="hardAlpha" operator="out"/>
<feColorMatrix type="matrix" values="0 0 0 0 0 0 0 0 0 0 0 0 0 0 0 0 0 0 0.25 0"/>
<feBlend mode="normal" in2="BackgroundImageFix" result="effect1_dropShadow_149_22"/>
<feBlend mode="normal" in="SourceGraphic" in2="effect1_dropShadow_149_22" result="shape"/>
</filter>
</defs>
</svg>
