<svg width="578" height="570" viewBox="0 0 578 570" fill="none" xmlns="http://www.w3.org/2000/svg">
<path d="M21.2902 2.39062C21.2902 62.1175 21.9266 86.1203 21.9266 149.639M21.9266 149.639C21.9266 213.158 21.8282 328.929 21.2902 406.738C20.7522 484.547 20.3347 560.284 20.3347 560.284C20.3347 571.274 19.1579 558.305 19.2437 552.457C19.351 545.147 20.3806 337.177 20.3806 319.022C20.3806 300.866 21.2902 208.446 21.9266 149.639Z" stroke="black" stroke-width="3" stroke-miterlimit="10" stroke-linecap="round" stroke-linejoin="round"/>
<path d="M466.799 551.718C554.155 551.718 541.955 551.718 570.656 551.718C570.163 552.004 565.712 553.097 563.876 553.319C561.58 553.596 501.354 553.445 488.501 553.445C444.501 553.445 245.735 552.412 232.726 552.412M466.799 551.718C466.799 551.718 256.105 553.445 222.502 553.445C188.898 553.445 196.846 553.491 125.905 553.445C72.8679 553.41 9.44779 553.445 5.18005 553.445C0.912309 553.445 2.48705 551.373 2.48705 551.373C32.3184 552.412 84.2359 552.412 152.422 552.412C175.918 552.412 203.401 552.412 232.726 552.412M466.799 551.718C402.938 551.718 312.43 552.412 232.726 552.412" stroke="black" stroke-width="3" stroke-miterlimit="10" stroke-linecap="round" stroke-linejoin="round"/>
<path d="M555.421 285.75C555.422 355.257 556.838 398.989 556.838 444.435C556.838 489.882 556.115 566.873 556.115 566.873C556.115 566.873 554.448 570.117 554.448 563.777C554.448 557.437 555.538 512.366 555.421 447.591C555.304 382.817 555.31 314.942 555.421 285.75ZM555.421 285.75C555.421 252.985 554.664 186.055 554.709 148.811C554.759 107.047 554.709 46.9049 554.709 6.57812" stroke="black" stroke-width="3" stroke-miterlimit="10" stroke-linecap="round" stroke-linejoin="round"/>
<path d="M13.7188 16.9025C44.308 16.9025 70.9965 16.9025 86.7323 16.9025M86.7323 16.9025C102.468 16.9025 172.335 17.2077 201.918 17.2077M86.7323 16.9025C86.7323 16.9025 120.856 15.9524 140.863 15.9524C160.87 15.9524 201.918 17.2077 201.918 17.2077M575.891 17.2077C544.582 17.2077 559.058 16.9025 527.961 16.9025C510.236 16.9025 488.551 17.4111 457.465 17.2077M285.188 15.9524C306.702 15.9818 419.148 16.9569 457.465 17.2077M285.188 15.9524C262.939 15.922 231.501 17.2077 201.918 17.2077M285.188 15.9524C285.188 15.9524 339.133 15.9524 369.346 15.9524M457.465 17.2077C457.465 17.2077 399.558 15.9524 369.346 15.9524M201.918 17.2077C220.05 17.2077 262.09 17.2077 285.188 17.2077C308.287 17.2077 350.918 16.3709 369.346 15.9524" stroke="black" stroke-width="3" stroke-miterlimit="10" stroke-linecap="round" stroke-linejoin="round"/>
</svg>
