<svg width="115" height="102" viewBox="0 0 115 102" fill="none" xmlns="http://www.w3.org/2000/svg">
<rect width="114.452" height="102" fill="#FFDC58"/>
<path d="M56.7022 73.896C53.3316 73.896 50.3449 73.2987 47.7422 72.104C45.1396 70.9093 43.0916 69.2027 41.5982 66.984C40.1476 64.7227 39.4222 62.056 39.4222 58.984V57.832H47.6142V58.728C47.6142 61.1173 48.4462 63.0373 50.1102 64.488C51.7742 65.896 53.9716 66.6 56.7022 66.6C59.4756 66.6 61.6089 65.9387 63.1022 64.616C64.6382 63.2933 65.4062 61.6293 65.4062 59.624V58.984C65.4062 57.6187 65.0649 56.5093 64.3822 55.656C63.6996 54.8027 62.7822 54.184 61.6302 53.8C60.4782 53.3733 59.1769 53.16 57.7262 53.16H48.7662V44.2L63.2302 36.52V35.496H40.5742V28.2H72.3182V39.08L58.8142 46.248V47.272H61.1822C63.1876 47.272 65.1289 47.6773 67.0062 48.488C68.9262 49.2987 70.5049 50.5573 71.7422 52.264C72.9796 53.928 73.5982 56.104 73.5982 58.792V59.56C73.5982 62.4613 72.8942 65 71.4862 67.176C70.0782 69.3093 68.0942 70.9733 65.5342 72.168C63.0169 73.32 60.0729 73.896 56.7022 73.896Z" fill="black"/>
</svg>
