<svg width="474" height="59" viewBox="0 0 474 59" fill="none" xmlns="http://www.w3.org/2000/svg">
<path fill-rule="evenodd" clip-rule="evenodd" d="M423.508 49.907C339.598 42.0577 254.269 46.3993 170.148 44.986C114.522 44.0404 58.8931 41.7628 3.30811 41.0002C1.64159 40.9799 0.270976 42.322 0.24783 44.0098C0.22569 45.6976 1.5601 47.0804 3.22562 47.1008C58.8046 47.8633 114.428 50.1409 170.047 51.0865C254.017 52.4998 339.185 48.148 422.944 55.9872C424.605 56.1397 426.074 54.9095 426.235 53.2318C426.386 51.5542 425.158 50.0697 423.508 49.907Z" fill="black"/>
<path d="M425.443 56.8959C425.417 57.3532 425.617 57.7942 425.979 58.0752C426.34 58.3562 426.817 58.4413 427.254 58.3028L443.712 53.083C443.987 52.9958 444.228 52.8252 444.402 52.595L471.131 17.2077C471.426 16.818 471.494 16.3025 471.312 15.8493C469.565 11.5025 466.215 8.31292 462.658 6.25563C459.12 4.20962 455.234 3.20024 452.258 3.35624C451.831 3.37859 451.439 3.5954 451.193 3.94443L426.696 38.6918C426.546 38.9044 426.459 39.1548 426.444 39.4145L425.443 56.8959Z" fill="#B3B3B3"/>
<path d="M424.339 36.4575C424.264 36.5638 424.221 36.689 424.213 36.8188L423.212 54.3002C423.199 54.5289 423.299 54.7494 423.48 54.8899C423.661 55.0304 423.9 55.0729 424.118 55.0037L440.576 49.7839C440.714 49.7403 440.834 49.655 440.921 49.5399L467.65 14.1526C467.797 13.9578 467.832 13.7 467.741 13.4734C466.065 9.30504 462.842 6.22278 459.384 4.22279C455.936 2.22845 452.182 1.26853 449.369 1.41599C449.155 1.42717 448.959 1.53557 448.836 1.71009L424.339 36.4575Z" fill="white" stroke="black" stroke-width="1.39241" stroke-linejoin="round"/>
<path d="M449.405 2.11134L424.909 36.8587C428.009 37.2627 435.441 40.2806 440.366 49.1204L467.095 13.7331C463.888 5.75315 454.707 1.83351 449.405 2.11134Z" fill="#FF5757"/>
<path d="M439.755 49.4543C439.868 49.6617 440.079 49.7974 440.315 49.8146C440.551 49.8319 440.779 49.7285 440.921 49.5399L463.293 19.9208C463.447 19.7174 463.477 19.4462 463.372 19.2139C462.438 17.1527 460.43 14.121 457.41 11.6282C454.38 9.12785 450.302 7.1481 445.256 7.27576C445.036 7.28133 444.832 7.39066 444.705 7.57059L424.34 36.4576C424.2 36.6558 424.173 36.9126 424.27 37.1353C424.366 37.3579 424.571 37.5143 424.812 37.5481C427.771 37.9643 435.088 40.9193 439.755 49.4543Z" fill="#F8D044" stroke="black" stroke-width="1.39241" stroke-linejoin="round"/>
<path d="M424.408 45.5993L423.907 54.34L432.136 51.7301C429.433 48.0374 425.858 46.1043 424.408 45.5993Z" fill="black"/>
<path d="M438.544 46.7756L461.478 16.3038" stroke="black" stroke-width="1.39241" stroke-linecap="round" stroke-linejoin="round"/>
<path d="M431.01 40.1989L452.502 8.92045" stroke="black" stroke-width="1.39241" stroke-linecap="round" stroke-linejoin="round"/>
</svg>
