<svg width="581" height="572" viewBox="0 0 581 572" fill="none" xmlns="http://www.w3.org/2000/svg">
<path d="M22.2902 3.39062C22.2902 63.1175 22.9266 87.1203 22.9266 150.639M22.9266 150.639C22.9266 214.158 22.8282 329.929 22.2902 407.738C21.7522 485.547 21.3347 561.284 21.3347 561.284C21.3347 572.274 20.1579 559.305 20.2437 553.457C20.351 546.147 21.3806 338.177 21.3806 320.022C21.3806 301.866 22.2902 209.446 22.9266 150.639Z" stroke="black" stroke-width="6.28125" stroke-miterlimit="10" stroke-linecap="round" stroke-linejoin="round"/>
<path d="M467.799 552.718C555.155 552.718 542.955 552.718 571.656 552.718C571.163 553.004 566.712 554.097 564.876 554.319C562.58 554.596 502.354 554.445 489.501 554.445C445.501 554.445 246.735 553.412 233.726 553.412M467.799 552.718C467.799 552.718 257.105 554.445 223.502 554.445C189.898 554.445 197.846 554.491 126.905 554.445C73.8679 554.41 10.4478 554.445 6.18005 554.445C1.91231 554.445 3.48705 552.373 3.48705 552.373C33.3184 553.412 85.2359 553.412 153.422 553.412C176.918 553.412 204.401 553.412 233.726 553.412M467.799 552.718C403.938 552.718 313.43 553.412 233.726 553.412" stroke="black" stroke-width="6.28125" stroke-miterlimit="10" stroke-linecap="round" stroke-linejoin="round"/>
<path d="M556.421 286.75C556.422 356.257 557.838 399.989 557.838 445.435C557.838 490.882 557.115 567.873 557.115 567.873C557.115 567.873 555.448 571.117 555.448 564.777C555.448 558.437 556.538 513.366 556.421 448.591C556.304 383.817 556.31 315.942 556.421 286.75ZM556.421 286.75C556.421 253.985 555.664 187.055 555.709 149.811C555.759 108.047 555.709 47.9049 555.709 7.57812" stroke="black" stroke-width="6.28125" stroke-miterlimit="10" stroke-linecap="round" stroke-linejoin="round"/>
<path d="M14.7188 17.9027C45.308 17.9027 71.9965 17.9027 87.7323 17.9027M87.7323 17.9027C103.468 17.9027 173.335 18.2079 202.918 18.2079M87.7323 17.9027C87.7323 17.9027 121.856 16.9527 141.863 16.9527C161.87 16.9527 202.918 18.2079 202.918 18.2079M576.891 18.2079C545.582 18.2079 560.058 17.9027 528.961 17.9027C511.236 17.9027 489.551 18.4114 458.465 18.2079M286.188 16.9527C307.702 16.9821 420.148 17.9572 458.465 18.2079M286.188 16.9527C263.939 16.9223 232.501 18.2079 202.918 18.2079M286.188 16.9527C286.188 16.9527 340.133 16.9527 370.346 16.9527M458.465 18.2079C458.465 18.2079 400.558 16.9527 370.346 16.9527M202.918 18.2079C221.05 18.2079 263.09 18.2079 286.188 18.2079C309.287 18.2079 351.918 17.3711 370.346 16.9527" stroke="black" stroke-width="6.28125" stroke-miterlimit="10" stroke-linecap="round" stroke-linejoin="round"/>
</svg>
